<svg width="254" height="259" viewBox="0 0 254 259" fill="none" xmlns="http://www.w3.org/2000/svg">
<path d="M191.437 159.873C192.741 159.439 193.657 159.625 194.185 160.432L195.163 158.01C197.43 161.271 198.362 168.615 197.958 180.043C197.492 193.055 195.086 204.67 190.738 214.887C185.086 228.054 180.024 234.746 175.552 234.964L173.409 235.197L164.14 234.638C159.357 234.048 156.376 233.38 155.196 232.634L143.97 215.539C143.907 214.017 146.004 210.26 150.258 204.266C154.016 198.925 158.565 193.071 163.907 186.705C169.497 180.028 174.667 174.314 179.419 169.562C185.008 163.941 189.014 160.712 191.437 159.873Z" fill="#0D131A"/>
<path d="M152.914 225.181C157.448 219.529 163.55 214.778 171.221 210.927C179.295 206.89 185.894 205.57 191.018 206.968C190.117 210.415 189.046 213.691 187.804 216.797C185.04 223.815 182.385 228.535 179.838 230.958C178.348 232.355 176.562 233.1 174.481 233.193L173.456 233.287L164.326 232.588C159.668 231.874 156.827 231.206 155.802 230.585C155.336 230.305 154.482 228.753 153.24 225.927L152.914 225.181H152.867V225.135L152.914 225.181Z" fill="#5DC1CF"/>
<path d="M193.114 161.178C194.636 163.383 195.319 168.941 195.164 177.854C194.977 187.854 193.595 197.558 191.018 206.968C185.894 205.57 179.295 206.89 171.22 210.927C163.55 214.778 157.432 219.529 152.867 225.181V225.135C151.594 222.402 150.507 220.383 149.606 219.079C148.209 217.061 146.765 215.849 145.274 215.446V215.353C145.274 214.266 146.889 211.393 150.119 206.735C153.628 201.611 158.115 195.742 163.581 189.127C169.574 181.891 175.071 175.758 180.071 170.727C185.04 165.727 188.72 162.637 191.111 161.457C192.198 160.867 192.866 160.774 193.114 161.178Z" fill="#50A8B4"/>
<path d="M192.089 174.826C193.331 176.286 193.953 177.466 193.953 178.366L193.906 178.739C192.726 183.832 190.894 188.413 188.409 192.481C186.298 195.928 183.099 199.887 178.813 204.359C176.112 207.185 171.826 209.996 165.957 212.791C159.435 215.896 152.758 218.07 145.926 219.312L147.557 231.517C148.209 237.541 148.535 242.029 148.535 244.979C148.535 245.817 148.287 246.718 147.79 247.681C147.479 248.767 146.889 249.544 146.02 250.01C143.691 251.283 139.389 252.277 133.116 252.991C126.905 253.674 123.132 253.627 121.797 252.851C116.393 249.652 110.462 243.224 104.003 233.566C97.419 223.753 93.0869 214.716 91.0062 206.455C87.8697 205.213 84.5468 203.505 81.0376 201.331C77.6216 199.22 74.9509 197.248 73.0255 195.415C72.187 198.987 70.6498 202.263 68.4139 205.244C67.327 206.704 66.3022 207.822 65.3395 208.598C64.0662 210.151 59.5322 210.865 51.7375 210.741L40.418 210.042C38.2442 209.67 36.6138 208.971 35.5269 207.946C34.3469 206.797 33.6481 205.104 33.4307 202.869C33.0581 199.266 33.1668 195.71 33.7568 192.201L34.5487 186.472L35.0611 182.326C35.2474 181.332 35.2319 179.873 35.0145 177.947L34.6419 175.339C33.4928 166.488 33.2599 159.935 33.9431 155.681C34.7816 150.526 37.4523 143.942 41.9553 135.93C47.0793 126.831 54.6411 120.216 64.6407 116.086C70.6032 113.633 76.7987 112.235 83.227 111.894C88.1026 111.645 97.5898 115.061 111.689 122.142C120.198 126.396 129.421 131.474 139.358 137.374C151.873 144.796 163.038 152.001 172.851 158.988C182.664 165.976 189.077 171.255 192.089 174.826Z" fill="#0D131A"/>
<path d="M65.8984 117.484C71.6746 114.937 77.4663 113.509 83.2735 113.198C90.3851 112.825 110.602 123.601 143.923 145.526C160.6 156.519 176.546 167.575 191.763 178.692C190.397 183.226 188.658 187.295 186.546 190.897C184 195.214 180.708 199.282 176.671 203.101C172.137 207.356 165.77 210.912 157.572 213.769C151.672 215.849 147.743 216.89 145.787 216.89C145.352 216.89 145.026 216.144 144.808 214.654L144.343 210.601C144.249 209.328 143.861 208.909 143.178 209.343C142.526 209.778 142.324 210.788 142.573 212.371C143.349 216.533 144.249 222.65 145.274 230.725C146.485 240.445 146.905 245.988 146.532 247.354C146.532 247.572 146.175 247.882 145.461 248.286C143.256 249.466 139.234 250.444 133.396 251.221L123.101 251.64C122.139 251.361 120.26 249.823 117.465 247.028C114.049 243.674 110.788 239.824 107.683 235.476C98.6456 222.899 93.475 210.058 92.1707 196.953C91.8912 194.096 91.5186 192.17 91.0528 191.176C90.5559 190.245 90.2143 190.586 90.0279 192.201C89.7485 194.313 89.9503 198.195 90.6335 203.847C84.0499 201.331 77.1713 196.487 69.9977 189.313C59.3769 178.724 53.43 166.83 52.1567 153.631C52.0014 151.985 51.7685 150.836 51.458 150.184C51.1474 149.563 50.8835 149.594 50.6661 150.277C50.1071 152.11 50.3555 156.023 51.4114 162.016C52.1878 166.24 53.461 170.137 55.2311 173.708C58.554 180.292 63.8799 187.093 71.2088 194.111C70.8982 195.943 70.2461 197.915 69.2523 200.027C68.1654 202.356 66.8611 204.421 65.3394 206.222C64.7494 206.999 63.414 207.682 61.3334 208.272C57.2031 209.483 51.3959 209.685 43.9117 208.878L41.9552 208.505C39.7814 208.132 38.151 207.387 37.0641 206.269C36.0704 205.244 35.4803 203.816 35.294 201.984C35.1077 199.717 35.2629 197.03 35.7598 193.925L36.8312 186.798C37.1418 184.096 37.2194 181.907 37.0641 180.23C36.1325 170.603 35.7753 164.283 35.9927 161.271C36.5828 153.134 39.3001 144.998 44.1446 136.862C49.3307 128.073 56.582 121.614 65.8984 117.484Z" fill="#5DC1CF"/>
<path d="M76.8918 188.009C81.7674 190.245 86.1461 191.642 90.0279 192.201C89.7484 194.313 89.9503 198.195 90.6335 203.847C85.6337 201.922 80.0438 198.273 73.8639 192.9C64.9512 185.168 58.7092 176.457 55.1379 166.768C59.8893 176.426 67.1406 183.506 76.8918 188.009Z" fill="#50A8B4"/>
<path d="M71.2089 194.111C70.8983 195.943 70.2462 197.915 69.2524 200.027C68.1655 202.356 66.8612 204.421 65.3395 206.222L63.2899 207.573C61.2092 208.505 58.3677 209.064 54.7654 209.25C59.3925 207.418 61.4421 202.573 60.9142 194.716C60.4484 188.195 58.4298 180.928 54.8585 172.916C58.1503 179.81 63.6004 186.875 71.2089 194.111Z" fill="#50A8B4"/>
<path d="M60.9141 119.813C64.9822 117.484 69.4075 115.729 74.19 114.549C77.3575 113.804 80.3854 113.353 83.2735 113.198C90.385 112.825 110.602 123.601 143.923 145.526C160.6 156.519 176.546 167.575 191.763 178.692C190.397 183.226 188.658 187.295 186.546 190.897C183.999 195.214 180.708 199.282 176.671 203.101C172.137 207.356 165.77 210.912 157.572 213.769C151.671 215.849 147.743 216.89 145.787 216.89C145.352 216.89 145.026 216.144 144.808 214.654L144.343 210.601C144.249 209.328 143.861 208.909 143.178 209.343C142.526 209.778 142.324 210.788 142.572 212.371C143.349 216.533 144.249 222.65 145.274 230.725C146.485 240.445 146.905 245.988 146.532 247.354C146.532 247.572 146.175 247.882 145.461 248.286L143.504 249.078C143.659 240.227 142.635 232.79 140.43 226.765C136.827 216.89 130.12 209.996 120.306 206.083C118.257 186.083 114.499 170.246 109.033 158.569C99.158 137.576 83.1182 124.657 60.9141 119.813Z" fill="#50A8B4"/>
<path d="M44.7034 204.08C45.2935 204.142 46.1009 204.778 47.1257 205.989C48.2126 207.263 48.725 208.396 48.6629 209.39C48.6008 210.446 48.1505 211.595 47.312 212.837C46.4735 214.079 45.7748 214.7 45.2158 214.7C44.6568 214.7 43.7407 213.893 42.4675 212.278C41.1942 210.694 40.5576 209.607 40.5576 209.017C40.5266 208.458 41.0856 207.496 42.2346 206.129C43.3836 204.732 44.2066 204.049 44.7034 204.08Z" fill="#0D131A"/>
<path d="M46.8927 207.294C47.4517 208.164 47.7156 208.816 47.6846 209.25C47.6846 209.716 47.3585 210.508 46.7064 211.626C46.0231 212.713 45.5573 213.256 45.3089 213.256C44.9983 213.256 44.3307 212.729 43.3059 211.673C42.25 210.586 41.7531 209.794 41.8152 209.297C41.8463 208.831 42.4829 207.729 43.7251 205.99C44.0667 205.493 44.3617 205.213 44.6102 205.151C44.8275 205.12 45.1226 205.26 45.4952 205.57L46.8927 207.294Z" fill="white"/>
<path d="M52.2032 210.415C52.1411 209.918 52.6379 208.847 53.6938 207.201C54.7807 205.493 55.6037 204.608 56.1627 204.546C56.7527 204.515 57.6067 205.229 58.7247 206.688C59.8426 208.179 60.324 209.25 60.1687 209.903L59.3302 212.651C58.8023 213.862 58.2278 214.638 57.6067 214.98C56.9856 215.322 55.9297 214.763 54.4391 213.303C53.0417 211.937 52.2963 210.974 52.2032 210.415Z" fill="#0D131A"/>
<path d="M56.1626 205.896C56.4421 205.803 57.0011 206.316 57.8395 207.434C58.678 208.583 59.1438 209.483 59.237 210.135L58.4917 212.185C57.9638 213.272 57.5601 213.862 57.2806 213.955C56.97 214.048 56.2247 213.583 55.0446 212.558C53.8956 211.533 53.29 210.819 53.2279 210.415C53.1969 210.011 53.6161 209.173 54.4856 207.9C55.3241 206.688 55.8831 206.021 56.1626 205.896Z" fill="white"/>
<path d="M62.2184 209.017C62.2184 208.303 62.5134 207.309 63.1034 206.036C63.8487 204.483 64.6872 203.49 65.6189 203.055C66.6126 202.558 67.6374 203.552 68.6933 206.036C69.7181 208.458 70.0442 210.368 69.6715 211.766C69.4852 212.542 68.1809 212.418 65.7586 211.393C63.3674 210.337 62.1873 209.545 62.2184 209.017Z" fill="#0D131A"/>
<path d="M65.5256 204.126C65.9604 203.971 66.597 204.965 67.4355 207.108C68.274 209.188 68.6466 210.368 68.5535 210.648C68.4914 210.834 67.684 210.632 66.1312 210.042C64.5164 209.452 63.6468 208.971 63.5226 208.598C63.3984 208.163 63.5847 207.356 64.0816 206.176C64.6095 204.996 65.0909 204.313 65.5256 204.126Z" fill="white"/>
<path d="M122.309 252.013C122.434 251.112 122.915 250.165 123.753 249.171C124.592 248.208 125.306 247.696 125.896 247.634C126.642 247.603 127.464 248.053 128.365 248.985C129.172 249.854 129.685 250.708 129.902 251.547C130.026 252.044 129.7 253.27 128.924 255.227C128.117 257.214 127.511 258.161 127.107 258.068C126.579 257.944 125.648 257.043 124.312 255.366C122.915 253.658 122.247 252.54 122.309 252.013Z" fill="#0D131A"/>
<path d="M123.707 252.292C123.769 251.671 124.002 251.019 124.405 250.336C124.84 249.559 125.29 249.109 125.756 248.985C126.253 248.83 126.905 249.202 127.713 250.103C128.458 250.91 128.846 251.547 128.877 252.013L128.179 254.342C127.713 255.46 127.356 256.081 127.107 256.205C126.828 256.329 126.191 255.848 125.197 254.761C124.173 253.612 123.676 252.789 123.707 252.292Z" fill="white"/>
<path d="M136.191 246.283C136.843 246.221 137.868 246.656 139.265 247.587C140.787 248.581 141.532 249.482 141.501 250.289L140.895 254.156C140.492 255.864 140.088 256.764 139.684 256.857C138.97 257.044 137.681 256.485 135.818 255.18C133.924 253.876 132.914 252.82 132.79 252.013C132.728 251.423 133.147 250.336 134.048 248.752C134.98 247.137 135.694 246.314 136.191 246.283Z" fill="#0D131A"/>
<path d="M136.703 247.727C136.983 247.665 137.604 247.96 138.567 248.612C139.56 249.264 140.088 249.761 140.15 250.103L139.917 252.851C139.669 254.342 139.436 255.149 139.219 255.273C138.939 255.429 138.039 254.947 136.517 253.829C134.995 252.68 134.234 251.888 134.234 251.454C134.234 251.019 134.576 250.289 135.259 249.264C135.942 248.302 136.424 247.789 136.703 247.727Z" fill="white"/>
<path d="M145.6 242.976C146.718 242.541 148.085 243.768 149.7 246.656C151.314 249.544 151.78 251.485 151.097 252.479C150.911 252.758 149.777 252.618 147.696 252.059L143.644 250.709L142.526 249.917C142.371 249.637 142.371 249.125 142.526 248.379C142.681 247.541 143.1 246.501 143.784 245.258C144.498 243.923 145.103 243.162 145.6 242.976Z" fill="#0D131A"/>
<path d="M146.159 244.327C147.246 244.948 148.209 246.159 149.047 247.96C149.761 249.544 150.056 250.569 149.932 251.035C149.839 251.314 148.876 251.143 147.044 250.522C145.243 249.901 144.234 249.466 144.016 249.218C143.799 248.938 143.985 247.991 144.575 246.376C145.165 244.73 145.693 244.047 146.159 244.327Z" fill="white"/>
<path d="M153.053 228.954C153.115 228.675 153.659 228.287 154.684 227.79C155.802 227.231 156.625 227.075 157.152 227.324C157.774 227.603 158.395 228.395 159.016 229.7C159.668 231.004 159.854 231.858 159.575 232.262L157.385 234.358C156.143 235.32 155.243 235.755 154.684 235.662C154.125 235.538 153.674 234.529 153.333 232.634C152.991 230.895 152.898 229.669 153.053 228.954Z" fill="#0D131A"/>
<path d="M156.594 228.163C156.904 228.225 157.293 228.722 157.758 229.653C158.193 230.585 158.333 231.191 158.178 231.47L156.64 233.194C155.74 234.063 155.165 234.498 154.917 234.498C154.7 234.498 154.498 233.753 154.311 232.262L154.125 229.653C154.156 229.405 154.498 229.079 155.15 228.675C155.833 228.272 156.314 228.101 156.594 228.163Z" fill="white"/>
<path d="M164.839 231.004C165.863 230.104 166.702 229.607 167.354 229.514C168.037 229.389 168.907 229.948 169.963 231.19C170.956 232.371 171.453 233.209 171.453 233.706C171.453 234.141 170.848 235.134 169.637 236.687C168.332 238.364 167.323 239.172 166.609 239.109C165.863 239.047 165.025 238.085 164.093 236.221C163.193 234.42 162.898 233.271 163.208 232.774C163.457 232.371 164 231.781 164.839 231.004Z" fill="#0D131A"/>
<path d="M167.494 230.492C167.867 230.616 168.379 231.019 169.031 231.703C169.808 232.479 170.149 233.069 170.056 233.473L168.426 236.175C167.401 237.51 166.764 238.162 166.516 238.131C166.205 238.131 165.739 237.401 165.118 235.942C164.466 234.482 164.233 233.519 164.42 233.054C164.606 232.557 165.103 231.982 165.91 231.33C166.718 230.647 167.246 230.367 167.494 230.492Z" fill="white"/>
<path d="M176.857 231.19C178.006 229.824 178.984 229.172 179.792 229.234C180.817 229.327 181.422 230.476 181.608 232.681C181.826 234.917 181.36 236.672 180.211 237.945C179.497 238.721 178.487 238.349 177.183 236.827C175.972 235.398 175.366 234.249 175.366 233.38C175.366 233.131 175.863 232.402 176.857 231.19Z" fill="#0D131A"/>
<path d="M178.115 231.516C178.922 230.709 179.45 230.414 179.698 230.631C179.947 230.849 180.195 231.315 180.444 232.029L180.77 233.799L180.351 235.29C180.071 236.19 179.792 236.765 179.512 237.013C179.233 237.262 178.689 236.796 177.882 235.616C177.168 234.56 176.764 233.799 176.671 233.333C176.95 232.836 177.431 232.231 178.115 231.516Z" fill="white"/>
<path d="M78.1026 54.5978L88.8631 60.7L114.53 88.7424L77.6368 94.9379L63.01 89.348C53.2899 85.5593 48.492 83.5252 48.6162 83.2457C48.7404 83.0284 50.6347 81.957 54.2992 80.0316L63.4293 75.0007C61.0381 75.8081 57.7307 77.1745 53.5073 79.0999L47.9174 81.5688C47.5758 81.5377 45.8057 80.2179 42.6071 77.6093C39.3774 74.9697 37.8712 73.5567 38.0886 73.3703L43.1661 70.622C46.6442 68.6966 49.1131 67.0507 50.5726 65.6843C47.8709 66.4296 44.548 67.6563 40.6041 69.3643L35.3403 71.6002C34.9676 71.5692 33.477 70.4357 30.8684 68.1997C28.2598 65.9327 27.0487 64.6905 27.235 64.4732C27.3903 64.2868 28.7256 63.6192 31.2411 62.4701L37.9955 59.3026L29.4709 60.8863L23.6016 61.818C23.0737 61.7869 22.2507 61.4143 21.1328 60.7C20.0458 59.9547 19.4868 59.4423 19.4558 59.1628C19.4247 58.9454 20.4806 58.3088 22.6234 57.2529L27.8406 54.6909L21.6452 54.6443C19.0366 54.5201 17.8565 54.2251 18.1049 53.7593C18.3534 53.3245 19.58 52.3152 21.7849 50.7315L25.1854 48.4023L27.6077 48.9148L25.9307 48.3558C25.0301 48.0142 24.704 47.7813 24.9525 47.657L28.7256 46.3993C30.9305 45.7161 32.1416 45.39 32.359 45.4211L39.2998 49.334L37.0172 46.6788L35.2937 44.4429C35.0763 43.946 36.9241 43.5578 40.837 43.2783L47.1721 43.5112L50.759 49.6601L50.1068 46.1664C49.8894 44.8932 49.8428 44.1944 49.9671 44.0702L52.2962 44.2565C53.6626 44.536 54.4855 44.7689 54.765 44.9553C54.9824 45.1416 55.883 46.6167 57.4668 49.3806L56.1625 46.0267C55.6656 44.7845 55.4793 44.0702 55.6035 43.8839C55.7277 43.6665 58.0102 44.4895 62.4511 46.3527C66.8298 48.216 69.1123 49.3029 69.2986 49.6135L71.0687 54.2717L70.6029 52.1289L70.37 50.7315C70.4632 50.6072 73.0407 51.896 78.1026 54.5978Z" fill="#0D131A"/>
<path d="M112.248 87.9507L77.7769 93.7269L51.3648 83.1062C60.3086 78.2617 65.5879 75.2028 67.2027 73.9295L69.1126 72.4389L66.7369 72.9047C65.1531 73.3084 61.8613 74.504 56.8615 76.4915C52.3275 78.3238 49.4084 79.566 48.1041 80.2181L40.1851 73.6034L46.4271 70.1098C49.5947 68.1533 51.8928 66.4298 53.3213 64.9392L54.9051 63.402C54.9361 63.2467 54.02 63.4641 52.1567 64.0541L42.9335 67.3149L35.5269 70.203L29.3315 64.7994L35.6201 61.7716L42.0018 58.5574L43.7719 57.6724C44.5483 57.1755 43.8341 57.1134 41.6292 57.486L23.8348 60.607L21.7386 59.2562L30.5892 54.598L32.0333 54.039C32.6544 53.6353 32.0643 53.4489 30.2631 53.48L24.6267 53.6197L19.7356 53.5732C21.0088 52.2689 22.9342 50.9335 25.5118 49.5671L33.85 51.7565L36.2257 52.6881C37.4368 53.0297 37.0486 52.5949 35.0611 51.3838C33.1047 50.1727 31.614 49.3342 30.5892 48.8684L28.2135 47.8901L32.2196 46.679L41.6292 51.9428C41.8776 52.0049 41.8155 51.7099 41.4428 51.0577C40.1075 48.6976 38.7411 46.6635 37.3436 44.9555L46.7998 44.6294C48.601 48.2007 50.1226 50.949 51.3648 52.8744C52.048 53.8992 52.4517 54.2408 52.576 53.8992V53.1073C51.8307 49.1323 51.3804 46.5237 51.2251 45.2815L54.1598 45.9803L60.5415 56.8805C61.1315 57.5637 61.1315 56.8494 60.5415 54.7377L58.7714 49.1944L57.5137 45.9803L68.3673 50.4987L72.9323 62.4703L73.3982 60.5139L71.9075 52.4086C73.4913 53.0918 76.1154 54.4737 79.7799 56.5544C83.2891 58.573 86.084 60.2654 88.1647 61.6319L112.248 87.9507Z" fill="#00A63C"/>
<path d="M84.7174 86.46L80.6647 77.6094L98.5057 85.7147L140.709 101.459L140.15 102.158C136.827 106.257 133.334 110.294 129.669 114.269C122.433 122.126 117.185 126.722 113.924 128.058L113.691 128.151L113.459 128.058C110.167 126.847 102.946 126.288 91.7978 126.381H76.0065C75.727 125.946 75.2146 124.704 74.4693 122.654L72.2799 116.226L73.1184 126.474L73.0253 127.825C72.9321 128.104 72.6992 128.291 72.3265 128.384C60.0599 129.999 53.8334 130.589 53.6471 130.154C53.5229 129.874 53.4763 128.322 53.5074 125.496L53.6471 119.021C52.9328 120.76 52.467 123.306 52.2496 126.66L51.9701 131.551C51.7838 131.862 48.5541 132.902 42.2811 134.672C36.008 136.411 32.8094 137.188 32.6852 137.002C32.592 136.815 32.5299 135.526 32.4988 133.135L32.592 128.384L30.2629 134.998C29.4865 137.265 28.9897 138.461 28.7723 138.585L21.1794 140.169L13.9592 141.147L16.4746 136.256L20.3409 128.943C19.3161 129.626 15.9933 132.545 10.3724 137.7C5.18621 142.452 2.48445 144.796 2.26707 144.734C1.95652 144.641 1.92547 143.026 2.1739 139.89C2.39129 136.815 2.60867 135.123 2.82605 134.812C3.1366 134.377 6.45946 132.048 12.7946 127.825C11.6766 128.166 9.28544 129.067 5.62098 130.527C2.57762 131.738 1.00935 132.281 0.916188 132.157C0.791969 131.94 1.8323 129.843 4.03719 125.868C6.21102 121.862 7.49979 119.72 7.9035 119.44C8.18299 119.223 9.68915 118.664 12.422 117.763L19.9217 115.248L13.7263 115.807L10.2792 115.9C10.155 115.589 11.2264 113.819 13.4934 110.589C15.8846 107.142 17.6081 105.233 18.664 104.86C19.9683 104.332 25.2941 103.711 34.6416 102.997C33.8652 102.686 31.8622 102.112 28.6325 101.273C26.0239 100.621 24.7196 100.186 24.7196 99.9688C24.7196 99.6893 26.6761 98.0279 30.589 94.9845C34.4708 91.9722 36.6291 90.435 37.0639 90.3729L40.6973 90.8387L46.9859 92.0498L42.5606 90.2797C40.9768 89.6586 40.2936 89.317 40.511 89.2549L46.8461 85.901C50.8832 83.7272 53.0571 82.5937 53.3676 82.5005C53.6782 82.3763 55.1843 82.7955 57.8861 83.7582L65.6653 86.5065L61.4263 84.3638C59.8425 83.5874 59.2525 83.0905 59.6562 82.8731C60.1531 82.5937 62.7772 82.0191 67.5286 81.1496L75.2612 79.9385C75.8512 80.0316 79.0033 82.2055 84.7174 86.46Z" fill="#0D131A"/>
<path d="M83.2734 80.2178L97.9934 86.9256L138.566 102.018C134.747 106.645 131.051 110.869 127.48 114.689C121.114 121.458 116.486 125.48 113.598 126.753C110.058 125.542 103.319 124.89 93.3817 124.797C87.6677 124.735 82.0157 124.828 76.4259 125.076L71.7211 110.403C71.2863 109.068 70.9447 108.415 70.6963 108.447C70.4168 108.447 70.3391 109.176 70.4634 110.636C71.1466 117.064 71.5347 122.561 71.6279 127.126L54.9049 128.71C55.3708 121.66 55.3708 117.033 54.9049 114.828C54.6255 113.369 53.818 115.279 52.4827 120.558C51.1784 125.651 50.5107 128.912 50.4796 130.34L33.7101 135.091L33.6635 133.275C33.6635 131.939 33.7722 130.371 33.9896 128.57C34.238 126.707 34.3622 125.03 34.3622 123.539C34.3933 121.396 34.3312 120.34 34.1759 120.372C34.0828 120.403 33.7256 121.35 33.1045 123.213L27.8408 137.421L16.3816 139.424L22.3441 127.685L23.6949 126.148C24.2229 125.371 23.5086 125.589 21.5522 126.8C19.3783 128.166 17.1735 129.797 14.9375 131.691L7.06514 138.771L3.57148 141.986C3.63359 140.464 3.8044 138.212 4.08389 135.231L16.9405 126.567L18.338 125.635C18.897 125.076 18.2604 124.999 16.4281 125.402C12.8258 126.179 8.44708 127.576 3.29199 129.595C4.59629 127.048 6.41299 124.036 8.7421 120.558C17.22 117.483 22.577 115.605 24.8129 114.921C26.552 114.393 27.437 114.036 27.4681 113.85L24.5334 113.664L12.655 114.456C13.8351 112.468 14.9841 110.714 16.1021 109.192C17.4685 107.36 18.4622 106.319 19.0833 106.071L28.1202 104.906L37.4832 104.114L39.5794 103.835C39.7037 103.742 39.067 103.416 37.6696 102.857C32.9803 100.9 29.5332 99.6425 27.3283 99.0835L33.0114 94.7514L37.5764 91.5838L43.9582 92.8415L52.4361 94.3787L55.1844 94.5651C55.2776 94.4408 54.4857 93.975 52.8088 93.1676L43.4923 89.115L53.4609 83.8978L73.3514 90.2329C74.5936 90.4503 73.8638 89.8137 71.1621 88.3231L65.5257 85.0623L63.1965 83.5251L74.9818 81.2892L87.7919 90.1863L83.2734 80.2178Z" fill="#00A63C"/>
<path d="M87.7921 90.1863L83.2736 80.2178L97.9936 86.9256L138.567 102.018C134.747 106.645 131.051 110.869 127.48 114.689C121.114 121.458 116.487 125.48 113.599 126.753C111.363 125.977 107.838 125.433 103.024 125.123C103.366 119.036 102.59 114.098 100.695 110.31C98.3352 105.496 94.1117 102.158 88.025 100.295C88.025 97.655 87.2021 94.9222 85.5562 92.0962C84.345 90.0776 82.4041 87.5777 79.7334 84.5965L87.7921 90.1863Z" fill="#009233"/>
<path d="M247.801 63.5881C251.373 65.4204 253.189 66.4607 253.251 66.7091C253.314 66.8955 251.543 67.6563 247.941 68.9917L239.417 72.1127L247.615 72.0661L251.714 72.4387C251.807 72.594 250.534 73.9759 247.895 76.5845L243.469 80.6838L237.74 79.9385L228.516 78.4478L236.622 81.8017C239.727 83.075 241.295 83.7737 241.326 83.8979L235.271 88.9288C231.172 92.0964 228.982 93.6491 228.703 93.587L222.135 89.4412C217.57 86.6152 214.169 84.814 211.933 84.0377C220.132 89.5654 224.153 92.5311 223.998 92.9349C223.905 93.2144 221.684 94.3013 217.337 96.1956C213.082 98.0278 210.769 98.9595 210.396 98.9905L203.269 94.3789C198.145 91.056 194.325 88.9909 191.81 88.1835C193.611 89.7052 196.344 92.4225 200.008 96.3354C203.642 100.217 205.381 102.267 205.225 102.484C205.039 102.702 204.107 103.105 202.43 103.695L199.449 104.487L196.188 101.459C193.984 99.3787 192.322 98.0899 191.204 97.5931L195.164 102.158C197.058 104.301 197.974 105.434 197.912 105.559C197.788 105.807 196.39 106.801 193.72 108.54C190.956 110.341 189.45 111.18 189.201 111.055L185.428 107.422C182.819 104.969 180.677 103.385 179 102.671L183.285 108.214C185.645 111.04 186.763 112.499 186.639 112.592L168.752 118.322L135.725 107.236L148.582 76.0256L148.675 75.9324C150.383 74.2244 154.715 71.4295 161.671 67.5476C168.441 63.79 171.981 62.0665 172.292 62.377C172.509 62.5944 172.137 64.085 171.174 66.8489L169.031 73.0909L172.338 65.6378C173.332 63.2776 173.953 62.0044 174.202 61.818C174.667 61.5075 177.245 60.6845 181.934 59.3492C186.655 58.0138 189.03 57.4859 189.061 57.7654L187.245 61.6783C185.785 64.4732 184.853 66.4297 184.45 67.5476L188.596 61.2125C190.117 58.9144 191.002 57.6877 191.251 57.5325C191.592 57.3151 193.316 56.989 196.421 56.5543L201.173 56.0884L197.539 64.4266L202.058 59.256L205.039 56.0418L210.675 55.7158C214.154 55.5916 215.955 55.6071 216.079 55.7624C216.203 55.9176 215.986 56.8648 215.427 58.6039L213.796 62.8428C218.952 58.5573 222.321 56.0263 223.905 55.25L223.998 55.2034H224.138C225.473 55.2034 228.206 55.7313 232.336 56.7872C236.311 57.7809 238.299 58.3865 238.299 58.6039L236.016 61.492L232.196 65.8707L237.926 62.7497C240.224 61.5075 241.528 60.8709 241.839 60.8398C242.243 60.8087 244.23 61.7249 247.801 63.5881Z" fill="#0D131A"/>
<path d="M233.081 63.2618C231.28 65.4978 230.053 66.8797 229.401 67.4076C228.532 68.1219 228.097 68.5567 228.097 68.7119C228.128 68.9293 228.811 68.7896 230.146 68.2927C232.01 67.5474 235.907 65.4978 241.839 62.1439L250.41 66.5691L243.609 69.2709C239.851 70.7305 237.398 71.6 236.249 71.8795L233.034 72.5782C232.507 72.7335 232.941 72.8577 234.339 72.9509L249.105 73.4167L243.096 79.0997L235.503 78.1681L224.23 76.6309C221.995 76.3514 221.265 76.4446 222.041 76.9104L223.904 77.7023C233.749 81.7394 238.764 83.8977 238.95 84.1772C239.075 84.3635 237.444 85.6989 234.059 88.1832L228.749 91.7701C217.103 85.4349 210.442 82.1897 208.765 82.0344L206.576 81.8947C206.483 81.9878 207.104 82.3915 208.439 83.1058L216.079 88.1367C219.712 90.6831 221.544 92.1117 221.575 92.4222C221.606 92.6396 219.991 93.4781 216.731 94.9376L210.489 97.6394C200.986 90.7453 194.123 87.0187 189.899 86.4597C187.167 86.1181 186.064 86.1181 186.592 86.4597L189.294 87.6708C190.132 88.1988 192.104 89.9844 195.21 93.0278C198.688 96.4438 201.328 99.3164 203.129 101.645C202.104 101.925 200.97 102.375 199.728 102.996C199.076 102.282 197.57 101.086 195.21 99.4095C192.819 97.7015 191.064 96.568 189.946 96.009C188.921 95.5122 188.424 95.3414 188.455 95.4966L189.34 96.8009L192.461 100.854L196.141 105.325L189.434 109.564L184.636 105.419C181.965 103.307 179.869 101.894 178.347 101.18C177.291 100.683 176.748 100.527 176.717 100.714L177.415 102.251C177.788 103.027 178.797 104.549 180.443 106.816L184.589 112.033L168.751 117.111L137.262 106.537L149.559 76.6775C151.764 74.5347 158.705 70.5131 170.382 64.6127L168.518 71.4137L166.748 77.4694C166.251 78.8668 166.049 79.6898 166.143 79.9382C166.267 80.2177 166.826 79.4879 167.82 77.7489L172.105 69.3175L175.18 62.5165L186.685 59.2092C185.381 61.5693 183.797 65.6065 181.934 71.3205C181.282 73.2149 180.987 74.2241 181.049 74.3484L182.959 71.7863C184.574 69.2088 187.57 64.8146 191.949 58.6036L199.821 57.4856C198.3 59.6284 196.809 62.796 195.35 66.9884C194.884 68.3548 194.713 69.0535 194.837 69.0846L196.328 67.594L205.598 57.2062L214.961 56.9267L213.47 60.4203L211.374 64.8922L210.535 66.9884L212.259 65.6375L218.035 60.9327C221.016 58.5105 223.097 56.9888 224.277 56.3677C225.923 56.4298 229.913 57.377 236.249 59.2092L233.081 63.2618Z" fill="#00A63C"/>
<path d="M157.339 71.5068C160.91 77.0346 163.441 81.6773 164.931 85.4349C174.807 85.7454 182.493 87.6398 187.99 91.1179C189.791 92.2359 192.011 93.9594 194.651 96.2885L201.685 102.158L199.728 102.996C199.076 102.282 197.57 101.086 195.21 99.4095C192.819 97.7015 191.064 96.568 189.946 96.009C188.921 95.5121 188.424 95.3413 188.455 95.4966L189.34 96.8009L192.461 100.854L196.141 105.325L189.434 109.564L184.636 105.419C181.965 103.307 179.869 101.894 178.347 101.18C177.291 100.683 176.748 100.527 176.717 100.714L177.415 102.251C177.788 103.027 178.797 104.549 180.443 106.816L184.589 112.033L168.751 117.111L137.262 106.537L149.559 76.6775C150.615 75.6837 153.208 73.9602 157.339 71.5068Z" fill="#009233"/>
<path d="M107.263 107.701L97.9468 107.515C92.6675 107.391 90.2297 107.158 90.6334 106.816L99.5772 99.9687L85.2299 95.4502L83.2734 94.6583L85.4162 94.2856L107.263 95.4502L127.154 107.375L114.018 111.288C105.322 113.804 101.114 114.844 101.394 114.409L104.329 111.102L107.263 107.701Z" fill="#0D131A"/>
<path d="M101.161 100.202L102.325 99.5029L101.161 98.7576C100.508 98.447 98.4278 97.8725 94.9186 97.034L89.9343 95.7297L98.3191 96.0092L106.937 96.6148L124.172 106.956C112.775 110.403 106.813 111.971 106.285 111.661C106.036 111.506 106.486 110.698 107.636 109.239C108.816 107.717 109.344 106.847 109.219 106.63L101.533 106.071L93.8472 105.791C93.6919 105.698 94.7012 104.844 96.8751 103.229L101.161 100.202Z" fill="#00A63C"/>
<path d="M135.632 4.80163C137.371 4.11843 138.364 4.1029 138.613 4.75505C138.706 5.0656 138.566 5.7488 138.194 6.80466C137.541 8.91638 137.2 10.6554 137.169 12.0219L140.057 9.22693C141.237 8.10896 142.137 7.44128 142.759 7.2239L144.575 7.13073C144.948 7.37917 144.948 7.9071 144.575 8.71453C143.768 10.4536 143.318 12.7827 143.224 15.7018C143.1 19.9874 144.172 23.4966 146.439 26.2294L146.904 26.835L146.252 27.2076C142.215 29.4436 138.085 31.4155 133.861 33.1235L128.691 34.9868L128.178 35.1266L118.07 16.6335L120.958 10.9039C123.07 6.86677 124.545 4.24265 125.383 3.03151C126.408 1.60299 127.231 0.904263 127.852 0.935317C128.473 0.997427 128.706 1.72721 128.551 3.12468C128.303 6.04382 128.256 8.01579 128.411 9.0406L131.486 6.99099C132.976 6.02829 134.358 5.29851 135.632 4.80163Z" fill="#0D131A"/>
<path d="M141.687 15.5621C141.687 19.8477 142.774 23.4811 144.948 26.4624C139.172 29.661 133.799 32.0367 128.831 33.5894L119.561 16.6801C124.126 8.14007 126.424 4.27376 126.455 5.08118L126.408 7.8761C126.408 9.24251 126.502 10.1431 126.688 10.5779L127.107 11.5095L128.272 10.6244C129.017 9.9723 130.539 9.04066 132.837 7.82952C135.197 6.58733 136.346 6.15257 136.284 6.52522L135.771 9.50648L135.399 13.0467C135.399 14.8479 135.911 15.1584 136.936 13.9784C137.526 13.2952 138.644 12.2703 140.29 10.9039C141.936 9.53753 142.666 9.02513 142.479 9.36673C142.293 9.73939 142.122 10.5468 141.967 11.789C141.78 13.1244 141.687 14.3821 141.687 15.5621Z" fill="#C94772"/>
<path d="M119.468 15.9348C120.182 15.6864 120.694 15.795 121.005 16.2609L123.52 19.7079C125.073 22.4718 125.849 25.3599 125.849 28.3722C125.849 30.9187 125.321 33.3876 124.266 35.7788C123.52 37.4868 122.651 40.5612 121.657 45.002L118.816 58.7437C116.486 70.7309 114.654 79.1467 113.319 83.9912C111.114 92.0033 108.909 96.5839 106.704 97.7329L104.235 97.7795L101.999 96.7547C96.5648 94.3014 92.7296 91.8791 90.4936 89.4879C86.7981 85.4198 84.5932 79.4417 83.879 71.5538C83.1647 63.5728 88.1645 52.2844 98.8784 37.6886C102.916 32.1609 107.015 27.2232 111.176 22.8755C115.151 18.7452 117.915 16.4317 119.468 15.9348Z" fill="#0D131A"/>
<path d="M120.446 44.4426L117.558 58.5103C115.353 69.7522 113.614 77.8109 112.341 82.6864C110.136 90.947 108.055 95.5742 106.099 96.5679C105.664 96.7853 105.229 96.7853 104.794 96.5679L102.512 95.5431C97.2946 93.2451 93.6302 90.9315 91.5185 88.6024C87.9782 84.7205 85.8665 78.9909 85.1833 71.4136L85.1367 70.1093C85.1367 63.7431 88.6459 55.1875 95.6643 44.4426C101.409 35.6851 107.512 28.1544 113.971 21.8502C115.648 20.2043 117.077 18.9622 118.257 18.1237L120.027 17.0989L120.073 17.1455L122.402 20.313C123.862 22.8285 124.592 25.4837 124.592 28.2786C124.592 30.5766 124.079 32.9057 123.055 35.2659C122.278 37.0049 121.409 40.0638 120.446 44.4426Z" fill="#0D131A"/>
<path d="M158.597 38.9466C172.416 58.5422 171.391 76.8179 155.522 93.7738C151.33 98.2767 146.066 101.475 139.731 103.37C134.514 104.953 129.188 105.528 123.753 105.093C118.909 104.689 113.925 103.478 108.801 101.46C104.484 99.7828 101.782 98.3388 100.695 97.1277C92.2485 93.5874 85.4785 88.51 80.3856 81.8953C76.0379 76.2434 73.538 70.4517 72.8858 64.5202C71.83 55.1727 75.8981 45.6079 85.0903 35.8256C90.1833 30.329 95.8663 25.6397 102.139 21.7579C105.214 19.8635 107.589 17.7828 109.266 15.5159C110.726 13.4973 111.456 11.6185 111.456 9.87942L111.363 7.31741C111.238 6.72737 110.959 6.13733 110.524 5.54729C110.027 4.86408 109.934 4.41379 110.245 4.19641C110.586 3.97902 111.285 4.11877 112.341 4.61565C113.894 5.32991 115.151 6.38577 116.114 7.78323L118.07 11.3235L118.816 8.48196C119.251 7.23977 119.747 6.9137 120.306 7.50374C121.3 8.5596 122.387 12.5967 123.567 19.6151L124.266 16.4941C124.421 16.0593 125.027 16.6649 126.083 18.3108C127.977 21.3231 129.25 23.5746 129.902 25.0652C130.741 22.5808 132.076 19.879 133.908 16.9599C134.654 15.7798 135.259 15.1587 135.725 15.0966C136.16 15.0656 136.346 15.578 136.284 16.6338C136.222 18.2176 136.532 20.143 137.216 22.41C137.713 21.0746 138.551 19.584 139.731 17.9381C140.849 16.3854 141.952 15.1277 143.038 14.165C144.125 13.2023 145.15 12.6743 146.113 12.5812C147.076 12.457 147.355 12.8296 146.951 13.6992L145.833 16.4009C145.492 17.5499 145.274 18.9319 145.181 20.5467C146.237 19.0871 147.138 18.0158 147.883 17.3326C148.411 16.8357 149.296 16.168 150.538 15.3295C153.364 13.4041 154.358 13.4507 153.519 15.4693C151.594 19.879 150.833 23.233 151.237 25.531C151.765 28.2949 154.218 32.7668 158.597 38.9466Z" fill="#0D131A"/>
<path d="M114.623 31.2603C108.381 37.0365 104.142 41.027 101.906 43.2319C92.6827 52.2688 88.1643 62.02 88.3506 72.4855C88.4438 77.9511 89.5617 82.718 91.7045 86.7862C92.6672 88.5252 94.1889 90.5593 96.2696 92.8884C82.3881 83.7894 75.4008 73.7121 75.3076 62.6566V62.4703C75.3076 54.2719 79.1118 45.8405 86.7202 37.1762C92.1238 31.0274 97.931 26.1208 104.142 22.4563C109.608 19.2266 112.682 15.5311 113.365 11.3698L113.458 8.1556C113.458 7.37924 113.583 7.1308 113.831 7.41029C115.042 8.7767 116.036 10.1276 116.812 11.4629C117.123 11.9598 117.464 12.8604 117.837 14.1647C118.054 14.9411 118.241 15.1119 118.396 14.6771L118.955 11.789C119.203 10.5468 119.452 10.0499 119.7 10.2984C120.415 11.0126 121.238 13.466 122.169 17.6583L122.309 19.1024C122.309 21.9905 119.747 26.0431 114.623 31.2603Z" fill="#E85382"/>
<path d="M115.229 37.269C107.9 45.0326 103.351 50.1722 101.58 52.6876C96.3632 60.0787 93.7546 67.5007 93.7546 74.9539C93.7546 79.4568 95.4315 85.5901 98.7855 93.3538C96.6116 91.77 94.4378 88.4006 92.264 83.2455C91.0218 80.2953 90.4628 77.0966 90.587 73.6496C90.8044 68.3703 91.9534 63.3239 94.0341 58.5104C95.9595 54.0385 98.5836 49.9703 101.906 46.3059C104.049 43.9768 108.055 40.0639 113.925 34.5672C118.955 29.4121 122.014 24.9247 123.101 21.105C123.381 22.3161 123.257 23.8223 122.729 25.6234C121.673 29.1947 119.173 33.0766 115.229 37.269Z" fill="#C94772"/>
<path d="M154.032 92.7487C150.057 96.9721 144.995 99.8447 138.846 101.366C134.188 102.546 129.064 102.904 123.474 102.438C118.257 102.003 113.21 100.978 108.335 99.3633C104.391 98.028 102.155 96.9877 101.627 96.2423L101.766 96.2889L100.881 94.6585C97.4964 88.4165 95.804 82.2211 95.804 76.0723C95.804 68.6813 98.2417 61.2281 103.117 53.7129C105.85 49.4894 110.198 44.3033 116.16 38.1545C117.775 36.4465 119.747 33.6826 122.076 29.8629C124.84 25.2357 125.943 22.1923 125.384 20.7328C125.912 21.2607 126.564 22.2079 127.34 23.5743C128.21 25.096 128.986 26.245 129.669 27.0214C130.57 28.0462 131.113 28.4033 131.299 28.0927L131.439 26.0897C131.47 25.2512 131.89 24.0712 132.697 22.5495C133.38 21.152 134.203 19.7856 135.166 18.4502C135.445 21.1831 135.989 23.2793 136.796 24.7388L137.588 25.7171L138.007 24.4128C138.473 23.2016 139.172 21.7731 140.104 20.1272C141.47 17.7981 142.728 16.1367 143.877 15.1429L145.088 14.3044C144.715 15.174 144.42 16.3851 144.203 17.9378C143.954 19.3974 143.83 20.7794 143.83 22.0837C143.861 23.2327 143.985 23.7761 144.203 23.714L144.948 22.5495C145.259 21.9284 146.206 20.9346 147.79 19.5682C149.373 18.2018 150.088 17.7826 149.932 18.3105C149.342 20.6707 149.047 22.4408 149.047 23.6209C149.047 25.5152 149.606 27.6269 150.724 29.956C151.873 32.2851 153.907 35.4993 156.826 39.5985C159.373 43.1698 161.36 47.1138 162.789 51.4304C164.28 55.9644 165.025 60.5605 165.025 65.2187C165.025 70.1253 164.171 74.8301 162.463 79.333C160.6 84.2397 157.789 88.7116 154.032 92.7487Z" fill="#E85382"/>
<path d="M96.2698 92.888C90.742 89.2235 86.3168 85.4349 82.9939 81.522C84.5777 82.081 86.9844 82.7021 90.2141 83.3853C91.0526 85.6833 92.155 87.7795 93.5215 89.6738L96.2698 92.888Z" fill="#C94772"/>
<path d="M164 56.042C164.683 59.1785 165.025 62.2374 165.025 65.2187C165.025 70.1253 164.171 74.8301 162.463 79.333C160.599 84.2397 157.789 88.7116 154.031 92.7487C150.056 96.9721 144.994 99.8447 138.846 101.366C134.187 102.546 129.063 102.904 123.474 102.438C118.256 102.003 113.21 100.978 108.334 99.3633C104.39 98.028 102.154 96.9876 101.627 96.2423L101.766 96.2889L100.881 94.6585C99.1111 91.3667 97.8223 88.1836 97.0149 85.1092C111.145 89.0221 124.778 88.4165 137.914 83.2925C151.92 77.7958 160.615 68.7123 164 56.042Z" fill="#C94772"/>
<path d="M199.915 121.35C200.629 121.847 200.598 125.278 199.822 131.645C198.983 138.446 197.601 145.542 195.676 152.933C196.359 156.349 196.297 161.084 195.49 167.14C194.651 173.289 193.347 178.46 191.577 182.652C189.9 186.658 187.384 190.245 184.03 193.412C181.267 196.052 176.857 199.344 170.801 203.288C164.621 207.294 156.066 209.452 145.134 209.763C132.868 210.104 121.952 207.698 112.387 202.542C99.8101 195.773 92.2327 186.891 89.6552 175.897C88.1956 173.91 87.6677 171.845 88.0714 169.702C88.3819 168.149 89.1583 166.674 90.4005 165.277C89.9347 162.948 90.3229 159.423 91.565 154.703L93.5215 148.321L92.3569 146.225C91.5806 144.61 91.27 143.275 91.4253 142.219C90.7421 140.511 90.0434 136.939 89.3291 131.505C88.5527 125.635 88.4596 122.049 89.0496 120.744C90.416 119.72 94.3134 119.254 100.742 119.347L112.387 120.185C113.257 119.44 115.632 118.26 119.514 116.645C124.11 114.72 127.837 113.586 130.694 113.245C137.495 112.437 143.659 112.763 149.187 114.223C154.342 115.62 159.109 118.058 163.488 121.536C170.848 118.741 178.922 117.763 187.71 118.602C194.201 119.223 198.269 120.139 199.915 121.35Z" fill="#5DC1CF"/>
<path d="M119.514 116.645C124.11 114.72 127.837 113.586 130.694 113.245C141.594 111.971 150.91 113.633 158.643 118.229C154.295 120.962 150.103 124.269 146.066 128.151C143.426 130.666 139.808 134.533 135.212 139.75C125.585 127.638 115.384 123.539 104.608 127.452C104.484 125.403 103.769 123.586 102.465 122.002C101.161 120.418 99.6701 119.549 97.9932 119.393L106.704 119.626L112.387 120.185C113.257 119.44 115.632 118.26 119.514 116.645Z" fill="#50A8B4"/>
<path d="M92.0771 178.46C92.0771 178.211 93.2572 178.211 95.6174 178.46C98.0397 178.708 99.67 179.127 100.509 179.717L99.9495 182.792L99.0179 185.68C98.6142 186.767 98.1794 187.341 97.7136 187.403C96.9372 187.496 95.8348 186.456 94.4063 184.282C92.9777 182.015 92.2014 180.074 92.0771 178.46Z" fill="#0D131A"/>
<path d="M99.4837 180.229L98.6453 182.419C98.0242 184.251 97.5739 185.183 97.2944 185.214C97.077 185.214 96.7199 184.919 96.223 184.329L94.4529 181.86C93.5212 180.307 93.0554 179.189 93.0554 178.506V178.366L95.7106 178.646C97.1702 179.08 98.4279 179.608 99.4837 180.229Z" fill="white"/>
<path d="M199.915 121.35C200.629 121.847 200.598 125.279 199.822 131.645C198.983 138.446 197.601 145.542 195.676 152.933C196.359 156.349 196.297 161.085 195.49 167.14C194.651 173.289 193.347 178.46 191.577 182.652C189.807 186.845 186.686 191.146 182.214 195.555C177.804 199.903 174 202.481 170.801 203.288C174.497 201.363 177.757 198.397 180.583 194.391C183.596 190.167 185.738 185.323 187.012 179.857C190.055 166.845 187.772 153.399 180.164 139.517C178.083 135.666 177.043 133.446 177.043 132.856C177.043 132.514 177.913 131.738 179.652 130.527C184.186 127.328 188.828 124.828 193.58 123.027C197.368 121.567 199.48 121.009 199.915 121.35Z" fill="#50A8B4"/>
<path d="M172.804 190.059L171.22 191.829C170.63 192.481 170.118 192.729 169.683 192.574C169.342 192.45 168.907 191.984 168.379 191.177L165.491 186.379L166.05 185.633L176.344 184.795L172.804 190.059Z" fill="#0D131A"/>
<path d="M166.935 186.425C170.258 185.556 172.742 185.198 174.388 185.354C171.81 189.267 170.366 191.161 170.056 191.037L168.658 189.127L166.935 186.425Z" fill="white"/>
<path d="M201.312 119.766C202.151 120.387 202.229 124.176 201.545 131.132C200.707 139.206 198.968 146.799 196.328 153.911C198.005 160.805 197.788 168.041 195.676 175.618C193.564 183.226 190.102 189.127 185.288 193.319C188.58 187.139 190.956 182 192.415 177.9C194.092 173.149 195.008 168.584 195.164 164.205C195.226 161.907 195.024 159.283 194.558 156.333C194.154 153.88 193.782 152.249 193.44 151.442C193.192 150.821 193.145 150.417 193.3 150.231C193.456 150.044 193.735 150.122 194.139 150.464L195.397 151.768C197.415 144.004 198.766 137.048 199.449 130.899C200.039 125.744 200.055 122.716 199.496 121.816C197.664 120.698 193.704 119.844 187.617 119.254C178.953 118.415 170.988 119.378 163.721 122.142L163.348 122.235L163.069 122.049C158.69 118.57 153.845 116.288 148.535 115.201C143.504 114.176 137.635 114.145 130.927 115.108C126.766 115.729 122.294 117.204 117.511 119.533C114.251 121.117 111.409 122.794 108.987 124.564C107.558 125.589 106.72 126.008 106.471 125.822C106.223 125.697 106.456 125.232 107.17 124.424L109.592 122.095L111.083 120.791L100.09 119.952C94.2513 119.828 90.6645 120.201 89.3292 121.07C88.7702 121.598 88.6615 123.508 89.0031 126.8C89.4068 130.651 90.354 135.091 91.8446 140.122L92.3104 139.703C90.8508 131.039 90.1832 125.682 90.3074 123.632C90.3384 123.104 90.5869 122.778 91.0527 122.654C91.9533 122.623 93.4284 124.378 95.478 127.918C97.4655 131.365 98.5835 133.989 98.8319 135.79L99.3443 135.511L101.208 135.231C102.108 135.231 102.543 135.433 102.512 135.837C102.45 136.241 101.968 136.551 101.068 136.768C100.105 137.017 98.6456 137.7 96.6891 138.818C94.4532 140.091 92.8694 141.271 91.9378 142.358C91.3477 143.073 91.3011 144.579 91.798 146.877L92.7297 150.091C91.6427 152.42 90.9595 155.727 90.68 160.013C90.5248 162.125 90.4782 164.019 90.5403 165.696C88.7391 167.932 88.1957 170.323 88.9099 172.87C89.6242 175.416 91.2235 176.876 93.7079 177.248C95.6643 177.528 98.7232 178.49 102.885 180.136C108.164 182.186 112.356 184.391 115.462 186.751L115.601 186.844L115.648 186.937C116.673 188.77 118.272 190.509 120.446 192.155C122.713 193.863 124.561 194.639 125.989 194.484C127.666 194.328 131.284 192.993 136.843 190.478H136.889C145.492 188.211 156.019 186.347 168.472 184.888L175.832 183.956C176.888 183.863 177.928 183.475 178.953 182.792L180.956 181.208C181.515 180.773 181.903 180.664 182.121 180.882C182.369 181.099 182.291 181.518 181.888 182.139L180.397 183.863C179.621 184.484 178.441 185.012 176.857 185.447L174.528 185.773L170.242 186.239C155.957 187.916 145.274 189.686 138.194 191.549C132.014 194.717 128.023 196.394 126.222 196.58C124.514 196.766 122.371 195.772 119.794 193.599C117.496 191.704 115.772 189.748 114.623 187.729C111.642 185.524 107.714 183.537 102.838 181.767C99.2667 180.462 96.4407 179.655 94.36 179.344C92.9315 179.096 91.798 178.708 90.9595 178.18C93.9408 187.869 101.177 195.803 112.667 201.983C121.331 206.642 130.539 208.924 140.29 208.831C149.42 208.738 159.606 206.548 170.848 202.263C172.649 201.58 173.72 201.331 174.062 201.518C174.404 201.704 173.456 202.325 171.22 203.381C160.786 208.287 150.538 210.772 140.476 210.834C130.415 210.896 120.958 208.551 112.108 203.8C99.5306 197.03 91.9222 188.086 89.2826 176.969C87.4193 175.975 86.4876 174.189 86.4876 171.612C86.4566 169.127 87.2951 166.938 89.0031 165.044C88.9099 159.268 89.6863 154.33 91.3322 150.231C90.4937 148.895 90.0124 147.358 89.8881 145.619C89.7329 143.911 89.9813 142.591 90.6335 141.66C88.646 136.287 87.4814 131.179 87.1398 126.334C86.8603 122.142 87.1864 119.735 88.118 119.114C89.9502 117.965 94.0805 117.623 100.509 118.089L112.248 119.486C113.645 118.524 116.191 117.297 119.887 115.807C124.297 114.005 127.884 112.934 130.647 112.592C137.386 111.785 143.411 112.002 148.721 113.244C154.156 114.518 159.14 116.924 163.674 120.465C171.065 117.732 179.264 116.661 188.27 117.251C195.226 117.716 199.573 118.555 201.312 119.766Z" fill="#0D131A"/>
<path d="M91.2856 124.052V123.819C92.031 124.564 93.1489 126.443 94.6396 129.455C96.2233 132.623 97.186 135.076 97.5276 136.815C96.1923 137.219 94.7793 138.042 93.2887 139.284L92.0775 131.784C91.5496 127.996 91.2856 125.418 91.2856 124.052Z" fill="#431E37"/>
<path d="M96.5029 146.97C97.3414 147.281 97.9625 147.591 98.3662 147.902C100.757 149.765 103.583 153.787 106.844 159.966C109.732 165.556 111.766 170.37 112.946 174.407L113.552 176.829C113.583 177.419 113.443 177.699 113.133 177.668L112.387 177.155L112.155 176.689C109.95 177.248 106.58 176.348 102.046 173.988C98.3817 172.124 95.3384 170.152 92.9161 168.072C92.3571 167.885 92.0155 167.559 91.8913 167.093C91.8292 166.814 91.9068 166.566 92.1242 166.348L92.4969 166.115C91.8758 162.575 91.9845 158.988 92.823 155.355C93.6304 152.032 94.6707 149.905 95.9439 148.973L94.7328 147.715C94.5154 147.281 94.5154 146.97 94.7328 146.784L96.5029 146.97Z" fill="#0D131A"/>
<path d="M93.5217 162.948C93.5217 159.904 94.0031 156.908 94.9658 153.957C95.8042 151.411 96.5496 149.967 97.2017 149.625C98.6923 150.091 101.068 153.398 104.329 159.547C107.527 165.541 109.81 170.867 111.176 175.525C109.189 175.68 106.254 174.749 102.372 172.73C99.0805 170.991 96.2545 169.159 93.8944 167.233C93.6459 165.681 93.5217 164.252 93.5217 162.948Z" fill="white"/>
<path d="M101.58 153.911L102.419 153.864C104.344 156.908 106.301 160.603 108.288 164.951C110.276 169.33 111.673 172.994 112.48 175.944L112.62 176.41L108.335 175.944C105.105 175.385 102.59 174.454 100.788 173.149L100.649 173.103L100.555 172.916C99.1269 169.003 98.3971 165.743 98.3661 163.134C98.304 159.656 99.3754 156.582 101.58 153.911Z" fill="#0D131A"/>
<path d="M99.95 164.159C99.95 160.898 100.649 157.901 102.046 155.168C103.847 158.088 105.648 161.519 107.45 165.463C109.251 169.438 110.555 172.839 111.363 175.665C109.158 175.913 105.85 174.826 101.441 172.404C100.447 169.733 99.95 166.985 99.95 164.159Z" fill="#91308C"/>
<path d="M178.534 147.715C179.434 147.591 179.869 147.777 179.838 148.274C179.807 148.74 179.559 149.097 179.093 149.346L177.23 150.138C179.155 151.566 180.288 154.811 180.63 159.873C180.91 164.469 180.537 167.994 179.512 170.447C180.816 170.509 181.406 170.758 181.282 171.193L180.49 171.891L178.021 172.497L149.7 178.413L148.628 178.832C147.976 178.894 147.759 178.428 147.976 177.435C148.783 173.522 150.274 169.873 152.448 166.488C154.529 163.165 157.494 159.733 161.345 156.193C166.562 151.442 172.292 148.616 178.534 147.715Z" fill="#0D131A"/>
<path d="M162.043 158.848C164.59 156.519 167.152 154.563 169.73 152.979C172.09 151.551 174.077 150.666 175.692 150.324C176.624 151.442 177.353 153.507 177.881 156.519C178.378 159.221 178.627 162.063 178.627 165.044C178.627 167.715 178.425 169.656 178.021 170.867C174.729 171.332 166.562 173.103 153.519 176.177L150.165 176.969C150.476 174.453 151.671 171.612 153.752 168.444C155.833 165.246 158.596 162.047 162.043 158.848Z" fill="white"/>
<path d="M168.006 152.653L168.565 152.28L168.752 152.932C171.671 159.268 172.23 166.022 170.429 173.196L170.335 173.522L170.056 173.568L153.799 177.295L148.908 178.413V177.807C149.063 173.863 151.314 169.252 155.662 163.972C159.358 159.501 163.472 155.727 168.006 152.653Z" fill="#0D131A"/>
<path d="M168.006 153.864C169.404 159.144 170.102 163.615 170.102 167.28C170.102 169.236 169.901 171.038 169.497 172.683L153.566 176.363L149.979 177.202C150.321 173.506 152.494 169.252 156.5 164.438C159.917 160.339 163.752 156.814 168.006 153.864Z" fill="#91308C"/>
<path d="M197.912 124.191L197.213 124.89L196.841 125.123C197.648 126.303 197.508 129.921 196.421 135.977C195.49 141.101 194.682 144.563 193.999 146.364L193.254 147.995L192.741 147.203C192.431 146.427 191.08 144.734 188.689 142.126C185.956 139.206 183.487 137.001 181.282 135.511L180.257 136.21C179.854 136.489 179.59 136.489 179.466 136.21C179.341 135.899 179.559 135.418 180.118 134.766C180.956 133.772 183.254 131.846 187.012 128.989C191.173 125.791 193.937 124.052 195.303 123.772L197.959 123.493C198.176 123.586 198.16 123.819 197.912 124.191Z" fill="#0D131A"/>
<path d="M194.744 136.163C194.185 139.983 193.595 143.15 192.974 145.666C191.95 143.958 190.599 142.141 188.922 140.216C186.903 137.855 184.9 135.977 182.913 134.579C184.9 132.623 186.95 130.853 189.061 129.269C191.701 127.25 193.859 125.992 195.536 125.496L195.676 126.8C195.676 128.881 195.366 132.002 194.744 136.163Z" fill="#431E37"/>
<path d="M112.294 152.56C111.797 151.504 111.673 150.852 111.921 150.603C112.17 150.355 112.62 150.805 113.272 151.954C114.204 153.507 115.027 155.199 115.741 157.032C116.673 159.485 117.201 161.721 117.325 163.74C117.449 165.758 117.371 166.457 117.092 165.836L116.114 162.668L114.437 157.684L112.294 152.56Z" fill="#0D131A"/>
<path d="M154.078 149.159C154.73 148.693 155.134 148.569 155.289 148.787C155.445 149.035 155.274 149.377 154.777 149.811C153.442 151.023 152.184 152.948 151.004 155.588C149.731 158.445 148.737 161.736 148.023 165.463C147.805 166.705 147.557 167.419 147.277 167.606C146.998 167.823 146.889 167.187 146.951 165.696C147.324 157.684 149.7 152.172 154.078 149.159Z" fill="#0D131A"/>
<path d="M117.418 184.702L118.443 184.748C119.002 185.121 119.452 185.602 119.794 186.192L120.539 187.962C120.725 188.521 120.725 188.801 120.539 188.801L119.7 188.242L117.791 185.959C117.418 185.463 117.294 185.043 117.418 184.702Z" fill="#0D131A"/>
<path d="M128.877 189.36C129.157 188.397 130.259 187.481 132.184 186.612C132.743 186.332 133.116 186.379 133.302 186.751C133.52 187.124 133.38 187.481 132.883 187.823L129.716 189.872L128.598 190.338L128.877 189.36Z" fill="#0D131A"/>
<path d="M105.074 160.106L106.751 163.46L108.334 166.907C108.21 168.335 107.962 169.516 107.589 170.447C107.185 171.41 106.735 171.891 106.238 171.891C105.648 171.891 105.136 171.27 104.701 170.028C104.297 168.755 104.095 167.233 104.095 165.463C104.095 163.134 104.422 161.348 105.074 160.106Z" fill="#0D131A"/>
<path d="M159.342 169.329C159.093 170.944 158.628 172.295 157.944 173.382C157.292 174.438 156.625 174.904 155.941 174.78C155.289 174.686 154.808 174.034 154.497 172.823C154.218 171.581 154.202 170.152 154.451 168.538C154.699 166.923 155.165 165.587 155.848 164.532C156.5 163.445 157.168 162.963 157.851 163.087C158.534 163.212 159.016 163.879 159.295 165.09C159.575 166.302 159.59 167.715 159.342 169.329Z" fill="#0D131A"/>
<path d="M158.084 89.255C162.649 87.0501 169.217 84.3794 177.789 81.2429C186.608 77.9821 193.207 75.8704 197.586 74.9077L198.844 75.0009C198.906 75.2493 198.549 75.4667 197.772 75.653C193.828 76.6468 187.105 78.9914 177.602 82.6869C168.596 86.1961 161.594 89.1308 156.594 91.4909L158.084 89.255Z" fill="#0D131A"/>
<path d="M216.778 73.4173C209.759 75.0632 199.713 78.2153 186.639 82.8735C171.795 88.1528 160.351 92.8886 152.308 97.081L152.821 95.4506C160.615 91.3514 171.593 86.8019 185.754 81.8021C199.232 77.0818 209.511 74.0384 216.591 72.672C217.368 72.5478 217.787 72.5944 217.849 72.8118C217.911 73.0602 217.554 73.262 216.778 73.4173Z" fill="#0D131A"/>
<path d="M184.636 79.2867C185.102 76.2123 185.863 73.3397 186.919 70.669C187.074 70.2032 187.245 70.0013 187.431 70.0635C187.648 70.1256 187.679 70.3895 187.524 70.8554C186.81 73.0602 186.189 75.793 185.661 79.0538L184.636 79.2867Z" fill="#0D131A"/>
<path d="M171.546 84.271C172.199 80.9171 172.882 78.0445 173.596 75.6533C173.751 75.1875 173.922 75.0012 174.108 75.0943C174.295 75.1875 174.326 75.467 174.202 75.9328C173.643 78.0135 173.161 80.591 172.758 83.6654L171.546 84.271Z" fill="#0D131A"/>
<path d="M187.85 77.9821C188.068 76.3362 188.363 74.8766 188.735 73.6034C188.829 73.2307 188.984 73.0755 189.201 73.1376C189.388 73.1997 189.45 73.4171 189.388 73.7897L188.735 77.7492L187.85 77.9821Z" fill="#0D131A"/>
<path d="M196.188 79.1467L199.542 82.0814C199.822 82.3298 199.884 82.5317 199.728 82.687L199.076 82.5472L195.024 79.3796L196.188 79.1467Z" fill="#0D131A"/>
<path d="M171.873 87.8107L172.851 87.2983C173.938 88.0126 175.32 89.115 176.997 90.6057L180.77 94.4254C181.049 94.767 181.111 95.0154 180.956 95.1707C180.77 95.326 180.537 95.2328 180.257 94.8912L176.112 91.1647L171.873 87.8107Z" fill="#0D131A"/>
<path d="M179.093 84.9692L180.164 84.5034C182.68 86.3978 184.9 88.5095 186.825 90.8386C187.136 91.1802 187.198 91.4131 187.012 91.5373C186.825 91.6615 186.577 91.5528 186.266 91.2112C184.03 88.9132 181.639 86.8325 179.093 84.9692Z" fill="#0D131A"/>
<path d="M91.8912 91.3044L93.8476 92.5156C88.1957 93.7267 81.1307 95.4192 72.6528 97.593C62.6221 100.202 55.8211 102.205 52.2498 103.602L50.9921 103.649C50.8989 103.431 51.225 103.167 51.9703 102.857C55.9143 101.242 62.4979 99.1147 71.7211 96.4751C79.9817 94.146 86.705 92.4224 91.8912 91.3044Z" fill="#0D131A"/>
<path d="M35.4336 112.732L34.2224 112.826C34.1293 112.608 34.4398 112.344 35.1541 112.034C41.2408 109.332 49.7032 106.397 60.5413 103.23C71.2862 100.062 80.8977 97.6863 89.3756 96.1025L91.9842 96.9876C83.6926 98.6024 73.5998 101.071 61.7059 104.394C50.0293 107.655 41.2718 110.434 35.4336 112.732Z" fill="#0D131A"/>
<path d="M61.706 92.6556C61.3023 92.3761 61.1625 92.1587 61.2868 92.0034L62.0787 92.1432C64.3767 93.6648 66.6437 95.5747 68.8796 97.8728L67.9014 98.292C65.6965 95.9939 63.6314 94.1151 61.706 92.6556Z" fill="#0D131A"/>
<path d="M72.3268 96.6611L71.4417 96.9872L68.6468 94.1457C68.2741 93.8041 68.1499 93.5557 68.2741 93.4004C68.3983 93.2451 68.6623 93.3228 69.066 93.6333L72.3268 96.6611Z" fill="#0D131A"/>
<path d="M43.3527 109.332L44.2378 109.006C43.9893 110.403 43.834 111.816 43.7719 113.245C43.7409 113.71 43.6167 113.959 43.3993 113.99C43.213 113.99 43.1043 113.757 43.0732 113.291C43.0422 112.266 43.1353 110.947 43.3527 109.332Z" fill="#0D131A"/>
<path d="M64.2212 102.903C64.128 104.518 64.0814 106.35 64.0814 108.4C64.1125 110.884 64.2056 112.655 64.3609 113.71C64.423 114.145 64.3454 114.378 64.128 114.409C63.9106 114.471 63.7553 114.285 63.6622 113.85C63.4137 112.515 63.2274 110.729 63.1032 108.493C63.01 106.195 63.0411 104.409 63.1963 103.136L64.2212 102.903Z" fill="#0D131A"/>
<path d="M60.029 104.068C59.5943 107.329 59.439 110.465 59.5632 113.477C59.5943 113.943 59.5011 114.207 59.2837 114.269C59.0974 114.3 58.9732 114.099 58.9111 113.664C58.5695 110.745 58.585 107.67 58.9577 104.441L60.029 104.068Z" fill="#0D131A"/>
<path d="M129.856 126.288C131.719 124.486 137.262 124.626 146.485 126.707C155.771 128.787 160.507 131.101 160.693 133.648C160.848 135.915 157.805 139.921 151.563 145.666C145.29 151.442 140.911 154.159 138.427 153.818C136.035 153.476 133.598 149.19 131.113 140.961C128.66 132.762 128.241 127.871 129.856 126.288Z" fill="#008982"/>
<path d="M129.39 133.461C128.8 129.58 128.955 127.188 129.855 126.288C130.756 125.418 132.976 125.077 136.517 125.263C139.809 125.418 143.426 125.977 147.37 126.94C144.513 129.58 140.461 133.85 135.212 139.75C133.039 137.11 131.098 135.014 129.39 133.461Z" fill="#00736D"/>
<path d="M128.877 152.699C129.592 153.973 129.499 156.457 128.598 160.153C127.728 163.724 126.874 165.541 126.036 165.603C125.415 165.665 124.312 164.252 122.729 161.364C121.114 158.382 120.462 156.364 120.772 155.308C121.083 154.252 122.449 153.429 124.871 152.839L128.877 152.699Z" fill="#008982"/>
<path d="M75.0285 168.677L70.8361 168.538C70.3082 168.227 69.5008 167.233 68.4138 165.556C67.2648 163.724 66.7369 162.466 66.8301 161.783C66.9232 160.945 67.4977 159.423 68.5536 157.218C69.6405 154.858 70.5877 153.243 71.3951 152.374C72.2646 151.473 74.1124 150.836 76.9384 150.464C79.7022 150.091 81.2084 150.215 81.4568 150.836C81.8916 151.892 81.8916 154.672 81.4568 159.175C81.0531 163.833 80.4786 166.519 79.7333 167.233C79.019 167.948 77.4508 168.429 75.0285 168.677Z" fill="#008982"/>
<path d="M67.2491 145.899C67.1559 146.551 66.4417 147.296 65.1063 148.135C63.8331 148.911 62.948 149.268 62.4511 149.206C61.9232 149.113 61.1779 148.181 60.2152 146.411C59.2214 144.548 58.973 143.399 59.4699 142.964C60.0599 142.436 61.5195 142.591 63.8486 143.43C66.2398 144.299 67.3733 145.122 67.2491 145.899Z" fill="#008982"/>
<path d="M37.0176 184.888L37.0642 180.23L36.3188 173.475C36.0394 170.711 35.8841 168.289 35.853 166.209C38.3685 165.494 39.9988 165.184 40.7441 165.277C41.241 165.339 42.3745 166.938 44.1446 170.075C45.9148 173.242 46.7998 175.323 46.7998 176.317C46.7998 177.342 46.1321 179.112 44.7968 181.627C43.4614 184.112 42.4832 185.478 41.8621 185.726C41.1168 186.068 39.502 185.789 37.0176 184.888Z" fill="#008982"/>
<path d="M121.517 212.884C122.139 212.76 124.343 214.25 128.132 217.356C131.921 220.43 133.924 222.371 134.141 223.179C134.359 223.986 134.033 225.585 133.163 227.976C132.325 230.368 131.657 231.688 131.16 231.936C130.694 232.122 129.53 232.122 127.666 231.936L124.266 231.284C123.8 231.035 122.993 230.104 121.844 228.489C120.695 226.843 120.011 225.647 119.794 224.902C119.545 224.095 119.654 221.936 120.12 218.427C120.555 214.825 121.021 212.977 121.517 212.884Z" fill="#008982"/>
<path d="M119.002 234.358C119.53 234.172 120.756 234.513 122.682 235.383C124.638 236.252 125.679 236.998 125.803 237.619C125.927 238.24 125.43 239.249 124.312 240.646C123.256 242.013 122.48 242.758 121.983 242.882L119.794 242.603C118.8 242.292 118.21 241.904 118.024 241.438C117.744 240.693 117.744 239.358 118.024 237.432C118.303 235.507 118.629 234.482 119.002 234.358Z" fill="#008982"/>
<path d="M179.559 219.452C179.279 220.011 177.913 220.445 175.46 220.756C173.006 221.067 171.702 220.927 171.547 220.337C171.391 219.716 171.935 218.473 173.177 216.61C174.419 214.747 175.335 213.831 175.925 213.862C176.515 213.924 177.338 214.747 178.394 216.331C179.419 217.946 179.807 218.986 179.559 219.452Z" fill="#008982"/>
<path d="M187.804 216.797L187.664 217.169L183.937 217.029C183.378 216.471 183.021 214.887 182.866 212.278C182.711 209.856 182.773 208.163 183.052 207.201L183.145 206.828C186.189 206.331 188.813 206.378 191.018 206.968C190.117 210.415 189.046 213.691 187.804 216.797Z" fill="#008982"/>
<path d="M192.601 200.446L191.018 206.968C188.813 206.378 186.189 206.331 183.145 206.828C183.518 205.772 184.108 204.561 184.915 203.195C185.816 201.673 186.499 200.819 186.965 200.633L189.387 200.353L192.601 200.446Z" fill="#00736D"/>
<path d="M146.159 127.732C136.967 125.744 131.781 125.542 130.601 127.126C129.483 128.679 129.995 133.182 132.138 140.635C134.281 148.181 136.377 152.249 138.427 152.839C140.538 153.492 144.606 150.821 150.631 144.827C156.345 139.175 159.326 135.526 159.575 133.881C159.885 131.769 155.414 129.719 146.159 127.732ZM161.718 134.067C161.438 136.303 158.193 140.433 151.982 146.458C145.429 152.824 140.771 155.588 138.007 154.749C134.995 153.88 132.324 149.206 129.995 140.728C127.728 132.468 127.371 127.375 128.924 125.449C129.762 124.424 131.998 123.959 135.632 124.052C139.017 124.145 142.79 124.673 146.951 125.635C157.23 128.058 162.152 130.868 161.718 134.067Z" fill="#0D131A"/>
<path d="M121.471 155.355C121.315 156.1 121.905 157.839 123.241 160.572C124.576 163.305 125.477 164.609 125.942 164.485C126.532 164.33 127.169 162.559 127.852 159.175C128.536 155.79 128.613 153.833 128.085 153.305C127.65 152.87 126.455 152.964 124.498 153.585C122.573 154.237 121.564 154.827 121.471 155.355ZM129.296 151.908C130.352 152.87 130.461 155.417 129.622 159.547C128.784 163.646 127.697 165.929 126.362 166.395C125.182 166.83 123.66 165.308 121.797 161.83C119.995 158.476 119.219 156.193 119.468 154.982C119.685 153.957 121.16 152.995 123.893 152.094L129.296 151.908Z" fill="#0D131A"/>
<path d="M64.9668 147.529C66.1468 146.815 66.6592 146.287 66.504 145.945C66.2866 145.386 65.2773 144.765 63.4761 144.082C61.675 143.43 60.5415 143.228 60.0756 143.476C59.703 143.662 59.9048 144.501 60.6812 145.992C61.4576 147.451 62.0787 148.259 62.5445 148.414C63.0103 148.538 63.8177 148.243 64.9668 147.529ZM62.2184 149.951C61.411 149.703 60.4949 148.554 59.4701 146.504C58.4453 144.361 58.2434 142.964 58.8645 142.312C59.5167 141.597 61.1781 141.737 63.8488 142.731C66.5195 143.725 67.9014 144.734 67.9946 145.759C68.0878 146.566 67.3424 147.529 65.7586 148.647C64.1749 149.765 62.9948 150.199 62.2184 149.951Z" fill="#0D131A"/>
<path d="M67.9948 156.519C69.5475 153.383 70.5413 151.675 70.976 151.395C72.0008 150.743 73.8331 150.184 76.4727 149.718C79.2987 149.19 81.0688 149.221 81.7831 149.811C82.5905 150.464 82.7768 153.352 82.3421 158.476C81.9383 163.444 81.3638 166.472 80.6185 167.559C80.0285 168.429 78.4292 169.034 75.8206 169.376C73.5846 169.655 71.9387 169.671 70.8829 169.422C70.1686 169.267 69.1748 168.211 67.9016 166.255C66.6284 164.329 65.9296 162.87 65.8054 161.876C65.7433 161.41 66.4731 159.625 67.9948 156.519ZM69.4388 157.171C68.1966 159.842 67.5911 161.364 67.6221 161.736C67.6532 162.482 68.1345 163.631 69.0662 165.183C70.0289 166.767 70.8052 167.668 71.3953 167.885C72.0164 168.103 73.3672 168.087 75.4479 167.839C77.6528 167.559 78.9416 167.14 79.3142 166.581C79.9043 165.711 80.3856 163.041 80.7583 158.569C81.0999 154.097 81.0533 151.69 80.6185 151.349L76.8919 151.209C74.7802 151.519 73.0722 152.063 71.7679 152.839C71.4574 153.057 70.681 154.501 69.4388 157.171Z" fill="#0D131A"/>
<path d="M38.2284 166.441C37.1104 166.69 36.1632 167 35.3869 167.373L35.2937 165.51C36.1322 165.168 37.1725 164.858 38.4147 164.578L41.1165 164.252C41.9549 164.438 43.3058 166.364 45.1691 170.028C47.0013 173.568 47.8709 175.742 47.7777 176.55C47.6535 177.699 46.9392 179.562 45.6349 182.139C44.1443 185.028 42.9021 186.534 41.9084 186.658L38.8805 186.332C37.6073 186.021 36.6601 185.68 36.039 185.307V183.304C36.598 183.77 37.4365 184.174 38.5544 184.515L41.3028 184.888C41.9239 184.795 42.8245 183.568 44.0045 181.208C45.1225 178.91 45.6815 177.373 45.6815 176.596C45.6815 175.758 44.9517 173.863 43.4921 170.913C42.0015 167.963 40.9922 166.395 40.4643 166.208L38.2284 166.441Z" fill="#0D131A"/>
<path d="M121.797 213.862C121.331 214.048 120.989 215.539 120.772 218.334C120.586 220.601 120.524 222.775 120.586 224.855C120.617 225.228 121.191 226.191 122.309 227.744C123.427 229.234 124.157 230.088 124.499 230.306L127.713 231.051C129.545 231.299 130.616 231.315 130.927 231.097C131.393 230.756 131.967 229.545 132.65 227.464C133.334 225.29 133.52 223.893 133.209 223.272C132.713 222.278 130.818 220.415 127.526 217.682C124.204 214.918 122.294 213.645 121.797 213.862ZM119.281 217.961C119.654 214.39 120.229 212.449 121.005 212.139C121.968 211.766 124.374 213.132 128.225 216.238C131.89 219.219 134.048 221.346 134.7 222.619C135.166 223.582 134.98 225.321 134.141 227.837C133.396 230.104 132.682 231.579 131.998 232.262C131.533 232.759 130.197 232.914 127.992 232.728C126.005 232.573 124.592 232.309 123.753 231.936C123.319 231.781 122.418 230.694 121.052 228.675C119.685 226.657 118.986 225.383 118.955 224.855C118.862 223.023 118.971 220.725 119.281 217.961Z" fill="#0D131A"/>
<path d="M124.033 239.715C124.654 238.628 124.902 237.961 124.778 237.712C124.561 237.308 123.722 236.765 122.262 236.082C120.772 235.399 119.794 235.072 119.328 235.104C119.079 235.104 118.862 235.849 118.676 237.339C118.458 238.892 118.474 240.088 118.722 240.926C118.815 241.237 119.312 241.547 120.213 241.858L122.03 242.091C122.682 241.687 123.349 240.895 124.033 239.715ZM126.548 237.339C126.517 238.24 126.02 239.405 125.057 240.833C124.157 242.168 123.38 243.038 122.728 243.442L119.747 243.255C118.256 242.79 117.449 242.277 117.325 241.718C117.014 240.662 116.999 239.079 117.278 236.967C117.527 234.731 117.961 233.52 118.582 233.333C119.328 233.085 120.849 233.52 123.148 234.638C125.446 235.756 126.579 236.656 126.548 237.339Z" fill="#0D131A"/>
<path d="M175.925 214.607C175.615 214.607 174.9 215.43 173.782 217.076C172.664 218.753 172.199 219.716 172.385 219.964L175.599 219.871C177.556 219.529 178.596 219.172 178.72 218.8C178.844 218.52 178.487 217.759 177.649 216.517C176.81 215.275 176.236 214.638 175.925 214.607ZM176.065 213.07C176.81 213.194 177.804 214.188 179.046 216.051C180.257 217.914 180.739 219.126 180.49 219.685C180.149 220.461 178.58 221.067 175.785 221.501C172.959 221.936 171.251 221.827 170.661 221.175C170.164 220.616 170.739 219.095 172.385 216.61C174.031 214.126 175.257 212.946 176.065 213.07Z" fill="#0D131A"/>
<path d="M190.506 199.468L194.186 199.887L193.627 201.797L190.552 201.331C189.093 201.238 188.006 201.238 187.291 201.331C186.888 201.362 186.22 202.263 185.288 204.033C184.419 205.741 183.891 207.03 183.705 207.899C183.456 209.079 183.41 210.71 183.565 212.79C183.751 214.933 184.031 216.113 184.403 216.331L185.894 216.564L189.341 215.911L188.456 217.914C185.94 218.536 184.217 218.536 183.285 217.914C182.571 217.449 182.121 215.71 181.934 212.697C181.748 210.213 181.748 208.505 181.934 207.573C182.059 206.797 182.649 205.384 183.705 203.334C184.916 200.881 185.925 199.608 186.732 199.515C187.54 199.421 188.798 199.406 190.506 199.468Z" fill="#0D131A"/>
<path d="M176.671 102.252L177.742 103.975L179 106.118C179.528 107.112 179.699 107.671 179.512 107.795L178.068 107.841L176.112 107.608L178.022 108.307C178.612 108.525 179 108.758 179.186 109.006C179.528 109.441 179.699 110.885 179.699 113.338C179.73 115.822 179.435 116.909 178.813 116.599L172.991 114.409L167.028 112.36C170.351 114.596 173.068 116.599 175.18 118.369L176.624 119.627C177.059 120.092 177.168 120.512 176.95 120.884C172.571 128.928 170.165 132.965 169.73 132.996C169.482 132.996 168.534 132.049 166.888 130.154L163.069 125.589L165.91 135.511C166.221 136.909 166.034 138.12 165.351 139.145C164.948 139.766 163.224 141.349 160.181 143.896C157.137 146.442 155.554 147.638 155.429 147.483L155.01 142.918L154.637 136.536L152.821 140.216C152.106 141.676 151.594 142.436 151.283 142.498C150.88 142.592 148.675 141.66 144.669 139.704C140.663 137.747 138.691 136.567 138.753 136.163C138.815 135.822 139.871 134.222 141.92 131.365L145.554 126.381C145.026 126.94 143.846 128.384 142.014 130.713L139.498 133.648L135.446 131.319L131.626 128.71C131.626 128.431 132.713 127.111 134.887 124.751C137.185 122.235 139.219 120.201 140.989 118.648C139.716 119.238 137.744 120.791 135.073 123.307L131.113 126.8C130.741 126.831 128.94 125.48 125.71 122.748C122.511 120.046 120.896 118.493 120.865 118.089C120.834 117.717 121.906 116.257 124.08 113.711C126.16 111.226 128.148 109.053 130.042 107.189C128.769 107.904 126.129 110.202 122.123 114.083C118.397 117.717 116.409 119.533 116.161 119.533C115.726 119.533 114.856 118.4 113.552 116.133C112.279 113.897 111.673 112.531 111.735 112.034C111.797 111.537 112.589 110.31 114.111 108.354C116.067 105.807 118.272 103.633 120.726 101.832C128.303 96.2114 136.315 95.3108 144.762 99.1305L145.6 98.8045C156.935 93.7426 167.246 94.8605 176.531 102.158L176.671 102.252Z" fill="#0D131A"/>
<path d="M172.105 113.245L163.674 110.31C161.717 109.782 160.739 109.611 160.739 109.797C160.739 109.953 161.609 110.481 163.348 111.381C164.994 112.251 167.183 113.71 169.916 115.76L175.739 120.651L172.338 126.707C170.723 129.564 169.792 131.008 169.543 131.039C169.202 131.039 166.795 128.368 162.323 123.027L161.019 121.722L161.345 123.586L163.348 131.039C164.528 135.138 165.071 137.296 164.978 137.514L161.345 140.868L156.407 145.06L156.314 138.539C156.283 135.06 156.174 133.166 155.988 132.856C155.677 132.359 153.969 135.045 150.864 140.914C145.802 137.902 142.479 136.07 140.895 135.418L145.041 129.641L149.14 123.912L150.445 122.235C150.6 121.8 149.948 121.971 148.488 122.747C146.128 123.989 143.038 127.11 139.218 132.11L133.396 128.43L138.473 122.887C141.175 120.092 142.991 118.446 143.923 117.949L145.786 116.924L143.737 116.878C140.321 117.095 136.082 119.875 131.02 125.216L122.449 117.949C123.536 116.49 125.166 114.502 127.34 111.987C130.011 108.881 131.75 107.049 132.557 106.49L134.094 105.372L132.371 105.465C129.421 105.931 126.237 107.701 122.821 110.776C120.989 112.453 118.815 114.735 116.3 117.623L112.899 112.313C115.601 107.655 119.126 103.99 123.474 101.319C130.243 97.1271 137.557 96.7234 145.414 100.108L146.019 99.8754C150.243 98.1985 154.125 97.2668 157.665 97.0805C164.248 96.77 170.273 98.742 175.739 102.996L177.462 106.537L176.158 106.397L173.083 106.304L170.708 106.583C170.801 106.739 171.5 107.018 172.804 107.422C174.295 107.888 176.127 108.711 178.301 109.891L178.487 112.453C178.549 114.036 178.503 115.03 178.347 115.434L172.105 113.245Z" fill="#00A63C"/>
<path d="M74.3762 65.2652L74.4693 66.4297C67.9168 63.728 62.6685 61.8336 58.7246 60.7467C57.9482 60.5293 57.6066 60.2964 57.6998 60.048L58.9575 59.9548C63.1809 61.1349 68.3205 62.905 74.3762 65.2652Z" fill="#0D131A"/>
<path d="M74.9821 68.7586L75.215 70.0629C64.7806 64.9699 55.4642 61.2278 47.2657 58.8366C46.5204 58.6192 46.1943 58.3863 46.2875 58.1379L47.4986 58.0913C55.7281 60.4204 64.8893 63.9762 74.9821 68.7586Z" fill="#0D131A"/>
<path d="M69.1592 63.7283L68.1343 63.4488C67.8238 60.2191 67.358 57.4707 66.7369 55.2037C66.6127 54.7379 66.6437 54.4739 66.83 54.4118C67.0164 54.3497 67.1872 54.5516 67.3425 55.0174C68.212 57.7192 68.8176 60.6228 69.1592 63.7283Z" fill="#0D131A"/>
<path d="M66.2242 62.6563L65.2925 62.3768C65.2925 60.762 65.1217 59.2248 64.7801 57.7652C64.718 57.3925 64.7801 57.1751 64.9665 57.113L65.4323 57.5789C65.9602 58.9453 66.2242 60.6377 66.2242 62.6563Z" fill="#0D131A"/>
<path d="M65.8981 65.2646L66.8764 65.6839L63.1498 68.9446L59.004 71.7396C58.6003 71.9259 58.3518 71.9259 58.2587 71.7396C58.1345 71.5532 58.2742 71.3514 58.6779 71.134C60.1064 70.2955 62.5132 68.3391 65.8981 65.2646Z" fill="#0D131A"/>
<path d="M153.799 112.127C152.184 106.413 149.389 102.407 145.414 100.109L146.532 99.3167C150.693 101.832 153.55 106.133 155.103 112.22C156.532 117.779 156.64 123.741 155.429 130.107C155.243 131.008 155.025 131.427 154.777 131.365C154.529 131.303 154.467 130.822 154.591 129.921C155.584 123.4 155.321 117.468 153.799 112.127Z" fill="#0D131A"/>
<path d="M157.106 122.561C157.913 111.599 154.87 103.54 147.976 98.3851L149.28 97.9658C156.392 103.245 159.264 111.49 157.898 122.701C157.774 123.633 157.603 124.083 157.385 124.052C157.137 123.99 157.044 123.493 157.106 122.561Z" fill="#0D131A"/>
<path d="M151.609 105.792L152.681 107.189C150.321 107.065 148.069 107.406 145.926 108.214C143.846 109.021 141.687 110.341 139.451 112.173C138.861 112.639 138.489 112.794 138.333 112.639C138.147 112.515 138.318 112.189 138.846 111.661C142.666 107.81 146.92 105.854 151.609 105.792Z" fill="#0D131A"/>
</svg>
