<svg width="226" height="257" viewBox="0 0 226 257" fill="none" xmlns="http://www.w3.org/2000/svg">
<path d="M105.066 106.89L110.362 114.978L86.4277 167.197C77.6424 165.746 71.9497 158.247 69.3497 144.7C68.3918 139.692 68.0087 134.56 68.2002 129.305C68.3645 124.543 68.9118 121.108 69.8424 119.001L105.066 106.89Z" fill="#E9EFF8"/>
<path d="M105.066 106.89L110.361 114.978L94.4329 149.667C94.2139 146.055 93.7624 143.072 93.0781 140.718C92.2297 137.817 90.916 135.477 89.1371 133.698C87.6592 131.727 84.8402 130.154 80.6802 128.977C77.8886 128.21 73.7696 127.485 68.3232 126.801C68.6243 123.216 69.1306 120.616 69.8422 119.001L105.066 106.89Z" fill="#C9CFD7"/>
<path d="M76.4523 41.5338C80.0102 46.1044 82.4186 49.6623 83.6776 52.2076L102.316 110.626L100.838 110.913C86.7155 120 74.2765 122.134 63.5206 117.317C59.908 115.675 56.6921 113.335 53.8732 110.297C52.0121 108.327 50.6437 106.466 49.7679 104.714L28.2972 53.6444C27.2572 49.7581 26.6414 45.4475 26.4498 40.7128C26.0667 31.2432 27.9551 24.4148 32.1151 20.2274C39.5594 12.7831 49.8637 14.9726 63.028 26.7958C67.5712 30.9011 72.0459 35.8138 76.4523 41.5338Z" fill="#E9EFF8"/>
<path d="M79.4489 45.5159C81.611 48.6359 83.0205 50.8664 83.6773 52.2075L102.315 110.626L100.837 110.913C90.93 117.29 81.7752 120.218 73.373 119.698C79.6678 110.886 82.9247 99.1583 83.1436 84.5161C83.2257 76.4971 81.9942 63.497 79.4489 45.5159Z" fill="#C9CFD7"/>
<path d="M148.869 148.025L129.862 107.547L133.269 97.6122L198.708 94.2048C200.623 96.9964 202.43 100.814 204.127 105.659C206.234 111.652 207.52 117.55 207.986 123.352C209.19 139.445 203.867 151.364 192.016 159.109C182.875 165.076 172.94 165.021 162.212 158.945C158.873 157.057 155.643 154.662 152.523 151.761L148.869 148.025Z" fill="#E9EFF8"/>
<path d="M156.957 155.497C154.877 153.937 152.906 152.226 151.045 150.365L148.869 148.025L129.862 107.547L133.269 97.6122L198.708 94.2048L201.089 98.3922C196.19 104.003 190.319 108.573 183.477 112.104C176.799 115.58 169.724 117.81 162.253 118.796C162.882 133.492 161.117 145.726 156.957 155.497Z" fill="#C9CFD7"/>
<path d="M215.293 7.29582C220.356 11.7843 223.257 20.8706 223.996 34.5549C224.762 48.6771 221.587 62.0057 214.472 74.5405C208.423 85.2142 201.731 92.248 194.397 95.6417C187.582 98.7891 179.248 101.088 169.395 102.539C158.448 104.153 149.28 104.071 141.89 102.292L128.055 82.7511C128.767 76.8121 131.107 69.9973 135.075 62.3067C138.879 54.9446 143.765 47.5824 149.731 40.2202C162.868 23.9633 176.169 13.0022 189.635 7.33687C201.239 2.43789 209.792 2.42421 215.293 7.29582Z" fill="#E9EFF8"/>
<path d="M148.13 85.0497C152.947 90.5782 157.025 96.7361 160.364 103.524C153.248 103.961 147.09 103.551 141.89 102.292L135.157 94.5329L128.055 82.7507C128.493 79.1381 129.56 75.1012 131.257 70.6401C137.497 74.5265 143.122 79.3297 148.13 85.0497Z" fill="#C9CFD7"/>
<path d="M58.7993 154.265C59.2372 153.28 60.5235 152.185 62.6582 150.981C64.8751 149.749 66.1614 148.846 66.5172 148.272C66.9825 146.876 67.4477 145.808 67.913 145.069C68.7614 143.701 70.5267 142.538 73.2088 141.58C76.8489 140.294 81.6931 137.228 87.7416 132.384C95.2132 126.418 100.66 120.397 104.081 114.321L112.825 115.265L91.1079 139.486C87.5226 143.181 83.5952 146.192 79.3257 148.518C76.3425 150.133 73.6467 151.214 71.2383 151.761C68.3646 152.418 67.2014 154.416 67.7488 157.755C67.9678 159.014 67.9267 160.368 67.6256 161.819L66.7635 164.939C66.5993 165.541 66.613 167.293 66.8046 170.194C67.0235 173.697 67.092 176.27 67.0098 177.912C66.7635 182.619 65.313 187.244 62.6582 191.788C59.6751 196.851 57.8961 201.011 57.3214 204.268C56.5003 208.893 56.9108 212.629 58.553 215.475C59.4287 216.953 60.5919 218.445 62.0424 219.95L63.3561 223.193C63.6846 224.233 63.5751 224.808 63.0277 224.917C61.9877 225.136 60.0035 225.779 57.075 226.847C53.2161 228.27 49.7266 229.789 46.6066 231.404C43.9792 232.772 40.2844 235.974 35.5223 241.01C32.6759 244.021 29.7064 247.414 26.6138 251.191C26.3675 251.492 26.0938 251.533 25.7927 251.314C25.5464 251.123 25.3959 250.876 25.3412 250.575L24.6433 247.004C24.5064 245.8 24.438 243.747 24.438 240.846C24.438 238.684 27.4349 235.55 33.4286 231.445L42.3781 225.944C46.3466 220.798 48.8371 217.145 49.8497 214.983C50.5066 213.559 50.4792 211.657 49.7676 209.276C49.3571 207.826 48.4676 205.664 47.0992 202.79C46.0592 200.573 45.9497 197.261 46.7708 192.855C47.6192 188.175 49.3024 183.687 51.8203 179.39C53.9003 175.804 55.5561 170.837 56.7877 164.487L58.7993 154.265Z" fill="#6791B9"/>
<path d="M65.8602 157.878C66.1886 157.385 66.5444 157.029 66.9275 156.81L67.6254 156.482L67.7486 157.755C67.9676 159.014 67.9265 160.368 67.6254 161.819L66.7633 164.939C66.5991 165.541 66.6128 167.293 66.8044 170.194C67.0233 173.697 67.0918 176.269 67.0097 177.912C66.7633 182.619 65.3128 187.244 62.658 191.787C59.6749 196.851 57.8959 201.011 57.3212 204.268C56.5001 208.893 56.9106 212.629 58.5528 215.475C59.4286 216.953 60.5917 218.444 62.0423 219.95L63.3559 223.193C63.6844 224.233 63.5749 224.808 63.0275 224.917C61.9875 225.136 60.0033 225.779 57.0749 226.847C53.2159 228.27 49.7264 229.789 46.6064 231.403C44.0885 232.69 37.9579 238.629 28.2147 249.22C27.8041 248.865 27.5031 248.413 27.3115 247.866C26.9283 246.826 27.462 244.896 28.9126 242.077C30.281 239.422 34.0852 235.659 40.3253 230.788C47.7422 225.013 51.9432 221.592 52.9285 220.524C54.7622 218.527 55.3096 215.311 54.5706 210.877L53.8317 205.869C53.7222 204.062 54.0096 202.571 54.6938 201.394C56.1991 198.821 57.937 193.58 59.9075 185.671C61.7959 178.117 63.0275 171.726 63.6023 166.499C64.0675 162.284 64.8202 159.41 65.8602 157.878Z" fill="#567C9D"/>
<path d="M104.08 114.321L112.825 115.265L91.1077 139.486C88.5077 142.168 85.7161 144.495 82.7329 146.465C84.2108 143.701 84.895 141.32 84.7856 139.322C84.7308 137.488 84.0603 136.407 82.774 136.079C86.9887 133.15 90.834 129.976 94.3098 126.555C98.552 122.422 101.809 118.344 104.08 114.321Z" fill="#567C9D"/>
<path d="M67.0507 114.772C63.0275 110.174 60.0306 106.247 58.0601 102.99C56.6095 100.609 56.6643 99.0214 58.2243 98.2277L61.0159 97.7761L64.6696 102.62C67.6254 106.014 70.3896 108.135 72.9623 108.984C75.7265 109.859 77.5739 111.269 78.5044 113.212C78.9697 114.17 79.4486 116.4 79.9413 119.904C80.8992 116.647 83.7592 111.939 88.5213 105.781C91.8329 101.539 94.4466 98.4604 96.3624 96.5446L97.8814 102.949C97.553 106.069 95.8014 109.969 92.6266 114.649C90.6013 117.632 88.2887 120.547 85.6887 123.393C84.9771 125.117 83.9234 125.952 82.5276 125.897C81.515 125.843 79.6539 125.172 76.9444 123.886C74.7549 122.873 71.457 119.835 67.0507 114.772Z" fill="#6791B9"/>
<path d="M96.3628 96.5446L97.8818 102.949C97.6081 105.85 96.0755 109.435 93.2839 113.705C91.3954 116.606 89.1512 119.52 86.5512 122.449C87.2628 119.466 87.5775 117.304 87.4954 115.963C87.3859 113.746 86.387 112.186 84.4985 111.283C86.4964 108.354 88.9459 105.152 91.847 101.676C94.0639 98.994 95.5691 97.2835 96.3628 96.5446Z" fill="#567C9D"/>
<path d="M61.0159 97.7765L62.7401 100.24C64.1633 102.128 65.6138 103.77 67.0917 105.166C64.2454 104.126 62.439 105.139 61.6727 108.204C60.0306 106.014 58.8264 104.277 58.0601 102.99C56.6095 100.609 56.6643 99.0218 58.2243 98.2281L61.0159 97.7765Z" fill="#567C9D"/>
<path d="M6.21022 36.0739L60.2769 74.3763L67.0096 91.2901C66.1885 93.7806 64.6011 96.2028 62.2474 98.5565C58.6348 102.114 53.9137 104.591 48.0842 105.987C45.7852 106.617 43.5547 106.849 41.3926 106.685C39.121 106.521 37.6294 105.96 36.9178 105.002C36.1241 103.962 30.2535 92.8912 19.3061 71.79C8.30392 50.5793 2.55651 39.2487 2.06388 37.7982C1.54387 36.2108 1.65335 35.2255 2.3923 34.8424C3.18599 34.4045 4.45863 34.815 6.21022 36.0739Z" fill="#DBDCDC"/>
<path d="M13.0664 40.9595L60.2772 74.3765L67.0099 91.2903C66.1889 93.7809 64.6015 96.203 62.2478 98.5567C58.6899 102.06 54.0646 104.523 48.3719 105.946C49.0561 105.727 50.0688 105.153 51.4098 104.222C54.6393 102.06 57.4583 98.9946 59.8667 95.0262C58.7446 93.4114 43.1445 75.3892 13.0664 40.9595Z" fill="#B4B4B5"/>
<path d="M145.626 131.85C149.54 141.265 150.635 150.721 148.91 160.218C147.35 168.839 143.765 176.352 138.154 182.756C132.708 188.996 126.468 192.937 119.434 194.579C112.017 196.331 105.162 195.085 98.8668 190.843C92.9278 186.847 89.0278 181.251 87.1667 174.053C85.4973 167.676 85.5109 160.491 87.2078 152.5C88.7678 145.22 91.4773 138.2 95.3363 131.44C99.1131 124.871 103.273 119.781 107.816 116.168L132.325 112.473L145.626 131.85Z" fill="#F9BE00"/>
<path d="M145.626 131.85C148.856 139.623 150.156 147.491 149.526 155.456C148.951 162.708 146.858 169.441 143.245 175.654C139.796 181.593 135.418 186.314 130.108 189.817C124.744 193.402 119.215 195.222 113.523 195.277C114.617 194.045 115.137 191.719 115.083 188.298C115.001 184.603 115.438 181.907 116.396 180.211C120.885 179.362 124.908 175.462 128.466 168.51C131.86 161.805 133.816 154.375 134.336 146.219C134.856 137.379 133.433 130.222 130.067 124.748C126.126 118.399 120.009 115.347 111.716 115.593L132.325 112.473L145.626 131.85Z" fill="#D7A400"/>
<path d="M149.896 151.227C150.142 155.962 149.581 161.052 148.213 166.499C148.431 161.6 147.159 156.55 144.395 151.35C141.576 146.068 137.922 141.935 133.433 138.952C127.248 134.792 119.708 132.917 110.813 133.328C101.617 133.738 94.8574 136.503 90.5332 141.621C91.4637 139.185 92.6406 136.626 94.0638 133.944L95.8701 130.618C98.1143 127.69 101.604 125.432 106.339 123.845C111.265 122.23 116.369 121.765 121.651 122.449C127.59 123.215 132.845 125.364 137.416 128.894C142.643 132.972 146.543 138.61 149.116 145.808L149.896 151.227Z" fill="#152139"/>
<path d="M100.057 145.767C105.887 144.043 111.949 144.016 118.244 145.685C124.894 147.437 130.382 150.762 134.706 155.661C139.577 161.162 142.314 167.991 142.916 176.146L138.647 181.894C135.281 186.081 132.325 189.051 129.78 190.802C132.927 184.015 132.653 177.871 128.958 172.37C125.702 167.553 120.679 164.186 113.892 162.271C107.214 160.382 101.316 160.56 96.1983 162.804C90.4782 165.322 87.5361 169.865 87.3719 176.434C85.8392 173.834 85.2645 169.564 85.6477 163.625L86.674 155.497C89.5477 150.817 94.0088 147.574 100.057 145.767Z" fill="#152139"/>
<path d="M149.116 145.808L149.814 151.227C150.005 155.962 149.417 161.053 148.048 166.499C148.267 161.545 147.104 156.605 144.559 151.679C141.986 146.588 138.469 142.551 134.008 139.568L133.598 135.627C133.105 132.233 132.175 128.689 130.806 124.994C134.829 126.773 138.333 129.291 141.316 132.548C144.655 136.161 147.255 140.581 149.116 145.808Z" fill="#0B132A"/>
<path d="M130.026 190.269C133.365 183.125 132.475 176.543 127.357 170.522C130.532 165.76 132.489 160.286 133.228 154.101C139.03 159.821 142.26 167.169 142.916 176.146L138.647 182.058C135.308 186.245 132.434 188.982 130.026 190.269Z" fill="#0B132A"/>
<path d="M119.886 188.955C119.011 191.527 114.7 198.246 106.955 209.112C99.0999 220.169 94.762 225.341 93.9409 224.63C93.1199 223.945 93.2567 217.117 94.3514 204.144C95.4188 191.473 96.3904 183.85 97.2662 181.278C98.0599 178.924 99.8388 177.296 102.603 176.393C105.367 175.489 108.309 175.571 111.429 176.639C114.577 177.706 116.972 179.444 118.614 181.853C120.256 184.234 120.68 186.601 119.886 188.955Z" fill="#F9BE00"/>
<path d="M116.068 179.513C117.847 180.635 119.079 182.031 119.763 183.7C120.447 185.37 120.488 187.121 119.886 188.955C119.01 191.473 115.781 196.851 110.197 205.089C103.957 214.257 98.8942 220.511 95.0078 223.85C98.6478 218.157 102.329 211.575 106.051 204.103C110.868 194.497 114.207 186.3 116.068 179.513Z" fill="#D7A400"/>
<path d="M113.03 76.8804L115.288 76.9625C117.177 77.1814 119.01 77.6056 120.789 78.2351C126.482 80.3151 130.615 84.2562 133.187 90.0584C136.444 97.311 136.567 103.838 133.557 109.641C130.382 115.716 124.703 118.809 116.52 118.919C108.966 119.001 103.314 115.333 99.565 107.916C98.1144 105.015 97.266 102.059 97.0197 99.0489C96.7734 96.1479 97.1429 93.9858 98.1281 92.5626L113.03 76.8804Z" fill="#F9BE00"/>
<path d="M113.03 76.8804L115.288 76.9625C117.176 77.1814 119.01 77.6056 120.789 78.2351C126.482 80.3151 130.614 84.2562 133.187 90.0584C135.924 96.1342 136.389 101.827 134.583 107.136C132.749 112.61 128.959 116.209 123.211 117.933C125.62 115.005 126.906 111.543 127.07 107.547C127.234 103.743 126.359 100.144 124.443 96.75C122.445 93.2468 119.681 90.6331 116.15 88.9089C112.236 87.0204 107.871 86.5141 103.054 87.3899L113.03 76.8804Z" fill="#D7A400"/>
<path d="M164.962 144.864L152.112 137.351C147.131 134.532 142.178 129.934 137.251 123.557C133.173 118.33 130.081 113.308 127.973 108.491C127.672 107.725 127.836 107.109 128.466 106.644C129.123 106.178 129.711 106.288 130.231 106.972C133.871 111.898 138.1 116.373 142.917 120.396C146.338 123.27 151.921 126.595 159.666 130.372L173.008 136.859C174.349 137.707 174.993 138.583 174.938 139.486C174.828 140.827 175.348 142.264 176.498 143.797C177.401 145.028 178.55 146.383 179.946 147.861C181.233 149.229 182.984 151.446 185.201 154.511C187.856 158.151 190.168 164.953 192.139 174.915C193.617 182.386 194.629 189.926 195.177 197.535C195.533 202.762 195.273 206.772 194.397 209.563C193.548 212.191 193.22 214.325 193.412 215.968C194.233 223.111 198.776 229.091 207.041 233.908C209.504 235.331 212.542 236.768 216.155 238.218C219.603 239.614 221.478 240.408 221.779 240.599C223.23 241.53 224.174 244.321 224.612 248.974C224.831 251.3 224.899 253.531 224.817 255.666C224.023 254.598 223.038 253.504 221.861 252.382C219.562 250.137 217.551 248.906 215.826 248.687C214.458 248.523 211.489 246.538 206.918 242.734C202.046 238.656 197.791 236.125 194.151 235.139C191.961 234.51 189.498 234.222 186.761 234.277L181.958 233.867C180.863 233.429 180.699 232.361 181.465 230.665C181.848 229.816 182.929 228.064 184.708 225.41C186.022 223.439 186.788 221.455 187.007 219.457C187.226 217.268 186.788 214.859 185.694 212.232L180.973 201.599C178.92 196.81 177.839 193.388 177.729 191.336C177.675 190.323 177.962 187.135 178.591 181.771C179.084 177.282 179.043 174.08 178.468 172.164C177.62 169.263 177.086 166.896 176.867 165.062C176.594 162.654 176.799 160.71 177.483 159.232C178.14 157.809 178.058 155.852 177.237 153.362C176.662 151.638 175.827 149.859 174.733 148.025C174.13 147.012 173.405 146.588 172.557 146.752L170.504 147.532C170.011 147.642 168.164 146.752 164.962 144.864Z" fill="#6791B9"/>
<path d="M144.805 121.915C141.74 120.492 138.962 120.697 136.471 122.531C132.776 117.66 129.944 112.98 127.973 108.491C127.672 107.725 127.836 107.109 128.466 106.644C129.123 106.178 129.711 106.288 130.231 106.972C133.871 111.898 138.1 116.373 142.917 120.396L144.805 121.915Z" fill="#567C9D"/>
<path d="M173.665 142.483C174.076 141.854 172.735 140.129 169.642 137.31C166.796 134.683 164.469 132.849 162.663 131.809L168.985 134.765C170.983 135.696 172.324 136.394 173.008 136.859C174.349 137.707 174.993 138.583 174.938 139.486C174.828 140.827 175.348 142.264 176.498 143.797C177.401 145.028 178.551 146.383 179.946 147.861C181.233 149.229 182.984 151.446 185.201 154.512C187.856 158.152 190.169 164.953 192.139 174.915C193.617 182.387 194.63 189.927 195.177 197.535C195.533 202.762 195.273 206.772 194.397 209.564C193.549 212.191 193.22 214.326 193.412 215.968C194.233 223.111 198.776 229.091 207.041 233.908C209.504 235.331 212.542 236.768 216.155 238.218C219.603 239.614 221.478 240.408 221.779 240.6C223.23 241.53 224.188 244.322 224.653 248.974C224.872 251.301 224.954 253.531 224.899 255.666C224.078 254.599 223.079 253.504 221.902 252.382C219.576 250.137 217.551 248.906 215.827 248.687C215.142 248.605 214.663 248.304 214.39 247.784L213.774 245.895C213.144 243.733 211.639 241.941 209.258 240.517C207.288 239.368 204.605 237.425 201.212 234.688C198.612 232.608 196.764 231.445 195.67 231.198C194.028 230.843 192.645 229.365 191.523 226.765C190.319 223.973 189.922 220.935 190.333 217.651C190.716 214.695 190.743 210.932 190.415 206.361L189.471 197.166C189.005 193.307 188.321 188.859 187.418 183.823C186.487 178.788 185.762 174.121 185.242 169.824C184.996 167.252 184.394 164.077 183.436 160.3C182.314 156.003 181.137 152.733 179.905 150.488C179.084 148.983 177.497 147.355 175.143 145.603C173.556 144.399 173.063 143.359 173.665 142.483Z" fill="#567C9D"/>
<path d="M168.287 92.8088C167.959 93.4931 167.576 95.8878 167.138 99.9931C166.755 103.797 166.55 106.712 166.522 108.737C166.522 109.859 165.811 111.255 164.387 112.925L161.308 115.922L160.241 118.303C159.885 119.096 159.16 118.891 158.065 117.687C155.657 115.032 151.346 112.706 145.134 110.708L138.812 109.025C137.169 108.505 135.883 107.574 134.953 106.233C133.228 103.77 131.271 101.211 129.082 98.5562C126.044 94.8615 123.595 92.3573 121.733 91.0436C121.049 90.5509 120.735 90.0583 120.789 89.5657C120.844 89.073 121.241 88.772 121.98 88.6625C123.978 88.3067 126.81 89.3467 130.478 91.7825C134.693 94.6015 143.067 100.992 155.602 110.954C155.52 110.215 155.506 109.381 155.561 108.45C155.698 106.589 156.122 105.193 156.834 104.263C157.491 103.414 158.681 101.006 160.405 97.0373C162.184 92.9046 163.238 90.5783 163.566 90.0583L166.686 90.1404C168.137 91.0983 168.671 91.9878 168.287 92.8088Z" fill="#6791B9"/>
<path d="M140.536 99.2131C137.881 98.3647 135.91 98.2278 134.624 98.8026C133.283 99.432 132.667 100.924 132.777 103.277C128.206 97.0647 124.525 92.9867 121.733 91.0436C121.049 90.5509 120.735 90.0583 120.789 89.5657C120.844 89.073 121.241 88.772 121.98 88.6625C123.978 88.3067 126.81 89.3467 130.478 91.7825L140.536 99.2131Z" fill="#567C9D"/>
<path d="M168.287 92.8091C167.959 93.4934 167.576 95.8881 167.138 99.9934C166.755 103.798 166.55 106.712 166.522 108.738C166.522 109.531 166.139 110.503 165.373 111.652C165.838 109.08 165.468 106.576 164.264 104.14C163.06 101.759 161.418 100.199 159.338 99.4597L161.76 93.8765L163.566 90.0586L166.686 90.1407C168.137 91.0986 168.671 91.9881 168.287 92.8091Z" fill="#567C9D"/>
<path d="M197.723 7.29577C197.641 15.7527 196.204 30.518 193.412 51.5919C190.812 70.9688 189.074 81.971 188.198 84.5984C187.24 87.4447 184.162 89.7711 178.961 91.5774C173.98 93.329 169.93 93.7395 166.81 92.809C161.774 91.3311 158.052 88.7858 155.643 85.1731C153.235 81.6152 152.469 77.5236 153.344 72.8983C154.056 69.2036 160.077 57.914 171.408 39.0297C182.273 20.9117 189.279 10.0463 192.427 6.43366C195.246 3.20417 196.833 1.6031 197.189 1.63047C197.572 1.65784 197.75 3.54627 197.723 7.29577Z" fill="#DBDCDC"/>
<path d="M197.107 1.21995C197.408 0.973628 197.613 2.01364 197.722 4.33997C197.805 6.50209 197.777 8.55473 197.64 10.4979C196.217 28.1233 195.122 40.5349 194.356 47.7329C192.413 65.8235 190.36 78.112 188.198 84.5984C187.213 87.4995 184.107 89.8942 178.879 91.7826C173.789 93.6163 169.765 93.9585 166.81 92.809L164.059 91.5774C166.03 92.07 167.672 92.07 168.985 91.5774C170.272 91.1121 171.353 90.1542 172.229 88.7037L184.503 48.0203C191.783 23.5527 195.985 7.95262 197.107 1.21995Z" fill="#B4B4B5"/>
<path d="M81.1319 52.2485L91.9699 51.7148C95.2267 51.9612 97.6625 52.4675 99.2773 53.2338L109.746 57.9549L105.846 86.0761C103.3 89.1414 100.003 92.4256 95.952 95.9288C90.9709 100.253 87.5498 102.36 85.6888 102.251C84.5119 102.196 82.5277 101.088 79.7361 98.9257C76.6434 96.5446 73.7834 93.753 71.156 90.5509C63.9034 81.7382 61.3581 73.6097 63.5202 66.1655C65.6823 58.6938 71.5529 54.0549 81.1319 52.2485Z" fill="#F9BE00"/>
<path d="M97.9227 68.2185C96.5816 61.1574 93.4479 55.6016 88.5216 51.551L94.9669 52.0437C96.8553 52.3721 98.2922 52.7689 99.2774 53.2342L109.746 57.9553L105.846 86.0765C103.301 89.1418 100.003 92.426 95.9521 95.9292C90.9711 100.253 87.55 102.361 85.6889 102.251L85.1963 102.169L91.149 95.1082C93.4206 92.3166 95.1174 89.7986 96.2395 87.5544C98.648 81.3417 99.209 74.8964 97.9227 68.2185Z" fill="#D7A400"/>
<path d="M63.2738 67.1509C64.3685 67.3425 66.1338 71.1057 68.5696 78.4405C70.8412 85.31 72.0591 89.8395 72.2233 92.029C72.3601 93.808 71.0601 93.9311 68.3233 92.3985C65.5864 90.8658 63.4927 88.7584 62.0422 86.0763C59.6064 81.6152 58.6485 77.2089 59.1685 72.8573C59.6611 68.6973 61.0295 66.7951 63.2738 67.1509Z" fill="#E85377"/>
<path d="M104.08 61.6909H109.541C113.098 64.9204 114.549 69.0804 113.892 74.171C113.345 78.4679 111.894 81.6016 109.541 83.5721C105.818 86.7742 102.726 88.6079 100.263 89.0732C97.3615 89.6206 95.5689 88.2111 94.8846 84.8448C93.872 80.0005 94.3373 75.1426 96.2804 70.271C98.2236 65.4267 100.824 62.5667 104.08 61.6909Z" fill="#E85377"/>
<path d="M74.4817 60.2128C75.2206 62.2107 75.1796 63.497 74.3585 64.0717C73.5375 64.6465 72.7438 63.9349 71.9775 61.937C71.2659 60.0486 68.748 56.2991 64.4237 50.6885C60.209 45.2148 57.4995 42.0811 56.2953 41.2874C55.3374 40.6579 52.5047 42.9569 47.7973 48.1843C44.3762 51.9885 41.1604 55.9159 38.1499 59.9665C36.9183 61.6359 35.4814 63.7844 33.8393 66.4118C32.4983 68.3276 31.1161 69.4907 29.693 69.9013C27.9961 70.3939 26.5182 69.3949 25.2593 66.9044C24.0003 64.4412 23.8224 62.3749 24.7256 60.7054C25.6014 59.0907 29.3782 54.6159 36.0562 47.2811C42.7615 39.9737 47.1131 35.5673 49.111 34.0621C51.0542 32.5842 52.7373 31.941 54.1605 32.1326C55.5289 32.3242 56.9111 33.2958 58.3069 35.0473C60.25 37.5379 63.0553 41.5474 66.7227 47.0758C71.0743 53.6717 73.6606 58.0507 74.4817 60.2128Z" fill="#6791B9"/>
<path d="M74.4816 60.2128C75.2205 62.2107 75.1795 63.497 74.3584 64.0717C73.5374 64.6465 72.7437 63.9349 71.9774 61.937C71.2658 60.0486 68.7479 56.2991 64.4236 50.6885C60.2089 45.2148 57.4994 42.0811 56.2952 41.2874C55.3373 40.6579 52.5046 42.9569 47.7972 48.1843C44.3761 51.9885 41.1603 55.9159 38.1498 59.9665C36.9182 61.6359 35.4813 63.7844 33.8392 66.4118C32.4982 68.3276 31.116 69.4907 29.6929 69.9013C30.0213 69.5455 30.3634 68.9434 30.7192 68.0949C31.4308 66.3433 31.636 64.3728 31.335 62.1833C31.0613 59.8844 34.2087 54.8759 40.7772 47.158C46.4425 40.5074 50.4109 36.3337 52.6825 34.6368C53.832 33.761 55.0499 33.501 56.3362 33.8568C57.2394 34.1305 57.8962 34.5273 58.3067 35.0473C60.2499 37.5379 63.0552 41.5474 66.7226 47.0758C71.0742 53.6717 73.6605 58.0507 74.4816 60.2128Z" fill="#567C9D"/>
<path d="M91.3955 26.098C91.8334 23.5527 92.5997 22.458 93.6945 22.8137C94.5429 23.0874 95.4324 24.1001 96.3629 25.8517C103.041 38.1949 107.858 46.7476 110.814 51.5097C112.456 54.1371 112.524 56.915 111.019 59.8435C109.815 62.1698 108.337 63.7024 106.585 64.4414C105.545 64.8519 103.287 61.4445 99.8114 54.2192L94.885 43.2581L93.0376 50.8939L90.1229 61.814C89.7124 63.0456 89.0966 63.5382 88.2755 63.2919C87.4544 63.0182 87.1671 62.3203 87.4134 61.1982L89.3429 44.2023C90.465 33.5559 91.1492 27.5211 91.3955 26.098Z" fill="#6791B9"/>
<path d="M110.813 51.5099C112.455 54.1373 112.524 56.9152 111.019 59.8437C109.814 62.17 108.337 63.7026 106.585 64.4416C106.339 64.5237 105.394 63.47 103.752 61.2805C102.028 58.9542 101.015 57.1889 100.714 55.9847C104.3 59.351 106.462 58.9405 107.201 54.7531C107.885 50.8941 107.269 46.7067 105.353 42.1909L110.813 51.5099Z" fill="#567C9D"/>
<path d="M103.793 80.8625L109.335 80.6572C110.84 80.9856 111.237 81.6562 110.526 82.6688C109.349 84.3657 107.515 85.8846 105.025 87.2257C102.698 88.4573 100.714 89.0731 99.072 89.0731C97.074 89.0731 95.8835 88.1289 95.5003 86.2404C95.2814 85.0088 96.0751 83.8867 97.8814 82.8741C99.4414 81.9709 101.412 81.3004 103.793 80.8625Z" fill="#ED8599"/>
<path d="M64.752 89.7712C64.2594 89.1144 64.232 88.4849 64.6699 87.8828C65.0805 87.3628 65.7647 86.9796 66.7226 86.7333C69.1037 86.1586 70.5952 86.6649 71.1974 88.2523C71.7995 89.8123 72.1142 90.9891 72.1416 91.7828C72.1689 92.4944 71.95 93.0144 71.4847 93.3428C71.0195 93.6713 70.0616 93.5071 68.611 92.8502C67.0236 92.1113 65.7373 91.0849 64.752 89.7712Z" fill="#ED8599"/>
<path d="M53.8731 111.734C52.6415 110.393 51.5468 108.984 50.5889 107.506L49.5215 105.659L50.6299 105.002L51.6562 106.644C52.532 107.93 53.5447 109.162 54.6941 110.339C58.3889 114.115 62.7405 116.688 67.749 118.057L71.1974 118.754L73.4964 121.218C71.4711 121.135 69.5279 120.834 67.6669 120.314C62.4121 118.864 57.8142 116.004 53.8731 111.734Z" fill="#0D131A"/>
<path d="M92.1343 116.661C92.8185 115.675 93.2153 114.909 93.3248 114.362C95.6785 113.212 98.0596 111.857 100.468 110.297L101.248 111.488C98.128 113.513 95.0901 115.238 92.1343 116.661Z" fill="#0D131A"/>
<path d="M69.1858 118.713L70.4995 119.288C69.6784 121.176 69.1584 124.269 68.9395 128.566C68.7205 133.355 68.9805 138.09 69.7195 142.77L67.9953 143.92C67.2563 138.966 67.0647 133.875 67.4205 128.648C67.7216 124.023 68.31 120.711 69.1858 118.713Z" fill="#0D131A"/>
<path d="M72.2649 157.837C71.3617 156.195 70.568 154.32 69.8838 152.213C70.6227 151.884 71.2933 151.665 71.8954 151.556C72.5249 153.417 73.2775 155.141 74.1533 156.728C77.1912 162.366 81.3239 165.623 86.5513 166.499L86.305 167.895C80.0102 166.827 75.3301 163.475 72.2649 157.837Z" fill="#0D131A"/>
<path d="M70.6226 93.0963L71.3205 93.0142C71.512 94.191 72.2099 96.6816 73.4142 100.486C74.8921 105.084 76.2879 108.71 77.6016 111.365L75.9184 110.256C74.6594 107.738 73.4552 104.386 72.3057 100.198C71.4299 97.1058 70.8689 94.7384 70.6226 93.0963Z" fill="#0D131A"/>
<path d="M84.2933 51.8793L83.0207 52.4951C80.4754 47.4592 75.768 41.1918 68.8985 33.6928C59.6753 23.6759 51.5194 18.079 44.4309 16.9022C39.8604 16.1632 35.933 17.4359 32.6488 20.7201C29.0635 24.278 27.2571 29.9023 27.2298 37.5929C27.2298 42.0813 27.8045 46.8024 28.954 51.7561C29.0361 52.0845 28.7761 52.1256 28.174 51.8793C27.5445 51.6056 27.1887 51.3182 27.1066 51.0172C25.9024 45.954 25.3003 41.1371 25.3003 36.5665C25.3003 28.5749 27.2435 22.6359 31.1298 18.7496C34.414 15.4653 38.7656 14.2611 44.1846 15.1369C51.6289 16.3411 60.1132 22.1022 69.6374 32.4202C76.7806 40.1108 81.6659 46.5971 84.2933 51.8793Z" fill="#0D131A"/>
<path d="M49.3572 33.8571L48.6593 34.4319L31.9097 20.4739L32.3613 19.9402L49.3572 33.8571Z" fill="#0D131A"/>
<path d="M25.957 36.0739L26.5318 35.6633L38.1908 45.475L37.575 46.0908L25.957 36.0739Z" fill="#0D131A"/>
<path d="M45.1284 51.1813L45.7032 50.4834L64.3001 64.3182L63.8896 64.893L45.1284 51.1813Z" fill="#0D131A"/>
<path d="M71.936 36.5254L72.2644 37.018L60.277 37.757L60.1538 36.9359L71.936 36.5254Z" fill="#0D131A"/>
<path d="M47.3867 52.3718L48.372 53.1108L50.7531 67.4382L49.932 67.0688L47.3867 52.3718Z" fill="#0D131A"/>
<path d="M95.2952 118.796L97.1426 112.638L97.8405 112.843L95.911 119.247L95.8289 119.288C79.9004 131.522 70.8277 138.118 68.6108 139.076L68.734 137.762C70.8687 136.859 79.7225 130.537 95.2952 118.796Z" fill="#0D131A"/>
<path d="M81.7476 129.551L82.2812 128.977L84.6213 134.765L83.9644 135.668L81.7476 129.551Z" fill="#0D131A"/>
<path d="M76.4111 160.587C77.4785 158.316 78.9017 155.552 80.6806 152.295C83.3354 147.478 85.0733 144.864 85.8943 144.454L87.167 143.55C86.4554 144.18 84.9912 146.534 82.7743 150.612C80.968 153.95 79.0385 157.686 76.9859 161.819L76.4111 160.587Z" fill="#0D131A"/>
<path d="M157.08 156.77C155.027 155.182 153.098 153.458 151.292 151.597L149.116 149.175L149.403 147.574L151.62 149.914C153.454 151.72 155.397 153.39 157.449 154.922C163.963 159.766 170.354 162.353 176.621 162.681L176.498 163.708L176.58 164.734C170.066 164.46 163.566 161.805 157.08 156.77Z" fill="#0D131A"/>
<path d="M198.092 94.6154L199.282 93.7943C202.293 98.1733 204.879 104.03 207.041 111.365C209.887 121.053 210.558 129.729 209.053 137.392C208.122 142.1 206.234 146.356 203.387 150.16C200.815 153.554 197.353 156.742 193.001 159.725C191.468 160.738 190.059 161.545 188.773 162.147L188.075 160.464C189.306 159.917 190.483 159.26 191.605 158.494C199.679 153.294 204.674 145.918 206.59 136.366C208.095 128.812 207.616 120.465 205.153 111.324C203.237 104.235 200.883 98.6659 198.092 94.6154Z" fill="#0D131A"/>
<path d="M161.801 115.06L162.253 114.444C166.988 116.469 174.856 118.59 185.858 120.807C196.286 122.887 203.593 123.927 207.781 123.927V124.625C203.018 124.625 195.875 123.735 186.351 121.956C175.431 119.904 167.248 117.605 161.801 115.06Z" fill="#0D131A"/>
<path d="M186.966 121.341H187.705C187.842 123.804 187.281 127.293 186.022 131.809C184.654 136.681 183.066 140.376 181.26 142.893L180.685 142.483C182.327 140.211 183.846 136.298 185.242 130.742C186.391 126.171 186.966 123.038 186.966 121.341Z" fill="#0D131A"/>
<path d="M174.692 139.568C176.498 140.17 178.51 141.046 180.726 142.196L184.914 144.412C185.817 144.823 186.323 145.138 186.433 145.357L187.049 147.45L190.784 159.889L190.086 160.095L185.53 145.972C180.85 143.071 177.155 141.156 174.445 140.225L174.692 139.568Z" fill="#0D131A"/>
<path d="M144.066 102.046C147.98 102.812 152.592 103.099 157.901 102.908L156.875 104.468L145.791 103.77L144.066 102.046Z" fill="#0D131A"/>
<path d="M193.781 4.7095C194.027 4.60003 193.863 4.95582 193.288 5.77688L192.057 7.13163L189.922 7.99374C183.518 10.6759 176.771 14.9727 169.683 20.8843C162.95 26.4949 156.587 32.9676 150.593 40.3024C144.572 47.6645 139.66 54.9993 135.855 62.3067C131.832 69.9973 129.465 76.8395 128.753 82.8332L127.357 82.669C128.042 76.7026 130.341 69.7099 134.254 61.6909C138.277 53.4256 143.3 45.5708 149.321 38.1266C155.424 30.6002 162.047 24.0454 169.19 18.4622C175.868 13.2622 182.56 9.25269 189.265 6.43373L193.781 4.7095Z" fill="#0D131A"/>
<path d="M223.298 34.596C222.477 19.6253 219.056 10.2516 213.035 6.47471C209.176 4.09365 204.099 3.6968 197.804 5.28418C197.695 5.31155 197.613 5.03786 197.558 4.46312C197.53 3.86101 197.572 3.54627 197.681 3.5189C204.742 1.71258 210.271 2.05468 214.266 4.54523C217.578 6.62524 220.137 9.99158 221.943 14.6442C223.75 19.379 224.872 25.6601 225.31 33.4875C225.747 41.4244 224.79 49.4571 222.436 57.5856C220.657 63.6614 218.207 69.4362 215.087 74.9099C212.05 80.2468 208.902 84.8036 205.645 88.5805C202.005 92.7953 198.529 95.669 195.218 97.2016C191.961 98.7069 187.869 100.048 182.943 101.225C177.88 102.456 172.639 103.346 167.22 103.893V102.128C172.31 101.444 177.332 100.445 182.286 99.1311C186.939 97.8448 190.88 96.4627 194.109 94.9848C201.499 91.5637 208.177 84.4342 214.143 73.5962C220.985 61.1982 224.037 48.1981 223.298 34.596Z" fill="#0D131A"/>
<path d="M175.759 33.2412L175.8 33.9391L153.755 34.9244L154.74 34.1854L175.759 33.2412Z" fill="#0D131A"/>
<path d="M214.225 11.7705L217.592 9.88208L217.961 10.4979L214.554 12.3863C205.659 17.2853 199.802 20.6653 196.983 22.5264C196.655 22.7453 196.504 22.6358 196.531 22.198C196.586 21.7874 196.723 21.5001 196.942 21.3358C198.694 20.1043 201.54 18.4485 205.481 16.3684L214.225 11.7705Z" fill="#0D131A"/>
<path d="M209.956 41.2464C215.511 37.8801 220.15 35.5264 223.873 34.1853L224.119 34.8832C220.698 36.0874 215.99 38.578 209.997 42.3548C203.456 46.4328 198.105 50.3875 193.945 54.2191C193.617 54.4928 193.439 54.4654 193.411 54.137C193.357 53.8086 193.507 53.4802 193.863 53.1517C198.023 49.1833 203.387 45.2148 209.956 41.2464Z" fill="#0D131A"/>
<path d="M206.139 66.6172C212.461 63.3604 217.113 61.4583 220.097 60.9109L220.261 61.6088C217.88 62.1562 213.432 64.0446 206.919 67.2741C199.556 70.9688 194.096 74.2941 190.538 77.2499L190.087 77.2089C190.087 76.9352 190.224 76.6889 190.497 76.4699C194.11 73.3499 199.324 70.0657 206.139 66.6172Z" fill="#0D131A"/>
<path d="M203.1 46.0086L203.839 45.9675L205.892 67.315L204.66 67.9308L203.1 46.0086Z" fill="#0D131A"/>
<path d="M157.408 62.7171C157.655 62.5803 157.805 62.6487 157.86 62.9224C157.887 63.1961 157.75 63.415 157.449 63.5792C153.344 66.015 148.65 69.1898 143.368 73.1035C138.059 76.9898 133.516 80.6025 129.739 83.9415L129.246 83.4488C139.646 74.1435 149.034 67.2329 157.408 62.7171Z" fill="#0D131A"/>
<path d="M144.025 102.087L156.382 86.7744L157.449 87.6365L144.559 102.539L144.025 102.087Z" fill="#0D131A"/>
<path d="M181.424 100.28L184.052 89.8118L185.53 88.1287L182.081 100.445L181.424 100.28Z" fill="#0D131A"/>
<path d="M67.0921 148.682C66.6816 149.366 65.491 150.242 63.5205 151.309C61.1942 152.595 59.8394 153.677 59.4563 154.552C59.2099 155.1 58.8541 156.81 58.3889 159.684C57.6499 163.981 56.9931 167.238 56.4183 169.455C55.351 173.615 54.0236 177.049 52.4362 179.759C50.6846 182.769 49.3162 185.971 48.3309 189.365C47.4277 192.513 46.9762 195.373 46.9762 197.945C46.9762 199.834 47.2362 201.366 47.7562 202.543L49.973 207.634C50.6846 209.55 51.0404 211.192 51.0404 212.56C51.0404 213.6 50.8488 214.503 50.4657 215.27C49.6993 216.966 48.4814 219.06 46.812 221.551C45.0877 224.096 43.8014 225.697 42.953 226.354L34.5782 231.855C29.7066 235.303 26.8055 238.095 25.875 240.23C25.1634 241.844 25.0402 244.143 25.5055 247.127C25.9708 250.11 26.4908 251.095 27.0655 250.082C28.4339 247.729 31.1297 244.431 35.1529 240.189C39.7235 235.372 43.4319 232.224 46.2783 230.747C48.6593 229.515 51.3551 228.365 54.3657 227.298L60.072 225.451L62.4942 224.753C62.8773 224.616 63.0415 224.342 62.9868 223.932C62.9047 223.494 62.4942 222.591 61.7552 221.222C61.0163 219.881 60.5099 219.074 60.2363 218.8C59.032 217.486 58.1562 216.296 57.6089 215.229C56.651 213.367 56.172 211.164 56.172 208.619C56.172 207.168 56.3225 205.677 56.6236 204.144C57.0341 201.873 57.7047 199.697 58.6352 197.617C59.2099 196.33 60.1268 194.634 61.3857 192.526C62.9184 189.926 63.9858 187.86 64.5879 186.327C65.5731 183.809 66.1479 180.99 66.3121 177.87L66.3531 176.146L66.1068 170.399L65.9016 166.581L66.0658 164.775L66.3121 163.995C66.8868 162.161 67.1742 160.628 67.1742 159.397L67.051 157.878L66.8868 156.194C66.8868 153.43 68.2826 151.72 71.0742 151.063C72.5521 150.762 75.0016 149.681 78.4227 147.82C83.5132 145.028 88.0154 141.621 91.9291 137.597L91.6417 139.979C86.9891 144.741 82.4459 148.175 78.0122 150.283C76.3974 151.077 74.1942 151.802 71.4026 152.459C70.1984 152.732 69.3774 153.444 68.9395 154.593C68.5289 155.633 68.4605 156.947 68.7342 158.534C68.9258 159.684 68.8711 160.792 68.57 161.86L67.6668 164.405L67.4205 165.144C67.311 165.582 67.3384 167.292 67.5026 170.276C67.7216 173.615 67.7763 176.447 67.6668 178.774C67.4753 182.359 67.1605 185.041 66.7226 186.82C66.2847 188.462 65.4637 190.282 64.2594 192.28L60.7289 197.74C59.2784 200.148 58.3752 202.365 58.0194 204.391C57.3626 208.031 57.4857 211.055 58.3889 213.463C58.9089 214.859 59.8668 216.31 61.2626 217.815C63.3152 220.032 64.4921 221.961 64.7931 223.603C65.0668 225.109 64.6015 225.984 63.3973 226.231C57.2941 227.572 51.8067 229.501 46.9351 232.019C44.3077 233.36 40.2845 237.247 34.8656 243.678C29.8024 249.617 27.0108 252.587 26.4908 252.587C25.396 252.587 24.5065 251.136 23.8223 248.235C23.1929 245.526 23.0286 242.953 23.3297 240.517C23.7676 237.014 29.9529 231.964 41.8856 225.369C45.7446 220.442 48.1804 216.884 49.193 214.695C49.4667 214.065 49.6036 213.354 49.6036 212.56C49.6036 211.383 49.193 209.905 48.372 208.126L45.9909 203.405C45.4162 202.146 45.1288 200.422 45.1288 198.233C45.1288 195.633 45.6625 192.622 46.7299 189.201C47.8246 185.67 49.3162 182.277 51.2046 179.02C52.7099 176.475 53.8731 173.136 54.6941 169.003L56.2131 159.438C56.7331 156.345 57.1299 154.525 57.4036 153.978C57.732 153.239 58.512 152.486 59.7436 151.72L62.8636 150.078C64.5879 149.147 65.6005 148.422 65.9016 147.902L66.4763 146.547C66.9963 145.042 67.4068 144.098 67.7079 143.714C68.5837 142.565 70.1437 141.58 72.3879 140.759C75.9458 139.5 80.7217 136.585 86.7154 132.014C94.4333 126.103 100.017 120.095 103.465 113.992L104.697 114.69C101.275 120.738 95.8565 126.76 88.4396 132.753C82.2817 137.734 77.2869 140.895 73.4553 142.236C71.43 142.975 69.9932 143.783 69.1447 144.659C68.6247 145.179 68.1868 145.959 67.831 146.999L67.0921 148.682Z" fill="#0D131A"/>
<path d="M66.2297 105.289C64.6423 103.784 63.1234 102.005 61.6729 99.9522L62.7813 99.0901C66.5034 104.208 69.9792 107.273 73.2087 108.286C75.7266 109.107 77.5193 110.311 78.5866 111.899C79.3803 113.048 79.9414 114.8 80.2698 117.153C81.8298 113.376 84.7309 108.888 88.973 103.688C91.3815 100.76 93.6804 98.2006 95.8699 96.0111L96.8552 97.0374C94.7204 99.2543 92.2025 102.21 89.3015 105.905C84.7309 111.707 81.9804 116.182 81.0498 119.329C80.6667 120.643 80.2698 121.149 79.8593 120.848L79.2435 120.191L79.0793 118.837C79.0793 117.468 78.6824 115.977 77.8887 114.362C76.7393 111.953 75.0287 110.38 72.7571 109.641C70.6771 108.984 68.5013 107.533 66.2297 105.289Z" fill="#0D131A"/>
<path d="M66.4765 115.511C62.5354 110.831 59.5248 106.781 57.4448 103.36L56.9111 102.375L58.1838 101.8L58.6764 102.621C60.5922 105.741 63.5343 109.6 67.5028 114.198C71.9091 119.234 75.166 122.258 77.2734 123.27L81.0092 124.872L83.4724 125.036C84.1018 124.789 84.6082 124.16 84.9913 123.147L85.1555 122.901C87.2629 120.657 89.3156 118.125 91.3135 115.306C94.8987 110.243 96.8556 106.097 97.184 102.867L98.0051 104.14C97.4577 109.395 93.544 115.949 86.264 123.804L85.4839 125.528C85.2103 126.021 84.8682 126.349 84.4576 126.514C82.706 127.198 80.0513 126.705 76.4934 125.036C74.2765 123.996 70.9375 120.821 66.4765 115.511Z" fill="#0D131A"/>
<path d="M58.8405 74.212L38.7656 60.0077L39.5867 58.7761L59.0047 72.611L58.8405 74.212Z" fill="#0D131A"/>
<path d="M0.832493 35.7455C0.859862 34.9518 1.09249 34.3907 1.53039 34.0623C2.62514 33.2139 4.19883 33.5286 6.25148 35.0065L31.1295 52.7414L29.9801 53.7677L5.79989 36.6486C4.95147 36.0465 4.2262 35.6633 3.62409 35.4991C3.18619 35.3623 2.87145 35.3623 2.67987 35.4991C2.35145 35.7181 2.36513 36.416 2.72093 37.5928C3.18619 38.9886 8.89255 50.2098 19.84 71.2562C30.7601 92.3574 36.6306 103.455 37.4517 104.55C38.0538 105.371 39.3949 105.85 41.4749 105.987C43.5549 106.151 45.7033 105.919 47.9202 105.289C53.996 103.811 58.8266 101.143 62.4119 97.2838C64.3277 95.2037 65.6413 93.1374 66.3529 91.0848L67.6666 91.5364C66.654 94.629 65.4635 97.0101 64.095 98.6796C60.7287 102.73 55.5834 105.453 48.6591 106.849C46.3054 107.506 43.9107 107.725 41.4749 107.506C38.9022 107.26 37.1917 106.562 36.3433 105.412C35.2211 103.907 23.5895 81.6015 1.44829 38.496C1.01039 37.5107 0.805124 36.5939 0.832493 35.7455Z" fill="#0D131A"/>
<path d="M36.9591 104.55C40.3254 104.879 44.4034 103.921 49.1929 101.676C55.6519 98.6659 60.5235 94.1364 63.8077 88.0879L64.3003 89.1142C61.1529 95.4911 56.2403 100.103 49.5623 102.949C44.8002 105.002 40.5581 105.836 36.8359 105.453L36.9591 104.55Z" fill="#0D131A"/>
<path d="M106.626 116.25L107.529 116.414L108.268 116.743C102.412 121.368 97.3484 128.224 93.0789 137.31C88.4536 147.163 86.3188 156.632 86.6746 165.719C87.0578 175.216 90.2873 182.646 96.3631 188.011L95.7473 190.515C92.4904 187.586 89.9178 184.015 88.0293 179.8C86.1135 175.531 85.0599 170.933 84.8683 166.006C84.5125 156.947 86.6746 147.423 91.3546 137.433C95.6241 128.265 100.715 121.204 106.626 116.25Z" fill="#0D131A"/>
<path d="M144.969 132.137L146.611 132.753C151.236 143.92 152.058 154.799 149.074 165.39C146.474 174.723 141.466 182.4 134.049 188.421C128.219 193.21 122.075 195.961 115.616 196.673L116.519 195.564L117.258 194.25C122.705 193.402 127.864 190.994 132.735 187.025C139.878 181.196 144.75 173.615 147.35 164.282C150.279 153.69 149.485 142.975 144.969 132.137Z" fill="#0D131A"/>
<path d="M136.43 127.622C142.369 131.755 146.748 137.762 149.567 145.644L148.705 145.973C145.941 138.282 141.671 132.425 135.897 128.402C131.901 125.583 127.412 123.79 122.431 123.024C117.286 122.23 112.209 122.586 107.201 124.091C102.219 125.569 98.5658 127.841 96.2394 130.906L95.5005 130.332C97.9363 127.102 101.713 124.721 106.831 123.188C111.949 121.628 117.204 121.272 122.595 122.121C127.686 122.887 132.298 124.721 136.43 127.622Z" fill="#0D131A"/>
<path d="M139.181 143.345C144.108 148.463 147.241 154.977 148.582 162.886L147.679 163.05C146.365 155.36 143.314 149.01 138.524 144.002C133.707 138.993 127.591 135.764 120.174 134.313C114.125 133.164 108.2 133.438 102.398 135.134C96.623 136.777 92.6956 139.308 90.6156 142.729L90.2461 141.826C92.4356 138.268 96.4314 135.682 102.234 134.067C108.063 132.452 114.112 132.233 120.379 133.41C127.987 134.888 134.255 138.2 139.181 143.345Z" fill="#0D131A"/>
<path d="M86.2637 155.251C89.0553 150.68 93.3795 147.45 99.2364 145.562C105.093 143.646 111.238 143.482 117.669 145.069C125.141 146.876 131.148 150.529 135.691 156.031C140.235 161.504 142.794 168.196 143.368 176.105L142.424 176.187C141.877 168.497 139.4 161.97 134.993 156.605C130.56 151.268 124.717 147.724 117.464 145.973C111.224 144.44 105.257 144.59 99.5648 146.424C93.8995 148.23 89.7258 151.337 87.0437 155.743L86.2637 155.251Z" fill="#0D131A"/>
<path d="M96.8141 162.065C101.439 160.286 106.681 160.067 112.537 161.408C118.394 162.749 123.156 165.267 126.824 168.962C129.615 171.754 131.367 174.915 132.079 178.445C132.79 182.003 132.393 185.698 130.888 189.529L130.026 189.16C131.449 185.52 131.832 182.017 131.175 178.65C130.491 175.284 128.822 172.26 126.167 169.578C122.609 166.02 117.997 163.598 112.332 162.311C106.667 160.998 101.617 161.203 97.1836 162.927C94.6931 163.885 92.6815 165.254 91.1488 167.032C89.1235 169.386 88.0288 172.356 87.8646 175.941L86.9614 175.9C87.0983 172.616 88.0288 169.783 89.753 167.402C91.4499 165.021 93.8036 163.242 96.8141 162.065Z" fill="#0D131A"/>
<path d="M106.051 175.079C107.912 174.997 109.787 175.284 111.675 175.941C115.398 177.255 118.107 179.308 119.804 182.099C121.473 184.781 121.706 187.354 120.502 189.817C115.904 199.232 110.458 207.785 104.163 215.475C98.6343 222.18 95.1311 225.355 93.6532 224.999C92.2848 224.671 92.1616 217.774 93.2837 204.309C94.3237 191.637 95.2816 184.029 96.1574 181.483C96.5132 180.471 97.129 179.485 98.0048 178.528C98.8806 177.597 99.8522 176.858 100.92 176.311C102.48 175.544 104.19 175.134 106.051 175.079ZM106.133 176.516C104.436 176.571 102.904 176.926 101.535 177.583C99.729 178.487 98.5248 179.787 97.9227 181.483C97.1838 183.7 96.2396 191.144 95.0901 203.816C93.968 216.625 93.7216 223.125 94.3511 223.316C95.6101 223.563 99.8933 218.458 107.201 208.004C114.289 197.85 118.285 191.432 119.188 188.75C119.407 188.175 119.517 187.504 119.517 186.738C119.517 184.822 118.75 182.989 117.218 181.237C115.685 179.431 113.687 178.117 111.224 177.296C109.554 176.721 107.858 176.461 106.133 176.516Z" fill="#0D131A"/>
<path d="M135.199 89.771C135.472 90.4552 135.691 91.3857 135.856 92.5626L136.225 95.3542C135.623 94.7521 134.816 94.2184 133.803 93.7531L132.53 90.3457C130.067 84.7899 126.153 80.9994 120.789 78.9741C119.092 78.3172 117.341 77.893 115.534 77.7014L113.071 77.5783L113.687 76.0593H116.232C118.285 76.1962 120.269 76.593 122.185 77.2499C128.288 79.2751 132.626 83.4489 135.199 89.771Z" fill="#0D131A"/>
<path d="M134.336 105.453L135.609 106.685C135.089 108.19 134.487 109.504 133.803 110.626L132.694 109.682C133.406 108.423 133.953 107.013 134.336 105.453Z" fill="#0D131A"/>
<path d="M116.52 118.221C122.349 118.139 126.933 116.387 130.272 112.966L131.093 114.28C127.727 117.81 123.211 119.616 117.546 119.699C113.057 119.726 109.062 118.604 105.558 116.332C102.794 114.553 100.728 112.391 99.3595 109.846C97.6626 106.726 96.6089 103.866 96.1984 101.266C95.7331 98.5016 96.0479 96.3121 97.1426 94.6974L99.2363 93.0963C98.3058 94.4921 97.9089 96.5721 98.0458 99.3364C98.1826 102.429 99.0037 105.371 100.509 108.163C101.932 110.817 103.711 112.98 105.846 114.649C108.911 117.058 112.469 118.248 116.52 118.221Z" fill="#0D131A"/>
<path d="M137.99 123.352C142.862 129.538 147.679 133.999 152.441 136.736L162.212 142.442C167.193 145.37 169.916 146.835 170.381 146.835L171.161 146.547C171.955 146.164 172.598 145.986 173.091 146.014C173.966 146.041 174.719 146.588 175.349 147.656C176.471 149.544 177.319 151.35 177.894 153.075C178.797 155.757 178.879 157.905 178.14 159.52C177.483 160.916 177.305 162.832 177.607 165.267C177.825 167.019 178.345 169.249 179.167 171.959C179.577 173.382 179.741 175.257 179.659 177.583L179.002 184.152C178.564 187.737 178.373 190.118 178.428 191.295C178.564 193.758 180.453 198.931 184.093 206.813L186.351 211.986C187.446 214.613 187.911 217.035 187.747 219.252C187.555 221.469 186.734 223.658 185.283 225.82L184.791 226.6C182.519 229.939 181.507 231.992 181.753 232.758L182.245 233.21L185.981 233.579C189.211 233.525 192.002 233.812 194.356 234.441C196.874 235.126 199.488 236.385 202.197 238.218L208.601 243.227L212.625 246.429C213.938 247.359 215.033 247.879 215.909 247.989C218.345 248.317 221.164 250.438 224.366 254.352C224.284 251.342 224.024 248.673 223.586 246.347C223.066 243.501 222.34 241.79 221.41 241.215C221.136 241.024 219.932 240.49 217.797 239.614C211.393 237.124 206.467 234.619 203.018 232.101C196.86 227.613 193.426 222.262 192.714 216.05L192.591 214.285C192.591 213.135 192.851 211.808 193.371 210.302L194.233 207.306C194.507 205.855 194.643 204.131 194.643 202.133L194.438 197.617C193.891 189.762 192.837 181.976 191.277 174.258C189.334 164.816 187.117 158.37 184.627 154.922C182.355 151.829 180.467 149.489 178.961 147.902L175.923 144.248C174.774 142.661 174.199 141.265 174.199 140.061L174.24 139.158C174.24 138.884 174.144 138.651 173.953 138.46L172.639 137.433C171.928 136.996 169.642 135.873 165.783 134.067C160.419 131.549 156.41 129.579 153.755 128.156C148.801 125.528 145.038 123.133 142.465 120.971C137.785 117.058 133.516 112.542 129.657 107.424C129.438 107.15 129.191 107.068 128.918 107.177C128.507 107.396 128.411 107.739 128.63 108.204C130.738 113.021 133.858 118.07 137.99 123.352ZM153.755 126.719C156.656 128.333 160.378 130.194 164.921 132.302L169.889 134.437C171.777 135.23 172.954 135.778 173.419 136.079C174.432 136.708 175.089 137.324 175.39 137.926C175.609 138.309 175.691 138.857 175.636 139.568C175.609 140.143 175.65 140.622 175.759 141.005C175.951 141.662 176.389 142.456 177.073 143.386L179.988 146.917L182.328 149.175C183.641 150.516 185.01 152.171 186.433 154.142C189.17 157.864 191.51 164.72 193.453 174.71C194.903 182.154 195.916 189.749 196.491 197.494C196.737 201.024 196.614 203.994 196.121 206.402L194.726 210.754L194.11 212.93C193.973 213.751 193.973 214.736 194.11 215.886C194.794 221.715 198.119 226.655 204.086 230.706C206.877 232.594 211.639 234.852 218.372 237.479C219.823 238.027 221.218 238.711 222.559 239.532C223.49 240.134 224.297 241.831 224.982 244.623C225.693 247.524 226.008 250.616 225.926 253.901C225.898 255.57 225.707 256.46 225.351 256.569C225.023 256.678 224.256 256.131 223.052 254.927C221.875 253.75 220.534 252.669 219.029 251.684C217.332 250.562 215.95 249.932 214.883 249.795C213.897 249.686 212.789 249.056 211.557 247.907L207.698 244.294L201.499 239.45C198.872 237.698 196.368 236.48 193.987 235.796L188.157 235.139L183.272 235.18C182.314 235.208 181.493 235.057 180.809 234.729C180.207 234.455 179.851 234.154 179.741 233.826C179.522 233.059 179.851 231.883 180.727 230.295L183.6 225.779L184.134 225.04C185.448 223.07 186.173 221.086 186.31 219.088C186.447 217.117 186.022 214.928 185.037 212.519L182.779 207.388L178.879 199.013C177.511 195.811 176.785 193.416 176.703 191.829C176.676 191.008 176.772 189.79 176.991 188.175L177.607 183.987C178.236 178.815 178.14 174.846 177.319 172.082C175.595 166.389 175.431 162.01 176.827 158.945C177.374 157.796 177.333 156.154 176.703 154.019C176.183 152.24 175.335 150.365 174.158 148.395C173.775 147.792 173.405 147.478 173.05 147.45C172.803 147.423 172.379 147.546 171.777 147.82L170.669 148.23C169.437 148.477 166.385 147.149 161.514 144.248L150.881 137.557C145.818 134.683 140.905 130.071 136.143 123.722C132.476 118.795 129.534 113.801 127.317 108.737C127.07 108.19 127.057 107.643 127.276 107.095C127.467 106.603 127.782 106.233 128.22 105.987C128.63 105.741 129.055 105.659 129.492 105.741C129.985 105.795 130.409 106.069 130.765 106.562C134.542 111.543 138.743 115.976 143.368 119.863C145.941 122.025 149.403 124.31 153.755 126.719Z" fill="#0D131A"/>
<path d="M167.384 93.3427L168.78 93.548C168.479 94.6975 168.151 97.0922 167.795 100.732C167.466 104.181 167.288 106.849 167.261 108.738C167.234 110.133 166.344 111.83 164.593 113.828L161.76 116.497C161.651 116.606 161.459 117.017 161.185 117.728C160.884 118.796 160.474 119.384 159.954 119.493C159.324 119.63 158.531 119.192 157.573 118.18C155.137 115.552 150.922 113.294 144.928 111.406L140.946 110.298L137.251 109.559C136.129 109.23 135.199 108.532 134.46 107.465C128.466 98.8438 124.087 93.5617 121.323 91.6185C120.693 91.1806 120.297 90.688 120.132 90.1406C119.996 89.648 120.064 89.1964 120.338 88.7859C120.94 87.9374 122.349 87.7185 124.566 88.129C127.057 88.5943 129.643 89.7164 132.325 91.4954C134.487 92.9459 138.374 95.9701 143.984 100.568L154.822 109.435C154.822 106.945 155.301 105.07 156.259 103.811C156.971 102.935 158.353 100.075 160.405 95.2312L162.417 90.7154L163.607 91.4954C163.224 92.2891 162.595 93.7259 161.719 95.8059L159.625 100.979C158.886 102.84 158.298 104.044 157.86 104.591C157.203 105.412 156.793 106.398 156.628 107.547L156.3 110.872C156.163 111.912 155.931 112.337 155.602 112.145L155.151 111.529C142.588 101.54 134.227 95.1628 130.067 92.3985C127.686 90.8111 125.633 89.8259 123.909 89.4427C122.568 89.1417 121.775 89.1964 121.528 89.6069C121.473 89.6617 121.501 89.7711 121.61 89.9354L122.144 90.469C124.06 91.8101 126.564 94.3554 129.657 98.1049C131.846 100.76 133.803 103.332 135.527 105.823C136.184 106.781 136.978 107.479 137.908 107.917C138.51 108.218 139.633 108.56 141.275 108.943L145.339 110.051C151.661 112.049 156.081 114.43 158.599 117.194L159.584 118.057L159.831 117.318C160.104 116.332 160.446 115.689 160.857 115.388C162.034 114.458 163.101 113.404 164.059 112.227C165.236 110.777 165.824 109.6 165.824 108.697C165.852 106.918 166.016 104.372 166.317 101.061C166.673 97.3386 167.028 94.7659 167.384 93.3427Z" fill="#0D131A"/>
<path d="M196.983 2.04097C196.162 1.54833 188.991 12.3589 175.471 34.4728C161.842 56.7234 154.698 69.573 154.042 73.0214C153.85 73.9793 153.754 75.0057 153.754 76.1004C153.754 79.3846 154.644 82.3404 156.423 84.9678C158.339 87.7868 161.075 89.8258 164.633 91.0847C169.04 92.6174 173.72 92.6447 178.673 91.1668C183.545 89.6889 186.487 87.4173 187.5 84.352C189.361 78.7688 191.687 63.7024 194.479 39.1528C197.216 14.74 198.05 2.36939 196.983 2.04097ZM197.558 0.768329C198.844 1.15149 198.652 11.401 196.983 31.517C195.231 52.7276 192.837 70.134 189.799 83.7362C189.032 87.2668 185.844 90.0447 180.233 92.07C174.951 93.9584 170.203 94.3826 165.988 93.3426C160.624 92.0016 156.737 89.1826 154.329 84.8857C152.167 81.0541 151.565 76.8941 152.523 72.4056C153.754 66.8498 161.103 53.3708 174.568 31.9685C188.006 10.621 195.669 0.220957 197.558 0.768329Z" fill="#0D131A"/>
<path d="M152.4 73.9657L153.303 73.8015C153.659 75.6626 154.767 77.7015 156.628 79.9184C158.79 82.5184 161.418 84.5574 164.511 86.0353C167.521 87.4858 170.709 88.2111 174.076 88.2111C178.51 88.2111 183.053 86.9521 187.705 84.4342L188.157 85.2553C183.285 87.8553 178.646 89.2237 174.24 89.3606C170.764 89.47 167.535 88.8132 164.552 87.39C161.349 85.8574 158.53 83.6268 156.095 80.6984C154.015 78.1805 152.783 75.9363 152.4 73.9657Z" fill="#0D131A"/>
<path d="M73.5374 53.5624C77.7248 51.6466 82.7059 50.6887 88.4807 50.6887L88.2344 52.3308C82.8428 52.4403 78.2859 53.3298 74.5638 54.9993C73.688 55.3824 73.0037 55.7245 72.5111 56.0256L71.5669 54.5477L73.5374 53.5624Z" fill="#0D131A"/>
<path d="M98.9899 52.4126V53.8905C97.7857 53.2884 95.7467 52.8232 92.873 52.4947L93.1194 51.0168C95.7468 51.3179 97.7036 51.7832 98.9899 52.4126Z" fill="#0D131A"/>
<path d="M103.588 87.4723L106.379 86.5281C103.068 90.4418 100.016 93.7397 97.2246 96.4218C92.134 101.266 88.3708 103.579 85.935 103.36C84.7855 103.25 82.8834 102.238 80.2286 100.322C77.3549 98.2692 74.7002 95.9292 72.2644 93.3018V91.906L72.0181 90.4692C74.5633 93.5071 77.3413 96.1755 80.3518 98.4745C82.9518 100.445 84.7445 101.471 85.7297 101.553C87.3992 101.636 90.3277 99.925 94.5151 96.4218C98.1277 93.3839 101.152 90.4007 103.588 87.4723Z" fill="#0D131A"/>
<path d="M68.8983 56.395L69.9246 57.7908C67.1057 60.035 65.2036 62.8951 64.2183 66.3709L63.972 67.3561L62.5762 67.0277L62.8225 65.9603C63.9993 61.9645 66.0246 58.7761 68.8983 56.395Z" fill="#0D131A"/>
<path d="M62.5351 67.6846C60.7562 68.4509 59.8393 70.6815 59.7846 74.3762C59.7025 78.2626 60.6604 82.0531 62.6583 85.7479C63.8899 87.9921 65.4225 89.7984 67.2562 91.1669C68.9804 92.4258 70.3352 92.9048 71.3204 92.6037C71.4846 92.6037 71.5531 92.4395 71.5257 92.1111C71.3615 89.8121 69.9931 85.1047 67.4204 77.9889C64.8204 70.8457 63.192 67.4109 62.5351 67.6846ZM61.673 66.5762L63.7667 66.6583C64.8341 67.5888 66.6404 71.7352 69.1857 79.0973C71.0468 84.4342 72.1415 88.2932 72.4699 90.6742C72.7436 92.6448 72.4973 93.7395 71.731 93.9585C70.3352 94.369 68.5288 93.8764 66.312 92.4806C64.013 91.03 62.2341 89.1553 60.9751 86.8563C58.9498 83.1615 58.0603 79.2205 58.3067 75.0331C58.5256 71.0099 59.6477 68.1909 61.673 66.5762Z" fill="#0D131A"/>
<path d="M103.917 60.9929L104.286 62.3887C101.221 63.2098 98.7576 65.9877 96.8965 70.7225C95.0628 75.4299 94.6249 80.0825 95.5828 84.6804C95.9933 86.6784 96.8007 87.8826 98.0049 88.2931C99.2365 88.731 100.838 88.5121 102.808 87.6363C104.806 86.7605 106.9 85.3373 109.089 83.3668C110.403 82.2173 111.443 80.5752 112.209 78.4404C112.921 76.4699 113.29 74.4035 113.318 72.2414C113.372 68.1909 111.963 64.8519 109.089 62.2245L110.033 61.1571C111.676 62.635 112.935 64.3045 113.81 66.1656C114.741 68.1361 115.192 70.1888 115.165 72.3235C115.11 74.9783 114.741 77.2362 114.057 79.0973C113.318 81.0952 112.113 82.9425 110.444 84.6394C108.118 86.9657 105.696 88.5531 103.178 89.4015L97.5533 89.6478C95.8565 89.0457 94.7344 87.4857 94.187 84.9678C93.147 79.9594 93.6396 74.9372 95.6649 69.9014C97.7176 64.8929 100.468 61.9235 103.917 60.9929Z" fill="#0D131A"/>
<path d="M72.0184 61.1983C72.3742 61.9099 72.7573 62.4983 73.1679 62.9636L73.9068 63.4973C74.5363 63.2783 74.5089 62.2657 73.8247 60.4593C73.0037 58.3246 70.4173 53.973 66.0657 47.4045C62.3162 41.7666 59.5383 37.7981 57.732 35.4992C56.4457 33.8571 55.2004 32.9676 53.9962 32.8307C52.7646 32.6939 51.273 33.296 49.5214 34.6371C47.5782 36.0876 43.2814 40.4529 36.6308 47.7329C29.9528 54.9856 26.1897 59.4193 25.3412 61.0341C24.9033 61.8551 24.8212 62.9499 25.0949 64.3183C25.3686 65.6867 25.9023 66.8773 26.696 67.8899C27.6265 69.0394 28.557 69.4773 29.4876 69.2036C30.4455 68.9573 31.3486 68.3415 32.1971 67.3562L34.6602 63.8667C35.8918 61.8962 36.8634 60.4457 37.575 59.5151C40.5855 55.4919 43.815 51.5645 47.2635 47.7329C50.2467 44.394 52.5183 42.2182 54.0783 41.2055C55.2004 40.4666 56.0762 40.3024 56.7057 40.7129C57.9099 41.5066 60.5236 44.6403 64.5468 50.114C68.4331 55.3414 70.9236 59.0362 72.0184 61.1983ZM75.1384 59.9667C75.6037 61.2257 75.7679 62.252 75.631 63.0457C75.4942 63.7573 75.1247 64.2225 74.5226 64.4415C73.4005 64.852 72.3331 64.0036 71.3205 61.8962C70.3352 59.8709 67.7626 56.1898 63.6025 50.853C59.5246 45.5982 56.9657 42.615 55.9256 41.9034C55.1046 41.794 52.8467 43.7508 49.1519 47.774C45.6487 51.5782 42.1729 55.7793 38.7245 60.3772L35.8508 64.6057L33.1413 68.5057C32.1013 69.7099 30.9928 70.4763 29.816 70.8047C28.2286 71.2699 26.8055 70.7089 25.5465 69.1215C24.5886 67.9447 23.9044 66.5352 23.4939 64.8931C23.056 63.0594 23.1381 61.5815 23.7402 60.4593C24.6433 58.7899 28.4749 54.2193 35.235 46.7477C42.0224 39.2213 46.4014 34.7192 48.3719 33.2413C50.4793 31.6539 52.2993 30.9012 53.832 30.9834C55.4193 31.0928 56.9657 32.1055 58.4709 34.0213C60.3867 36.4571 63.2741 40.576 67.1331 46.3782C71.6489 53.193 74.3174 57.7225 75.1384 59.9667Z" fill="#0D131A"/>
<path d="M95.7473 26.1802C95.2273 25.2223 94.7209 24.497 94.2283 24.0044C93.8178 23.5938 93.503 23.4159 93.2841 23.4707C93.1472 23.4707 92.9967 23.6075 92.8325 23.8812C92.5315 24.3738 92.2851 25.1538 92.0936 26.2212C91.902 27.316 91.1767 33.6381 89.9178 45.1877C88.9325 54.8214 88.3304 60.1993 88.1114 61.3214C88.0293 61.6772 88.043 61.9783 88.1525 62.2246L88.522 62.5941C88.8777 62.6762 89.1788 62.3478 89.4251 61.6088L92.2988 50.8119L94.1873 43.094C94.4062 42.2729 94.5978 41.8487 94.762 41.8213C94.9536 41.8213 95.2136 42.2182 95.542 43.0118C96.6641 45.7487 98.4568 49.5119 100.92 54.3014C103.876 60.1035 105.723 63.073 106.462 63.2099C107.256 63.3467 108.104 62.8815 109.007 61.8141C109.828 60.8288 110.485 59.5972 110.978 58.1193C111.224 57.353 111.347 56.5593 111.347 55.7382C111.347 54.3698 110.964 53.0835 110.198 51.8793C108.392 48.9782 105.463 43.8603 101.413 36.5255L95.7473 26.1802ZM93.0378 22.0749C94.4883 21.8559 95.7746 22.7728 96.8967 24.8254C103.602 37.2781 108.528 46.0361 111.676 51.0993C113.072 53.3161 113.332 55.793 112.456 58.5298C111.908 60.2267 111.06 61.7867 109.911 63.2099C108.788 64.633 107.844 65.3446 107.078 65.3446C106.147 65.3446 105.272 64.8657 104.45 63.9078C103.219 62.4025 101.454 59.2825 99.1547 54.5477C97.5946 51.3182 96.2262 48.3077 95.0494 45.5161C93.9546 50.0866 92.4904 55.314 90.6567 61.1983C90.383 62.0467 90.0272 62.6762 89.5893 63.0867C89.1514 63.4972 88.6998 63.6341 88.2346 63.4972C87.7693 63.3878 87.4272 63.0593 87.2083 62.512C87.0167 61.9646 86.9756 61.2941 87.0851 60.5004L88.8504 43.3813L90.6978 25.9749C91.1083 23.5391 91.8883 22.2391 93.0378 22.0749Z" fill="#0D131A"/>
<path d="M66.6405 77.0445C67.0511 78.3856 67.1742 79.6035 67.01 80.6982C66.8184 81.7929 66.3942 82.4361 65.7374 82.6277C65.0532 82.8193 64.3416 82.5182 63.6026 81.7245C62.8637 80.9035 62.2889 79.8087 61.8784 78.4403C61.4952 77.0719 61.3858 75.854 61.55 74.7866C61.7415 73.6918 62.1658 73.0487 62.8226 72.8571C63.4795 72.6655 64.1774 72.9803 64.9163 73.8013C65.6826 74.6224 66.2574 75.7034 66.6405 77.0445Z" fill="white"/>
<path d="M98.2508 71.8721C98.9624 70.3121 99.9613 69.1489 101.248 68.3826C102.507 67.6436 103.656 67.5068 104.696 67.972C105.763 68.4647 106.42 69.4363 106.667 70.8868C106.886 72.3373 106.639 73.8426 105.928 75.4026C105.216 76.9626 104.231 78.1258 102.972 78.8921C101.713 79.6311 100.55 79.7542 99.4824 79.2616C98.415 78.7963 97.7582 77.8384 97.5118 76.3879C97.2929 74.9373 97.5392 73.4321 98.2508 71.8721Z" fill="white"/>
</svg>
