<svg width="255" height="208" viewBox="0 0 255 208" fill="none" xmlns="http://www.w3.org/2000/svg">
<path d="M37.6447 89.3286L37.9557 95.8582C33.9876 95.3252 27.7245 95.8434 19.1664 97.4129C14.4284 98.2716 9.24618 99.3969 3.61977 100.789C2.25759 101.144 2.16875 100.833 3.35326 99.8559C4.56738 98.8787 6.58104 97.7534 9.39424 96.4801C17.5673 92.7785 26.9842 90.3947 37.6447 89.3286Z" fill="#FFF1AC"/>
<path d="M40.5322 104.165L43.4194 110.073C39.5402 110.931 33.7805 113.582 26.1404 118.024C21.7874 120.57 17.2566 123.428 12.5482 126.596C11.3933 127.396 11.2008 127.144 11.9707 125.841C12.7703 124.479 14.2657 122.717 16.4571 120.555C22.8534 114.278 30.8784 108.814 40.5322 104.165Z" fill="#FFF1AC"/>
<path d="M38.9334 97.946L39.7774 102.432C37.1123 102.462 33.7216 103.572 29.6054 105.764C27.4437 106.919 24.8674 108.355 21.8765 110.072C21.0178 110.428 20.8253 110.117 21.2991 109.14C21.8025 108.133 22.7945 106.948 24.2752 105.586C28.3913 101.736 33.2774 99.1898 38.9334 97.946Z" fill="#FFF1AC"/>
<path d="M37.7339 91.0608L37.9559 95.858C33.0995 95.2066 25.0448 96.0653 13.792 98.4344C16.6348 96.7464 20.1439 95.2954 24.3193 94.0813C27.5767 93.1337 32.0482 92.1268 37.7339 91.0608Z" fill="#DCD096"/>
<path d="M41.3763 105.942L43.4196 110.073C38.6816 111.139 31.4265 114.692 21.6543 120.733C24.2306 117.831 27.1326 115.181 30.3604 112.782C33.2921 110.62 36.9641 108.34 41.3763 105.942Z" fill="#DCD096"/>
<path d="M39.2444 99.5007L39.7774 102.432C37.3788 102.462 34.4471 103.336 30.9824 105.053C29.0576 106.001 26.5701 107.393 23.52 109.229C27.7842 104.402 33.0257 101.159 39.2444 99.5007Z" fill="#DCD096"/>
<path d="M63.586 150.849C64.8297 148.243 66.0291 146.496 67.1839 145.608C68.6942 144.482 70.5894 144.275 72.8696 144.986C75.0905 145.697 76.8229 146.141 78.0666 146.318L80.8206 146.407L86.9948 156.446L90.5928 165.952C87.5131 167.64 84.3001 167.684 80.9538 166.085C79.9174 165.582 78.9254 164.945 77.9778 164.175L76.8673 163.198L71.6259 171.859C70.5894 173.636 69.5382 173.651 68.4721 171.904C67.406 170.216 67.1247 168.454 67.6281 166.618C68.0131 165.167 68.8275 163.509 70.0712 161.643L72.5586 158.267C72.9436 157.764 72.7955 156.846 72.1145 155.513L71.004 153.648L68.6054 156.357C66.7101 158.193 65.0518 159.244 63.6304 159.511C62.061 159.807 61.3651 159.022 61.5427 157.157C61.6612 155.587 62.3423 153.485 63.586 150.849Z" fill="#C18963"/>
<path d="M68.605 156.357C66.7098 158.193 65.0515 159.244 63.6301 159.511H62.6528C64.1335 158.978 65.6141 157.497 67.0947 155.069C68.5458 152.729 69.8635 151.382 71.048 151.027C72.4991 150.553 74.4683 150.36 76.9558 150.449C79.9466 150.538 81.9159 150.508 82.8635 150.36L87.1277 156.135L90.5036 166.218C87.4238 167.876 84.2257 167.876 80.9091 166.218C79.8726 165.685 78.8806 165.019 77.933 164.219L76.8669 163.197L71.6255 171.859C71.0628 172.836 70.441 173.236 69.7599 173.058C69.1676 172.91 68.6346 172.363 68.1608 171.415C70.0264 169.845 71.2849 168.054 71.9364 166.04C72.6471 163.79 72.3806 161.82 71.1369 160.133L72.5583 158.267C72.9432 157.764 72.7952 156.846 72.1141 155.513L71.0036 153.647L68.605 156.357Z" fill="#986C4C"/>
<path d="M82.775 149.605L88.6383 159.51C86.8319 158.415 85.2625 157.734 83.9299 157.467C82.1828 157.082 80.4504 157.245 78.7329 157.956C77.8741 158.311 77.3707 158.104 77.2226 157.334C77.1338 156.653 77.3411 155.705 77.8445 154.491C79.1771 151.382 80.8206 149.753 82.775 149.605Z" fill="#C18963"/>
<path d="M88.6382 159.511C85.825 157.823 83.3671 157.082 81.2646 157.29C82.4788 156.372 83.1747 155.365 83.3523 154.269C83.53 153.114 83.7965 152.359 84.1519 152.004L88.6382 159.511Z" fill="#986C4C"/>
<path d="M134.079 187.006C133.783 188.131 131.473 189.479 127.15 191.048L120.087 193.269C119.702 193.388 118.977 194.291 117.911 195.979L115.956 199.177C115.63 199.651 114.579 200.317 112.802 201.176C110.966 202.035 109.604 202.464 108.716 202.464C107.946 202.464 108.183 200.406 109.427 196.29L111.514 190.115L109.515 190.648C107.857 191.152 106.258 191.789 104.718 192.558C103.563 193.121 102.171 194.468 100.543 196.601C99.0621 198.525 97.6703 199.651 96.3673 199.976C94.7682 200.361 93.9539 199.725 93.9243 198.066L94.5017 192.869C92.9026 193.166 92.2215 191.803 92.4584 188.783C92.6954 185.851 93.4061 183.956 94.5906 183.097C95.8639 182.209 97.848 181.128 100.543 179.855C103.593 178.433 105.888 177.589 107.428 177.323L134.079 187.006Z" fill="#C18963"/>
<path d="M134.079 187.006C133.783 188.131 131.473 189.479 127.149 191.048L120.087 193.269C119.702 193.387 118.976 194.291 117.91 195.978L115.956 199.177L114.312 200.509L112.136 201.975C112.136 200.613 113.276 198.081 115.556 194.379C117.57 191.122 118.325 189.301 117.821 188.916C116.696 188.057 114.519 188.635 111.292 190.648L109.426 190.781C107.945 191.166 106.376 191.759 104.718 192.558C103.652 193.091 102.571 194.039 101.475 195.401L98.8543 198.555C98.5286 194.35 100.661 190.811 105.251 187.939C109.693 185.866 111.706 184.607 111.292 184.163C110.788 183.66 109.885 183.482 108.582 183.63L106.761 183.985L104.362 184.252C102.319 184.666 100.217 185.451 98.0548 186.606C97.1072 185.718 97.9956 184.252 100.72 182.209C103.504 180.106 104.718 178.788 104.362 178.255C105.043 177.633 105.65 177.308 106.183 177.278L107.427 177.322L134.079 187.006Z" fill="#986C4C"/>
<path d="M236.687 36.2036C244.297 46.7457 249.272 58.6204 251.611 71.8277C254.099 85.8937 253.033 98.7456 248.413 110.383C244.563 120.067 238.419 128.255 229.979 134.947C223.879 139.804 217.038 143.564 209.458 146.23L210.968 119.623C213.751 118.912 216.787 117.194 220.074 114.47C223.716 111.449 226.87 107.777 229.535 103.454C236.435 92.3493 238.508 80.0304 235.754 66.4974C232.556 50.8619 224.827 36.8107 212.567 24.3437C208.155 19.8426 203.476 15.9041 198.531 12.5283C194.533 9.8039 191.275 8.01233 188.758 7.15356C180.881 3.74811 177.15 1.76406 177.565 1.20141C177.802 0.875675 180.408 1.09777 185.383 1.8677C192.193 2.96337 199.315 5.51006 206.748 9.50777C218.415 15.8153 228.395 24.7139 236.687 36.2036Z" fill="#C18963"/>
<path d="M210.968 119.623C212.242 119.297 213.559 118.749 214.922 117.979C218.238 118.838 220.592 120.215 221.984 122.11L223.095 123.887C223.42 124.361 223.82 124.598 224.294 124.598C234.54 123.146 241.825 117.328 246.148 107.141C249.109 100.241 251.093 89.5361 252.1 75.0259C253.877 87.937 252.648 99.7229 248.413 110.383C244.564 120.067 238.419 128.255 229.98 134.947C223.879 139.804 217.039 143.564 209.458 146.23L210.968 119.623Z" fill="#986C4C"/>
<path d="M58.9662 58.4573L44.7521 68.9846C42.4719 66.2899 41.1245 64.4243 40.71 63.3878C40.4434 62.7363 41.3466 61.922 43.4195 60.9448L46.5733 59.701L42.8865 53.5712C40.4286 49.2478 39.1997 46.4346 39.1997 45.1316C39.1997 43.7102 41.8648 43.6065 47.1951 44.8207C52.2589 45.9756 56.2418 47.4118 59.1439 49.1293L58.9662 58.4573Z" fill="#D18200"/>
<path d="M58.5661 56.9914L58.9659 58.4573L52.9693 62.3217C50.4227 60.9299 48.4238 58.9459 46.9728 56.3696C45.5514 53.8229 45.0183 51.291 45.3737 48.7739C47.8315 49.7511 50.2302 50.9653 52.5696 52.4163C54.8794 53.8673 56.8782 55.3924 58.5661 56.9914Z" fill="#C18963"/>
<path d="M58.5664 56.9914L58.9662 58.4573L56.0346 60.3229C54.702 58.635 53.0289 56.9174 51.0152 55.1703C49.0904 53.512 47.1952 52.1202 45.3296 50.9949C45.2407 50.3434 45.2555 49.6031 45.374 48.7739C47.8318 49.7511 50.2305 50.9653 52.5699 52.4163C54.8797 53.8673 56.8785 55.3924 58.5664 56.9914Z" fill="#986C4C"/>
<path d="M202.173 177.5C202.706 178.715 202.395 180.299 201.24 182.253C200.293 183.823 197.805 185.896 193.778 188.472L184.761 193.802C183.902 195.964 182.673 198.096 181.074 200.199C179.386 202.39 177.802 203.856 176.321 204.596C174.87 205.336 174.115 204.27 174.056 201.398C173.967 198.614 174.441 196.393 175.477 194.735C173.523 195.949 170.991 198.037 167.882 200.998L161.885 206.462C160.582 207.38 159.827 206.21 159.62 202.953L159.709 197.844L157.799 198.91C156.111 200.036 154.304 201.664 152.379 203.797C151.461 204.833 150.899 204.063 150.691 201.487C150.484 198.851 150.899 196.571 151.935 194.646C152.942 192.781 154.378 191.122 156.244 189.671C157.695 188.516 159.679 187.317 162.196 186.073L194.311 168.483C198.842 172.925 201.462 175.931 202.173 177.5Z" fill="#C18963"/>
<path d="M164.15 204.596C165.424 199.503 167.511 195.771 170.413 193.402C171.45 192.573 172.768 191.759 174.367 190.959L178.409 189.005C178.142 189.686 177.18 190.945 175.522 192.781C173.982 194.468 173.153 195.697 173.034 196.467C171.702 197.504 170.132 198.881 168.326 200.598L164.15 204.596Z" fill="#986C4C"/>
<path d="M201.729 177.589C202.055 178.567 201.744 180.269 200.796 182.697C200.174 184.385 197.85 186.429 193.822 188.827L184.761 193.802L180.941 199.177C179.135 201.753 177.624 203.397 176.41 204.107C176.825 201.294 177.802 198.377 179.342 195.357C180.734 192.603 182.318 190.264 184.095 188.339C184.687 187.687 186.227 186.562 188.714 184.963C189.869 184.193 190.106 183.231 189.425 182.076C188.329 180.506 186.434 179.366 183.739 178.655C181.489 178.063 179.194 177.856 176.854 178.033L194.311 168.483C198.634 172.718 201.107 175.753 201.729 177.589Z" fill="#986C4C"/>
<path d="M147.671 72.6713C149.329 71.2499 152.453 69.9914 157.043 68.8957L163.44 67.6964C161.989 68.9401 159.812 71.2055 156.91 74.4925C160.76 72.5973 165.231 71.3832 170.325 70.8501C175.655 70.2875 180.052 70.6873 183.517 72.0495C181.474 72.3456 178.942 73.3524 175.921 75.07C172.901 76.7579 171.405 78.0164 171.435 78.8456L180.052 78.4014L185.205 78.8456L180.408 81.644L188.581 82.4435C187.248 82.9173 185.56 83.7761 183.517 85.0198C186.33 85.6713 189.484 87.4481 192.978 90.3501C196.709 93.4594 200.056 97.2647 203.017 101.766C210.45 113.019 213.322 124.849 211.634 137.257C209.769 151.086 202.306 163.049 189.247 173.147C176.069 183.304 161.485 188.235 145.494 187.939C132.109 187.672 120.59 184.711 110.936 179.055C107.916 177.308 105.265 175.383 102.985 173.28L100.453 170.66C100.75 172.703 100.557 173.71 99.876 173.68C99.1949 173.651 97.196 170.26 93.8794 163.508L92.9022 165.685C92.1323 167.136 91.4216 167.861 90.7701 167.861C89.2302 159.244 86.1949 152.433 81.6642 147.429C80.2724 145.859 78.8066 144.571 77.2667 143.564L75.3567 142.498L62.6528 141.565C60.5503 141.565 58.5515 140.869 56.6563 139.478C54.6426 137.938 53.0435 135.761 51.859 132.948C51.326 131.704 50.6153 128.358 49.7269 122.909C49.0162 118.527 47.7725 115.269 45.9957 113.137C41.6426 107.955 38.7554 100.951 37.334 92.1269C36.8306 88.8991 37.3488 85.6713 38.8887 82.4435L41.3317 78.5346L40.3989 76.4914C39.8363 74.9811 39.7326 73.9151 40.088 73.2932C40.5914 72.4344 43.4194 69.9173 48.572 65.742C53.8431 61.4777 57.2041 59.0495 58.6551 58.4572C58.6551 55.7329 58.8328 52.9049 59.1882 49.9732C59.8989 44.0803 61.1574 40.6156 62.9638 39.5792C62.7565 41.8593 62.8601 43.7101 63.2747 45.1315L64.3852 42.6885C65.2736 41.119 66.0435 40.3935 66.695 40.512C66.1916 42.1999 66.0435 44.4652 66.2508 47.3081L66.695 51.0393L69.138 45.1315L69.671 46.3308L70.6927 50.1065C73.0025 46.1088 77.5036 42.4368 84.1961 39.0905C87.5719 37.4322 90.6961 36.1589 93.5685 35.2705C92.2951 36.307 91.0662 37.447 89.8817 38.6908C87.5127 41.2375 86.5799 43.0883 87.0833 44.2432C88.0013 42.9402 89.9705 41.6224 92.991 40.2899L97.2997 38.6464L94.9011 41.1782C93.2427 43.1919 92.2803 45.0279 92.0138 46.6862C96.0411 41.8001 102.645 38.7056 111.825 37.4026C110.788 38.0541 109.352 39.6976 107.516 42.3331L105.029 46.0643L108.138 44.7318C110.359 43.873 111.795 43.5028 112.447 43.6213C111.677 44.3912 111.025 45.7978 110.492 47.8411L109.959 50.7283L147.671 72.6713Z" fill="#D18200"/>
<path d="M92.9914 40.2899L97.3001 38.6464L95.701 40.2454C94.4869 41.578 93.5689 42.8662 92.947 44.1099L90.3263 46.5085L87.6167 48.6406C87.4687 48.3149 87.4538 47.5746 87.5723 46.4197C87.6611 45.5313 87.4835 45.0871 87.0393 45.0871C84.6999 45.0871 81.9311 46.6566 78.7329 49.7955C80.1247 46.3901 82.2568 42.6737 85.1292 38.6464C88.209 37.1657 91.0222 36.0404 93.5689 35.2705C92.2955 36.307 91.0666 37.447 89.8821 38.6908C87.5131 41.2375 86.5803 43.0883 87.0837 44.2432C88.0017 42.9402 89.9709 41.6224 92.9914 40.2899Z" fill="#AB6A00"/>
<path d="M109.026 37.8914L111.825 37.4028C110.788 38.0543 109.352 39.6978 107.516 42.3333L105.029 46.0645L108.138 44.732C110.359 43.8732 111.795 43.503 112.447 43.6215C111.677 44.3914 111.025 45.798 110.492 47.8413L109.959 50.7285L112.624 52.2832C108.538 52.6386 104.155 53.5862 99.4763 55.126C100.246 53.5566 101.816 51.5873 104.185 49.2183H97.0776C98.5287 47.1158 100.365 45.0725 102.586 43.0885C104.244 41.5486 106.391 39.8163 109.026 37.8914Z" fill="#AB6A00"/>
<path d="M64.0744 43.3547C65.0516 41.3114 65.9252 40.3638 66.6951 40.5118C66.014 42.6439 65.94 45.7533 66.473 49.8398C65.7327 51.7054 65.2885 53.2749 65.1404 54.5482C64.104 51.4685 63.7486 47.7373 64.0744 43.3547Z" fill="#AB6A00"/>
<path d="M67.9832 66.1863C66.7099 68.1704 65.1996 71.2353 63.4525 75.3811C61.5869 78.6385 58.7737 80.4597 55.0129 80.8446C51.104 81.2592 49.2532 79.823 49.4605 76.536C49.6085 74.0781 50.3637 72.0052 51.7259 70.3173C52.4958 69.3993 55.6051 68.1704 61.0539 66.6305C66.5322 65.0907 68.842 64.9426 67.9832 66.1863Z" fill="#AB6A00"/>
<path d="M170.68 85.2422C166.652 82.814 161.677 81.052 155.755 79.9564C150.513 79.0088 143.584 78.4313 134.967 78.224C136.98 74.2263 137.839 70.4063 137.543 66.7639L147.671 72.6716C149.329 71.2502 152.453 69.9917 157.043 68.896L163.439 67.6967C161.988 68.9405 159.812 71.2058 156.91 74.4928C160.759 72.5976 165.231 71.3835 170.324 70.8505C175.655 70.2878 180.052 70.6876 183.517 72.0498C181.474 72.3459 178.942 73.3527 175.921 75.0703C172.901 76.7582 171.405 78.0167 171.435 78.8459L180.141 78.4017L185.382 78.8459L180.407 81.6443L188.003 82.4438C187.056 82.9176 185.56 83.7764 183.517 85.0201C186.33 85.6716 189.484 87.4484 192.978 90.3504C196.709 93.4598 200.055 97.265 203.017 101.766C210.45 113.019 213.322 124.849 211.634 137.257C209.768 151.086 202.306 163.05 189.247 173.147C176.069 183.305 161.485 188.235 145.494 187.939L141.363 187.761C151.935 184.415 160.715 178.729 167.704 170.704C173.952 163.538 178.275 155.128 180.674 145.474C181.237 143.194 181.681 138.797 182.007 132.282C182.273 126.833 182.658 123.99 183.161 123.754C183.783 123.487 184.657 124.168 185.782 125.797C186.967 127.544 187.796 128.418 188.27 128.418C188.358 124.213 188.062 120.392 187.381 116.957L186.093 111.449C185.915 110.443 186.123 110.087 186.715 110.383C187.1 110.561 188.462 111.568 190.802 113.404C185.116 99.249 178.409 89.8618 170.68 85.2422Z" fill="#AB6A00"/>
<path d="M147.227 74.2707C145.006 81.8516 139.069 85.4347 129.415 85.0202C123.759 84.7833 118.547 83.6876 113.78 81.7331C109.19 79.8675 105.607 77.4689 103.03 74.5373C100.395 71.5168 99.1806 68.363 99.3879 65.076C99.6248 61.5225 101.505 58.1763 105.029 55.0373C113.084 47.871 120.798 42.4519 128.171 38.7799C136.729 34.5157 144.044 33.0351 150.114 34.338C149.907 36.5886 148.678 40.4975 146.428 46.0647L150.47 49.2184C153.135 51.4394 154.468 52.8608 154.468 53.4826C154.468 54.5191 152.202 57.6136 147.671 62.7662L148.071 66.4086C148.19 69.281 147.908 71.9017 147.227 74.2707Z" fill="#D18200"/>
<path d="M109.293 64.9424C109.944 62.6326 112.654 59.3604 117.422 55.1258C122.1 50.9504 126.898 47.4709 131.813 44.6873C134.923 42.9402 137.988 43.8433 141.008 47.3969C143.851 50.7135 145.272 54.3558 145.272 58.3239C145.272 64.0392 143.866 68.8068 141.053 72.6269C137.973 76.8319 133.857 78.8159 128.704 78.579C122.071 78.2829 117.733 76.7875 115.689 74.0927C113.942 70.3023 111.81 67.2522 109.293 64.9424Z" fill="#C18963"/>
<path d="M139.631 45.9755C133.709 50.299 128.66 54.5632 124.484 58.7682C119.598 63.6839 116.341 68.1406 114.712 72.1383C113.38 69.5028 111.573 67.1486 109.293 65.0757C109.944 62.7659 112.654 59.4641 117.422 55.1703C122.13 50.9357 126.927 47.4414 131.813 44.6874C134.36 43.266 136.966 43.6954 139.631 45.9755Z" fill="#986C4C"/>
<path d="M150.114 105.098C153.934 106.519 155.874 107.615 155.933 108.385L151.98 108.518C147.656 107.422 140.89 106.312 131.68 105.186C119.48 103.676 110.181 103.336 103.785 104.165C105.058 105.023 106.894 106.593 109.293 108.873C112.462 111.894 113.913 113.937 113.646 115.003L111.825 120.866L104.718 124.553L108.183 124.775L111.736 124.908H113.957L109.648 126.73L114.49 126.952L119.376 127.174L123.241 127.662L127.771 130.283C131.029 132.415 133.235 134.399 134.39 136.235C134.804 136.916 135.619 140.055 136.833 145.652C137.751 149.946 139.276 152.241 141.408 152.537C147.656 153.425 152.365 154.373 155.533 155.38C159.353 156.594 162.344 158.282 164.506 160.444L158.598 159.466C157.058 159.2 156.362 159.259 156.51 159.644L160.553 162.576C162.685 164.086 163.914 165.507 164.239 166.84C164.387 167.432 164.328 167.743 164.062 167.773C163.647 167.832 163.395 168.202 163.307 168.883L164.417 172.703C164.861 174.628 164.95 176.198 164.684 177.412C163.795 181.232 161.752 184.43 158.554 187.006C154.467 187.717 150.114 188.028 145.494 187.939C132.11 187.672 120.605 184.682 110.981 178.966C107.96 177.16 105.31 175.206 103.03 173.103L100.542 170.438C100.691 172.54 100.542 173.681 100.098 173.858C99.6837 174.036 97.6108 170.586 93.8796 163.509L92.9024 165.685C92.1324 167.136 91.4217 167.862 90.7703 167.862C89.2304 159.244 86.1951 152.433 81.6644 147.429C80.2726 145.859 78.8067 144.571 77.2669 143.564L75.3569 142.498L62.653 141.566C60.5505 141.566 58.5517 140.87 56.6564 139.478C54.6428 137.938 53.0437 135.761 51.8592 132.948C51.3262 131.705 50.6155 128.358 49.7271 122.91C49.0164 118.527 47.7726 115.269 45.9959 113.137C41.6428 107.955 38.7556 100.952 37.3342 92.1272C36.9788 90.1135 37.0973 87.8629 37.6895 85.3755C38.4002 82.4438 39.6143 80.1636 41.3319 78.5349L39.4219 75.0258C39.1553 74.3448 39.2294 73.8265 39.644 73.4712L40.8433 72.3163L41.3319 71.7388C42.2499 72.2126 43.7157 72.3607 45.7294 72.183C47.7134 72.0053 49.4902 71.6056 51.0596 70.9837C52.4811 70.4211 53.8136 70.7024 55.0574 71.8277C56.0938 72.7457 56.7601 73.871 57.0562 75.2035C57.3227 76.5657 58.0038 77.8391 59.0995 79.0236L60.6542 80.3561L70.5596 80.0008C77.6963 80.2081 82.686 81.4666 85.5288 83.7764C88.342 81.6739 91.6734 79.7787 95.5231 78.0908C98.6916 76.7286 101.549 75.7514 104.096 75.1591C108.923 74.0634 114.224 73.3675 119.998 73.0714C124.884 72.8049 130.836 72.8049 137.854 73.0714C141.201 73.1899 143.17 73.486 143.762 73.9598C144.295 74.404 143.436 74.7889 141.186 75.1147C133.398 75.9438 126.054 76.9951 119.154 78.2684C105.739 80.7263 96.6928 83.7024 92.014 87.1967C96.8409 86.2194 101.357 85.6124 105.562 85.3755C113.765 84.8721 122.234 85.3755 130.969 86.8857C133.22 87.2707 134.449 87.7741 134.656 88.396C134.834 89.0178 133.916 89.3288 131.902 89.3288C124.114 89.3288 118.739 89.4176 115.778 89.5953C106.213 90.0987 99.2247 91.3276 94.8124 93.2821C96.2338 94.1112 97.8773 95.1625 99.7429 96.4358L116.8 97.7684C129.948 99.3379 141.053 101.781 150.114 105.098Z" fill="#FFF1AC"/>
<path d="M87.9714 87.9073C89.3928 86.5451 91.2584 85.0496 93.5682 83.4209C99.8757 78.979 106.494 75.692 113.424 73.5599C119.761 72.8492 127.904 72.6863 137.854 73.0713C141.2 73.1897 143.169 73.4859 143.762 73.9597C144.295 74.4039 143.436 74.7888 141.185 75.1146C133.901 75.9141 126.957 76.8913 120.353 78.0462C107.56 80.3264 98.5876 83.0508 93.4349 86.2193C89.4668 89.1806 87.1423 90.4688 86.4612 90.0838C86.165 89.9061 86.6684 89.1806 87.9714 87.9073Z" fill="#DCD096"/>
<path d="M117.555 85.3311C121.908 85.568 126.379 86.0862 130.969 86.8857C133.22 87.2707 134.449 87.7741 134.656 88.396C134.834 89.0178 133.916 89.3288 131.902 89.3288C124.647 89.3288 119.287 89.4324 115.822 89.6397C106.287 90.2023 99.2985 91.4609 94.8566 93.4153C96.3076 94.2445 97.9363 95.2513 99.7427 96.4358C99.8612 96.5246 99.8612 96.6135 99.7427 96.7023L97.5218 96.88L90.1926 96.1249C88.0013 95.7399 86.95 95.2957 87.0389 94.7923C87.2166 93.9039 91.0218 92.2308 98.4546 89.773C106.272 87.1967 112.639 85.716 117.555 85.3311Z" fill="#DCD096"/>
<path d="M150.114 105.097C153.993 106.371 155.948 107.437 155.977 108.296C156.007 109.125 154.674 109.199 151.98 108.518C147.656 107.422 140.89 106.312 131.68 105.186C119.48 103.676 110.181 103.335 103.785 104.165C105.058 105.023 106.894 106.593 109.293 108.873C112.461 111.894 113.912 113.937 113.646 115.003L112.447 119.001C108.982 112.16 105.088 107.925 100.764 106.297C99.5799 105.853 98.1733 105.556 96.5446 105.408C95.2121 105.29 94.4125 105.112 94.146 104.875C93.2576 104.017 97.1221 102.847 105.739 101.366C114.594 99.8263 121.775 99.2193 127.283 99.545C135.337 100.878 142.948 102.728 150.114 105.097Z" fill="#DCD096"/>
<path d="M96.5444 167.906C97.4328 167.817 98.0399 166.07 98.3656 162.665C98.6321 159.851 99.0023 158.889 99.4761 159.777L101.964 166.573C103.237 170.275 104.673 173.31 106.272 175.679L101.697 171.904L100.409 170.616L100.098 173.991L96.5444 167.906Z" fill="#DCD096"/>
<path d="M49.1049 77.0247L51.2814 70.8949C52.614 70.4507 53.8726 70.7912 55.0571 71.9165C56.0047 72.8049 56.6709 73.9006 57.0559 75.2035C57.4705 76.6545 58.5958 78.3721 60.4318 80.3561L60.2541 80.445L60.4318 80.5338L53.3691 81.2889L49.7268 81.0668C48.7199 80.5634 48.5127 79.216 49.1049 77.0247Z" fill="#DCD096"/>
<path d="M102.052 139.878C103.888 141.181 104.821 142.143 104.851 142.765C104.851 143.239 104.303 143.609 103.207 143.875L100.32 144.586C99.4019 144.971 99.1206 145.563 99.4759 146.363C100.039 147.725 98.2914 147.059 94.2345 144.364L90.9919 142.321C90.3997 142.025 90.7106 142.484 91.9247 143.698C94.2345 146.008 93.4202 146.452 89.4817 145.03L82.9077 142.232L80.3313 141.432C78.8803 140.87 78.8063 140.544 80.1093 140.455C81.1753 140.396 84.2106 139.552 89.2152 137.923C94.427 136.857 98.706 137.509 102.052 139.878Z" fill="#DCD096"/>
<path d="M164.683 177.412C163.588 182.15 161.322 185.333 157.887 186.962C153.682 187.702 149.551 188.028 145.494 187.939L135.767 187.184C140.475 186.977 145.243 185.896 150.07 183.941C155.4 181.75 160.301 178.67 164.772 174.702C164.861 175.798 164.831 176.701 164.683 177.412Z" fill="#DCD096"/>
<path d="M147.982 148.672C145.79 151.16 143.333 153.025 140.608 154.269C137.588 155.661 135.056 155.839 133.013 154.802C131.858 154.24 130.244 152.996 128.171 151.071C126.749 149.738 125.521 149.25 124.484 149.605C123.359 150.642 122.322 152.033 121.375 153.781C120.723 154.995 120.116 155.557 119.554 155.469C118.251 155.32 117.599 153.633 117.599 150.405C117.599 147.147 118.354 145.03 119.864 144.053C121.286 143.135 123.507 142.661 126.527 142.631L130.658 142.809C130.806 141.832 130.792 140.751 130.614 139.566C130.259 137.197 129.237 135.495 127.549 134.458C126.601 134.666 125.195 135.376 123.329 136.59C121.849 137.568 120.886 137.893 120.442 137.568C119.139 136.561 119.169 134.784 120.531 132.237C121.863 129.661 123.699 127.825 126.039 126.729C128.289 125.693 130.377 125.53 132.302 126.241C134.138 126.922 135.441 128.225 136.211 130.15C136.862 131.69 137.765 133.229 138.92 134.769L141.186 137.568C141.778 138.397 143.629 139.019 146.738 139.433L148.071 137.301C149.077 135.909 149.966 135.273 150.736 135.391C151.802 135.569 152.823 136.072 153.801 136.901C154.926 137.849 155.563 138.9 155.711 140.055C155.888 141.358 155.518 143.49 154.6 146.451C153.653 149.472 152.779 151.145 151.979 151.471C150.321 152.122 149.151 151.856 148.47 150.671L147.982 148.672Z" fill="#C18963"/>
<path d="M129.593 125.841C131.103 125.782 132.45 126.152 133.635 126.952C134.79 127.692 135.649 128.758 136.211 130.15C136.863 131.69 137.766 133.23 138.921 134.77L141.186 137.568C141.423 137.894 142.193 138.293 143.496 138.767L146.472 139.656C144.873 141.225 143.185 142.069 141.408 142.188C139.424 142.365 137.87 141.566 136.744 139.789C136.33 139.049 135.945 137.909 135.589 136.369L134.701 132.282C133.753 128.936 132.051 126.789 129.593 125.841Z" fill="#986C4C"/>
<path d="M155.711 140.055C155.889 141.358 155.518 143.49 154.6 146.451C153.653 149.472 152.779 151.145 151.98 151.471L150.247 151.782C151.521 148.821 152.202 145.83 152.291 142.809C152.379 139.256 151.476 136.901 149.581 135.747C149.996 135.48 150.381 135.362 150.736 135.391C151.802 135.569 152.824 136.072 153.801 136.901C154.926 137.849 155.563 138.9 155.711 140.055Z" fill="#986C4C"/>
<path d="M147.404 143.698C147.404 145.03 147.612 146.674 148.026 148.628C145.776 151.086 143.303 152.937 140.608 154.181C137.529 155.602 134.997 155.809 133.013 154.803C131.858 154.24 130.244 152.996 128.171 151.071C126.75 149.739 125.521 149.25 124.484 149.605C123.359 150.642 122.322 152.034 121.375 153.781C120.723 154.995 120.116 155.558 119.554 155.469L120.22 154.625C120.783 153.855 121.094 153.07 121.153 152.271C121.242 151.412 121.464 150.657 121.819 150.005L123.329 147.74C124.958 145.4 128.66 146.348 134.434 150.583C135.826 151.619 138.269 151.145 141.763 149.161C145.139 147.207 147.019 145.386 147.404 143.698Z" fill="#986C4C"/>
<path d="M85.3066 61.2556C86.2838 61.7294 87.2018 62.9879 88.0606 65.0312C88.9786 67.2818 89.097 69.1474 88.4159 70.628C88.0902 70.8945 84.7144 71.6645 78.2884 72.9378C71.8921 74.2111 68.2349 75.2476 67.3169 76.0471C69.7451 71.1906 73.2394 67.2374 77.7998 64.1872C81.5902 61.6109 84.0925 60.6337 85.3066 61.2556Z" fill="white"/>
<path d="M77.7998 64.1872C81.5902 61.6109 84.0925 60.6337 85.3066 61.2556C85.8692 61.5221 86.5059 62.2328 87.2166 63.3877C79.7838 65.964 74.1722 69.7544 70.3818 74.759C68.7235 75.2624 67.7019 75.6918 67.3169 76.0471C69.7451 71.1906 73.2394 67.2374 77.7998 64.1872Z" fill="#DBDCDC"/>
<path d="M55.7234 129.261C54.2427 126.33 53.1767 122.302 52.5252 117.179C52.2883 115.373 52.2587 113.996 52.4364 113.048L52.7917 112.204L51.548 111.893C50.8965 111.745 49.5195 109.865 47.417 106.252C45.2849 102.551 43.9523 99.693 43.4193 97.6793C42.5901 94.6292 42.2792 92.6896 42.4865 91.8604C42.8122 90.6463 44.1892 89.6099 46.6175 88.7511C49.1049 87.8923 52.081 87.5814 55.5457 87.8183C58.8031 88.0552 60.8019 88.5734 61.5423 89.373C64.6516 92.808 68.3532 97.4424 72.647 103.276C77.6812 110.146 80.3463 114.559 80.6424 116.513C80.8793 117.934 80.4796 120.896 79.4431 125.397C78.4067 129.898 77.5035 132.682 76.7336 133.748C76.0229 134.725 73.7427 135.302 69.893 135.48L60.9648 135.08C58.8031 133.836 57.0559 131.897 55.7234 129.261Z" fill="white"/>
<path d="M67.406 122.154L61.9868 113.803C61.6315 113.27 60.8319 112.663 59.5882 111.982C58.8775 111.627 58.9515 111.375 59.8103 111.227C60.6987 111.079 61.1281 108.37 61.0985 103.098C61.0688 95.6657 61.1577 91.0313 61.365 89.1953L61.5426 89.373C64.652 92.8081 68.3536 97.4424 72.6474 103.276C77.6816 110.146 80.3467 114.559 80.6428 116.513C80.8501 117.786 80.5244 120.407 79.6656 124.375C78.8365 128.284 78.0073 131.127 77.1781 132.904C74.2465 130.801 70.9891 127.218 67.406 122.154Z" fill="#DBDCDC"/>
<path d="M68.6939 118.734L62.8751 110.694C62.8454 108.74 62.9491 106.593 63.186 104.253C63.6302 99.5746 64.5038 96.2875 65.8067 94.3923C69.3602 98.8046 72.4992 102.98 75.2235 106.918C78.5994 111.775 80.4058 114.973 80.6427 116.513C80.7611 117.342 80.6279 118.926 80.2429 121.266C79.8875 123.368 79.4137 125.589 78.8215 127.929C76.4229 127.277 73.047 124.212 68.6939 118.734Z" fill="#922F00"/>
<path d="M37.5562 88.7512L37.6895 89.9505C29.7237 90.7205 22.2317 92.3344 15.2135 94.7922C9.94239 96.6282 6.19639 98.3902 3.97544 100.078C20.3809 96.0211 31.7225 94.4072 38.0004 95.2364L37.8672 96.4357C34.284 95.9323 28.7465 96.3321 21.2544 97.635C16.013 98.5234 10.1941 99.7671 3.79776 101.366C1.75449 102.107 0.599592 102.255 0.333078 101.81C0.0369508 101.366 0.880912 100.507 2.86496 99.2341C7.09958 96.569 11.0973 94.5701 14.8581 93.2375C20.751 91.1647 28.3171 89.6692 37.5562 88.7512Z" fill="#0D131A"/>
<path d="M40.2661 103.632L40.7547 104.698C33.5588 108.192 27.0885 112.293 21.3436 117.002C17.0201 120.555 14.1033 123.502 12.593 125.841C17.3311 122.673 21.847 119.845 26.1409 117.357C33.6921 112.974 39.4073 110.354 43.2866 109.495L43.5531 110.65C39.6442 111.509 33.8253 114.203 26.0964 118.734C21.5065 121.399 17.0942 124.183 12.8596 127.085L10.9051 128.417C9.95752 128.832 9.82426 128.314 10.5054 126.863C11.9268 123.813 14.8288 120.437 19.2115 116.735C24.7194 112.116 31.7376 107.748 40.2661 103.632Z" fill="#0D131A"/>
<path d="M38.8444 97.3684L39.0665 98.5233C34.6838 99.4709 30.6713 101.322 27.0289 104.076C24.3046 106.119 22.5574 107.911 21.7875 109.45L25.4299 107.452L32.2704 103.765C35.1428 102.491 37.6451 101.855 39.7772 101.855V103.01C37.8228 103.039 35.4538 103.676 32.6702 104.92C31.1303 105.601 28.9093 106.785 26.0073 108.473L22.0984 110.605C20.6178 111.375 19.7738 111.745 19.5665 111.716C19.2704 111.657 19.4481 110.961 20.0996 109.628C21.3137 107.081 23.4014 104.757 26.3627 102.654C29.8273 100.196 33.9879 98.4345 38.8444 97.3684Z" fill="#0D131A"/>
<path d="M62.8751 150.76C64.0892 148.184 65.3034 146.392 66.5175 145.385C68.2943 143.934 70.4708 143.609 73.0471 144.408C75.2977 145.119 77.0152 145.563 78.1997 145.741L80.776 145.83L80.8204 147.029L77.9332 146.896L72.6917 145.563C70.6188 144.912 68.9161 145.06 67.5835 146.007C66.4583 146.836 65.3034 148.539 64.1189 151.116C63.1713 153.159 62.6975 155.054 62.6975 156.801C62.6975 158.341 62.9788 159.052 63.5414 158.933C64.7851 158.696 66.2806 157.63 68.0277 155.735C69.7157 153.721 70.7669 152.552 71.1815 152.226L75.0904 152.093C75.6234 152.359 75.8011 152.581 75.6234 152.759L74.3797 152.715L72.7806 152.848C72.1883 153.026 71.8182 153.277 71.6701 153.603C73.358 155.913 73.817 157.586 73.0471 158.622L70.915 161.598C69.4047 163.819 68.4867 165.537 68.161 166.751C67.8353 167.936 68.0574 169.238 68.8273 170.66C69.5972 172.111 70.4116 172.333 71.2703 171.326C71.7145 170.793 72.5881 169.15 73.8911 166.396C75.0459 163.967 76.0232 162.502 76.8227 161.998C77.8888 161.347 78.5254 161.169 78.7327 161.465C78.9104 161.791 78.5995 162.235 77.7999 162.798C78.481 163.005 79.9913 163.938 82.3307 165.596C84.9366 166.869 87.661 166.721 90.5038 165.152L91.0812 166.218C88.8603 168.32 86.0767 168.765 82.7304 167.551C80.8648 166.869 78.9548 165.729 77.0004 164.13L72.8694 171.948C72.6029 172.422 72.1291 172.836 71.448 173.192C70.7077 173.547 70.0118 173.666 69.3603 173.547C68.2943 173.369 67.4503 172.585 66.8284 171.193C66.1769 169.712 66.0881 168.098 66.5619 166.351C66.9469 165.048 67.7612 163.538 69.005 161.821L71.6701 158.445L72.1587 157.556C72.1587 156.846 71.7589 155.868 70.9594 154.625C69.3603 156.579 67.6576 158.149 65.8512 159.333C64.2521 160.399 63.1861 160.799 62.653 160.532C61.587 159.97 61.0688 158.859 61.0984 157.201C61.0984 155.454 61.6906 153.307 62.8751 150.76Z" fill="#0D131A"/>
<path d="M79.3542 151.027C80.4795 149.783 81.6048 149.117 82.73 149.028L82.8189 150.227C81.9601 150.286 81.0569 150.864 80.1093 151.959C79.2506 152.937 78.5991 154.062 78.1549 155.335C77.8884 156.164 77.844 156.698 78.0216 156.934L79.754 156.979C81.3234 156.564 82.9521 156.579 84.6401 157.023C85.8542 157.379 87.2904 158.03 88.9487 158.978L88.3268 159.999C86.3724 158.844 84.6993 158.163 83.3075 157.956C82.0638 157.749 80.7904 157.912 79.4875 158.445C78.4214 158.889 77.6367 158.77 77.1332 158.089C76.6002 157.379 76.5706 156.327 77.0444 154.936C77.5478 153.455 78.3178 152.152 79.3542 151.027Z" fill="#0D131A"/>
<path d="M134.701 187.184C134.434 188.191 133.383 189.197 131.547 190.204C129.474 191.3 126.276 192.47 121.952 193.713L121.286 193.891C121.079 194.01 120.65 194.691 119.998 195.934L117.91 199.399C116.311 201.531 113.957 202.893 110.848 203.486C109.456 203.752 108.449 203.663 107.827 203.219C107.324 202.864 106.968 202.138 106.761 201.043C106.613 200.184 106.924 198.703 107.694 196.601L109.782 191.093C108.775 191.389 107.176 192.085 104.984 193.18C104.363 193.506 103.77 194.069 103.208 194.868L101.786 196.956L99.6985 199.621C98.8102 200.598 97.8922 201.205 96.9446 201.442C95.4935 201.798 94.3831 201.353 93.6131 200.11C92.9024 198.984 92.7396 196.852 93.1245 193.713L91.8364 193.625C91.4514 193.151 91.1701 192.292 90.9924 191.048C90.8147 189.686 90.9924 188.028 91.5254 186.073C92.0585 184.089 92.6803 182.846 93.391 182.342C94.5459 181.513 96.7077 180.447 99.8762 179.144C103.104 177.782 105.577 176.938 107.294 176.612L108.183 177.723C106.643 178.019 104.289 178.907 101.12 180.388C98.2475 181.72 96.2042 182.816 94.9901 183.675C94.309 184.148 93.776 185.318 93.391 187.184C92.9765 189.109 92.9765 190.574 93.391 191.581C93.4799 191.759 93.8204 191.3 94.4127 190.204C95.2122 188.724 96.0562 187.628 96.9446 186.917C98.2475 185.91 100.232 184.963 102.897 184.074C105.71 183.127 107.309 183.008 107.694 183.719C107.398 184.015 105.932 184.637 103.296 185.585C100.542 186.532 98.5436 187.554 97.2999 188.65C95.8785 189.893 95.0049 191.951 94.6792 194.824C94.3831 197.371 94.4719 198.851 94.9457 199.266L96.1894 199.31C96.9594 199.133 97.6997 198.718 98.4104 198.066L100.232 195.89C102.304 193.136 103.978 191.448 105.251 190.826C108.893 189.02 113.276 187.465 118.399 186.162L120.531 186.207L119.732 186.917L116.178 188.028C113.75 188.916 112.402 189.686 112.136 190.338C111.366 192.114 110.64 194.054 109.959 196.156C108.893 199.325 108.553 201.117 108.938 201.531C109.352 201.975 110.492 201.724 112.358 200.776L115.378 198.777L116 197.756C117.984 194.528 119.273 192.81 119.865 192.603L120.62 192.381C128.763 190.041 133.028 188.191 133.413 186.828L134.701 187.184Z" fill="#0D131A"/>
<path d="M236.42 66.3639C237.19 70.184 237.575 73.9003 237.575 77.5131C237.575 87.078 235.087 95.8433 230.113 103.809C227.329 108.281 224.086 112.056 220.385 115.136C217.068 117.831 213.988 119.533 211.146 120.244L210.479 117.579C213.411 116.839 216.254 115.506 219.008 113.581C222.561 111.064 225.626 107.733 228.202 103.587C231.045 98.9675 233.074 93.9037 234.288 88.3958C235.887 81.1999 235.931 73.8559 234.421 66.3639C231.578 52.3571 225.3 39.8161 215.587 28.741C207.74 19.8276 198.708 12.839 188.492 7.77521C186.567 6.8276 182.999 5.27294 177.787 3.11121C175.684 2.25244 174.944 1.52693 175.566 0.93468C176.277 0.283201 177.92 0.031493 180.496 0.179556L186.493 0.93468C192.416 1.88229 199.019 4.29572 206.304 8.17498C218.504 14.7194 228.943 24.0178 237.619 36.0701C245.023 46.3161 250.042 57.8503 252.677 70.6726C255.698 85.3308 254.795 98.7454 249.968 110.916C245.97 120.925 239.426 129.513 230.335 136.679C223.82 141.832 216.831 145.711 209.369 148.317L209.946 145.119C217.29 142.543 223.82 139.019 229.535 134.547C237.797 128.062 243.882 119.918 247.791 110.117C252.529 98.1531 253.492 84.9755 250.679 70.5837C248.161 57.9095 243.305 46.5826 236.109 36.6032C227.581 24.7285 217.216 15.667 205.016 9.41871C197.968 5.77635 191.379 3.49618 185.249 2.57818L181.029 1.9119C179.342 1.73422 179.016 1.9119 180.052 2.44493L189.025 6.53148C199.389 11.2103 208.732 18.2877 217.053 27.7638C227.033 39.135 233.488 52.0018 236.42 66.3639Z" fill="#0D131A"/>
<path d="M38.3557 43.3995C39.8363 42.5407 43.0641 42.748 48.039 44.0213C52.8659 45.2354 56.6711 46.7309 59.4547 48.5076L58.7884 49.707C56.301 48.2263 52.8067 46.9234 48.3056 45.7981C43.7748 44.6728 41.006 44.4063 39.9992 44.9985L39.8659 45.1318C39.8659 46.109 40.8284 48.404 42.7532 52.0167C44.5003 55.3038 45.9662 57.732 47.1507 59.3015C48.0094 60.4564 48.2167 60.9746 47.7725 60.8561L46.7953 60.3231C45.4627 60.7673 44.2338 61.2855 43.1085 61.8778C42.0129 62.4404 41.4354 62.8698 41.3762 63.1659C41.6723 63.9062 42.9605 65.6978 45.2406 68.5406L44.219 69.429L41.7315 67.0748C40.1917 65.5646 39.2589 64.3356 38.9331 63.388C38.637 62.4996 40.8432 61.1375 45.5516 59.3015L40.8876 52.1056C38.6666 48.404 37.5562 45.9461 37.5562 44.732C37.5562 44.1694 37.8227 43.7252 38.3557 43.3995Z" fill="#0D131A"/>
<path d="M43.1976 48.8181C41.9835 48.522 41.6577 48.2999 42.2204 48.1519L44.5746 48.4184C47.0917 49.1587 49.6532 50.2247 52.2591 51.6165C55.2796 53.2452 57.3228 54.7999 58.3889 56.2805L57.9447 57.2578C57.0267 55.9548 54.6133 54.2669 50.7044 52.194C47.3286 50.3876 44.8263 49.2623 43.1976 48.8181Z" fill="#0D131A"/>
<path d="M236.109 43.3108C237.323 43.0443 238.582 43.222 239.885 43.8439C241.099 44.4065 242.254 45.3097 243.35 46.5534V47.7083C242.372 46.6127 241.262 45.7687 240.018 45.1765C238.745 44.5842 237.59 44.4065 236.554 44.6434C235.132 44.9395 233.77 45.7243 232.467 46.9976C231.46 48.0341 230.838 48.9076 230.601 49.6184L230.113 48.9076C230.409 47.96 231.016 46.968 231.934 45.9316C233.178 44.5102 234.57 43.6366 236.109 43.3108Z" fill="#0D131A"/>
<path d="M240.507 57.7022C239.204 58.1168 238.093 58.7682 237.175 59.6566C236.228 60.545 235.68 61.463 235.532 62.4106L234.644 62.2773C234.821 61.1224 235.458 59.9675 236.554 58.8126C237.708 57.5689 238.982 56.725 240.374 56.2808L244.904 56.414C246.267 56.9174 247.54 57.8058 248.724 59.0792L248.103 59.6566C247.096 58.6202 245.926 57.9243 244.593 57.5689L240.507 57.7022Z" fill="#0D131A"/>
<path d="M245.126 67.6523C246.518 67.6523 247.806 68.0521 248.991 68.8517C250.145 69.6216 251.078 70.658 251.789 71.961L251.434 72.5829C250.812 71.4576 249.938 70.5692 248.813 69.9177C247.688 69.2662 246.503 68.9405 245.259 68.9405C243.69 68.9109 242.061 69.3699 240.373 70.3175C238.656 71.2947 237.412 72.4496 236.642 73.7822L236.82 72.1831C237.619 70.7321 238.789 69.6068 240.329 68.8072C241.78 68.0373 243.379 67.6523 245.126 67.6523Z" fill="#0D131A"/>
<path d="M244.327 108.251C243.024 106.09 241.291 104.476 239.13 103.41C237.471 102.581 235.68 102.196 233.755 102.255C231.919 102.284 230.423 102.684 229.269 103.454L229.313 102.255C230.557 101.426 232.274 101.026 234.466 101.055C236.657 101.115 238.671 101.603 240.507 102.521C244.8 104.713 247.021 108.666 247.169 114.381L246.37 114.959C246.311 112.56 245.63 110.324 244.327 108.251Z" fill="#0D131A"/>
<path d="M224.072 110.872C225.168 110.28 226.619 110.072 228.425 110.25C230.32 110.428 232.112 111.035 233.8 112.071C235.488 113.108 236.82 114.559 237.797 116.424C239.189 119.03 239.678 122.169 239.263 125.841L238.286 126.596C238.345 123.043 237.738 119.978 236.465 117.401C235.428 115.299 234.096 113.744 232.467 112.737C230.987 111.819 229.254 111.316 227.27 111.227C225.523 111.168 224.146 111.405 223.139 111.938L224.072 110.872Z" fill="#0D131A"/>
<path d="M217.542 116.735L218.475 115.802C219.896 116.01 221.362 116.543 222.872 117.401C224.649 118.408 226.1 119.696 227.225 121.266C228.617 123.161 229.461 125.249 229.757 127.529C230.083 129.898 229.861 132.859 229.091 136.413L228.203 136.235C229.446 130.076 228.78 125.219 226.204 121.666C225.167 120.215 223.716 119.03 221.851 118.112C220.4 117.401 218.963 116.942 217.542 116.735Z" fill="#0D131A"/>
<path d="M211.234 120.866L211.545 120.022C215.987 121.562 218.934 124.02 220.385 127.396C221.273 129.498 221.614 131.912 221.406 134.636C221.199 137.183 220.548 139.655 219.452 142.054L218.208 142.454C219.215 140.233 219.807 137.79 219.985 135.125C220.163 132.311 219.837 129.913 219.008 127.929C217.497 124.494 214.906 122.14 211.234 120.866Z" fill="#0D131A"/>
<path d="M193.867 168.972L195.377 167.595C199.967 172.096 202.647 175.59 203.417 178.078C204.009 180.032 203.446 181.942 201.729 183.808C200.87 184.785 199.004 186.192 196.132 188.028C193.526 189.716 190.846 191.3 188.092 192.781L186.182 193.802C184.05 197.563 182.066 200.45 180.23 202.464C178.157 204.774 176.44 205.751 175.077 205.396C174.307 205.188 173.774 204.122 173.478 202.197C173.153 200.332 173.197 198.451 173.612 196.556C172.664 197.267 171.687 198.214 170.68 199.399L167.881 202.464L164.95 205.351L162.418 207.572C161.737 208.046 161.115 208.12 160.552 207.794C159.901 207.409 159.353 206.432 158.909 204.863C158.405 203.175 158.213 201.294 158.331 199.221C157.798 199.547 157.102 200.213 156.244 201.22L153.534 204.107C152.912 204.67 152.32 204.951 151.757 204.951C151.017 204.951 150.425 204.389 149.981 203.263C149.536 202.109 149.477 200.539 149.803 198.555C150.099 196.778 150.617 195.209 151.358 193.847C152.364 191.981 153.83 190.412 155.755 189.138C156.377 188.724 158.331 187.687 161.618 186.029L163.928 186.207C159.486 188.427 156.347 190.648 154.511 192.869C153.564 194.024 152.897 195.076 152.512 196.023C152.128 196.941 151.831 198.126 151.624 199.577C151.417 201.146 151.491 202.079 151.846 202.375C152.231 202.73 152.971 202.257 154.067 200.954L157.043 197.844L158.465 196.601C158.998 195.327 159.501 194.409 159.975 193.847C160.745 192.899 162.018 191.892 163.795 190.826C164.683 190.293 165.69 189.938 166.815 189.76C167.941 189.553 167.985 189.73 166.949 190.293C165.29 191.181 164.061 191.981 163.262 192.692C161.811 193.965 160.922 195.505 160.597 197.311C160.241 199.295 160.167 201.22 160.375 203.086C160.612 204.892 160.982 205.84 161.485 205.929C161.811 205.988 163.647 204.241 166.993 200.687C170.635 196.808 173.004 194.543 174.1 193.891C174.426 193.032 174.974 192.099 175.744 191.093C177.283 189.079 179.208 187.687 181.518 186.917C183.147 186.384 183.976 186.177 184.006 186.295L182.362 187.628C179.075 190.056 177.032 192.218 176.232 194.113C175.403 196.038 174.929 197.992 174.811 199.976C174.722 201.99 175.048 203.234 175.788 203.708C176.44 204.122 177.846 202.864 180.008 199.932C181.696 197.622 183.043 195.505 184.05 193.58C184.82 192.099 185.575 190.885 186.315 189.938C186.937 189.138 187.322 188.783 187.47 188.872C187.678 188.961 187.752 189.271 187.692 189.804C187.663 190.397 187.47 191.093 187.115 191.892C189.395 190.678 192.016 188.931 194.977 186.651C197.909 184.371 199.774 182.653 200.574 181.498C201.462 180.195 201.595 178.863 200.974 177.5C200.144 175.635 197.775 172.792 193.867 168.972Z" fill="#0D131A"/>
<path d="M157.265 75.159L156.022 75.8253C155.341 76.0029 155.459 75.3959 156.377 74.0041C157.265 72.6715 158.198 71.5314 159.175 70.5838L161.174 68.8071C158.894 69.192 156.407 69.8287 153.712 70.7171C150.366 71.8127 148.085 72.8936 146.871 73.9597L147.182 72.0941C150.114 69.6066 155.489 67.9039 163.306 66.9859C165.231 66.7786 165.912 66.9267 165.35 67.4301L163.884 68.274L159.708 72.5383C164.15 70.8799 167.807 69.9027 170.68 69.6066C174.915 69.1624 179.282 69.7399 183.784 71.3389C185.235 71.872 185.634 72.2717 184.983 72.5383L183.606 72.7603C182.066 72.9973 180.171 73.6783 177.92 74.8036C175.966 75.8105 174.382 76.8025 173.167 77.7797C176.484 77.3651 180.126 77.454 184.094 78.0462C185.664 78.2831 186.463 78.4904 186.493 78.6681L184.494 80.3116L183.295 81.0667L187.426 81.4665C188.847 81.6145 189.558 81.8514 189.558 82.1772C189.558 82.4733 188.877 82.9619 187.515 83.643L185.338 84.8423C188.329 85.938 191.646 88.0997 195.288 91.3275C199.049 94.6441 202.232 98.2717 204.838 102.21C207.829 106.711 210.124 111.568 211.723 116.78C213.293 121.932 214.077 127.07 214.077 132.193L213.9 134.858L213.5 137.479C212.611 144.053 210.109 150.494 205.993 156.801C201.995 162.901 196.783 168.424 190.358 173.369C183.754 178.463 176.662 182.416 169.081 185.229C161.145 188.131 153.356 189.523 145.716 189.405C134.227 189.168 123.951 186.799 114.89 182.298C109.352 179.514 104.718 176.197 100.986 172.348C100.986 173.74 100.764 174.48 100.32 174.569C99.8168 174.687 98.8247 173.592 97.3441 171.282C95.9523 169.12 94.8418 167.077 94.0127 165.152C93.302 166.751 92.5024 168.024 91.614 168.972C91.1402 169.416 90.8441 169.623 90.7257 169.594C90.5184 169.505 90.2963 168.972 90.0594 167.995C88.1049 160.444 85.1437 154.121 81.1756 149.028C78.7473 145.889 76.7337 143.949 75.1346 143.209L62.6528 142.321C60.1654 142.321 57.9592 141.699 56.0344 140.455C53.9319 139.093 52.318 137.079 51.1927 134.414C50.7485 133.407 50.3636 131.941 50.0378 130.016L49.3271 125.264C48.9126 122.45 48.5128 120.392 48.1278 119.089C47.5059 116.868 46.6028 115.047 45.4183 113.626C43.2269 110.99 41.3021 107.763 39.6438 103.943C37.9262 100.004 36.7269 95.9175 36.0458 91.6829L35.8682 89.1954C35.8682 86.7672 36.5048 84.4277 37.7782 82.1772C38.2224 81.3776 39.1108 80.1339 40.4433 78.446C39.0811 76.8469 38.4001 75.5143 38.4001 74.4483C38.4001 72.9676 41.0356 70.1396 46.3066 65.9642C50.9854 62.2627 54.8499 59.5975 57.9 57.9688C57.9592 54.0599 58.1369 51.1283 58.433 49.1738C59.1141 44.4358 60.5059 41.0304 62.6084 38.9575C63.1118 38.4244 63.5708 38.2764 63.9854 38.5133L63.6301 41.4449L63.6745 42.511C64.4444 41.0896 65.5105 39.9495 66.8726 39.0907C67.5241 38.6761 67.8499 38.6169 67.8499 38.9131L67.4057 40.7342C67.0503 42.0372 66.8726 43.4586 66.8726 44.9985L67.0503 48.241L69.0492 43.5326L69.4934 42.8219C69.7895 42.4962 69.9968 42.7923 70.1152 43.7103L71.048 48.241C73.802 44.5098 77.8293 41.2969 83.13 38.6021C85.9136 37.1807 89.3191 35.8333 93.3464 34.56C95.0047 34.0566 95.6118 34.1158 95.1676 34.7377L94.0571 35.8481C92.9022 36.7661 91.7769 37.7878 90.6812 38.9131C89.4967 40.1568 88.6528 41.2376 88.1494 42.1556C89.6596 41.0304 91.155 40.1716 92.6357 39.5793C93.8794 39.1055 95.4045 38.7058 97.2108 38.38L99.3874 38.3356L97.9216 39.6238L95.9227 41.2228C95.3304 41.7855 94.6938 42.6146 94.0127 43.7103C99.0764 39.4461 104.969 37.1067 111.691 36.6921L113.513 36.7809L112.18 38.0691C111.321 38.691 110.403 39.6386 109.426 40.9119L106.983 44.3766C108.197 43.8732 109.071 43.5474 109.604 43.3994L112.58 42.8663L114.09 42.9552L112.935 44.1101C112.165 44.9985 111.603 46.7752 111.247 49.4404L109.204 50.6397L109.604 48.4187C109.959 46.8492 110.388 45.5611 110.892 44.5543C109.293 44.9985 107.442 45.724 105.34 46.7308L104.407 47.5748C103.903 47.8413 103.889 47.2194 104.362 45.7092C104.866 44.1693 105.562 42.8515 106.45 41.7559L109.471 38.6021C101.682 40.0531 96.056 42.9108 92.5913 47.175L91.8361 47.7524C91.3623 47.9597 91.1847 47.5748 91.3031 46.5975C91.4808 44.88 92.5617 42.8219 94.5457 40.4233C91.3475 41.7559 89.0674 43.1625 87.7052 44.6431C87.0537 45.3538 86.5799 45.6055 86.2838 45.3982C85.9876 45.1909 85.958 44.5839 86.1949 43.577C86.5503 42.126 87.0833 40.8971 87.794 39.8903L90.2371 37.2251C86.4762 38.7058 83.1448 40.3493 80.2428 42.1556C76.0082 44.7912 73.0469 47.56 71.359 50.462L70.8704 51.0839C70.515 51.3504 70.2189 51.0691 69.982 50.2399L69.1824 47.0417C68.2644 49.0554 67.6278 50.6397 67.2724 51.7946C66.9171 52.8014 66.5913 53.0087 66.2952 52.4164L65.9398 51.1727C65.5845 49.159 65.4068 47.1158 65.4068 45.0429L65.5845 42.2445C65.1107 42.7183 64.7405 43.2217 64.474 43.7547C63.9706 44.7319 63.6301 46.183 63.4524 48.1078C63.3043 49.6476 63.0082 48.7297 62.564 45.3538C62.2975 44.347 62.1642 43.0736 62.1642 41.5338C61.1574 43.1921 60.4319 45.872 59.9877 49.5736C59.6027 52.5349 59.4695 55.2296 59.5879 57.6579L61.4091 57.569C61.2018 57.9244 60.3727 58.4426 58.9216 59.1237C57.5891 59.7752 54.3169 62.2034 49.105 66.4084C43.9228 70.5542 41.1392 72.9676 40.7543 73.6487C40.3989 74.2114 40.3101 74.8036 40.4877 75.4255C40.6654 76.1066 41.1688 77.0246 41.998 78.1795C43.5971 80.3412 43.9968 81.2148 43.1973 80.8002L41.5538 79.5565L39.6882 82.3549C38.4741 84.7239 37.867 87.1965 37.867 89.7728L38.0447 91.9938C38.6962 96.1988 39.7622 100.078 41.2429 103.632C42.6939 107.185 44.4558 110.206 46.5287 112.693C47.8613 114.263 48.8681 116.217 49.5492 118.556C49.9638 119.978 50.3784 122.14 50.793 125.042C51.2964 128.565 51.8738 131.097 52.5253 132.637C53.5914 135.154 55.0424 137.153 56.8784 138.634C58.6847 140.114 60.6096 140.855 62.6528 140.855L75.4011 141.788H75.5344L75.6232 141.832C77.6665 142.069 79.4432 142.543 80.9535 143.253C82.4637 143.994 81.9159 144.275 79.31 144.097C85.499 149.961 89.4967 157.512 91.3031 166.751C92.2507 165.715 92.8726 164.56 93.1687 163.286C93.376 162.309 93.5537 161.776 93.7017 161.687C93.909 161.569 94.2496 162.131 94.7234 163.375C95.3156 164.797 96.2484 166.677 97.5218 169.016C98.8247 171.415 99.565 172.6 99.7427 172.57C99.95 172.511 99.9204 171.119 99.6539 168.395C99.3874 165.226 99.343 163.094 99.5206 161.998C99.7575 160.695 100.054 161.672 100.409 164.93L100.898 170.216L102.985 172.215C105.354 174.287 108.034 176.197 111.025 177.945C121.064 183.867 132.554 186.947 145.494 187.184C153.164 187.332 160.715 186.147 168.148 183.63C175.61 181.113 182.481 177.426 188.758 172.57C194.918 167.832 199.937 162.368 203.817 156.179C207.666 149.99 210.02 143.653 210.879 137.168C211.175 135.095 211.323 132.978 211.323 130.816C211.323 119.83 207.844 109.569 200.885 100.034C198.072 96.184 195.007 92.9414 191.69 90.3059C188.581 87.8184 185.797 86.2933 183.339 85.7307L181.785 86.1305C181.074 86.1305 181.518 85.553 183.117 84.3981C183.769 83.9243 184.361 83.569 184.894 83.3321L186.093 82.7546L181.296 82.5325L177.565 82.1772C177.091 82.0291 177.743 81.5997 179.519 80.889C180.467 80.5041 181.814 79.9858 183.561 79.3344C178.142 78.831 174.174 78.905 171.657 79.5565L169.658 81.5997C169.125 81.9551 169.022 81.6293 169.347 80.6225C169.703 79.6453 170.31 78.6089 171.169 77.5132C172.62 75.618 175.833 73.782 180.807 72.0052C177.313 71.1761 173.241 71.102 168.592 71.7831C164.269 72.4346 160.493 73.5599 157.265 75.159Z" fill="#0D131A"/>
<path d="M149.137 32.5609C150.528 32.6794 151.402 33.0199 151.757 33.5826C152.054 33.9971 152.054 34.7226 151.757 35.7591L149.581 40.8228L147.271 45.8422L152.646 49.8399C154.659 51.4982 155.666 52.6531 155.666 53.3046C155.666 53.9857 154.719 55.4811 152.823 57.7909L148.382 62.9879L148.648 66.7636C148.648 69.4583 148.5 71.546 148.204 73.0266C147.671 75.5437 146.62 77.7203 145.05 79.5562C143.273 81.5995 141.126 83.1542 138.609 84.2202C135.796 85.4047 132.939 85.7601 130.036 85.2863C128.763 85.079 128.038 84.8569 127.86 84.62C127.653 84.3831 128.186 84.2943 129.459 84.3535C132.183 84.5016 134.775 84.1462 137.232 83.2874C139.809 82.3694 141.822 81.0665 143.273 79.3786C145.938 76.2988 147.271 72.079 147.271 66.7191L147.138 63.9652L147.005 62.8991C151.446 57.2431 153.697 54.1189 153.756 53.5267C153.697 53.201 152.379 51.9868 149.803 49.8843L145.583 46.3308C145.405 46.0643 145.894 44.4948 147.049 41.6224C148.411 38.3354 149.181 36.0996 149.359 34.9151C143.644 33.9971 136.359 35.8479 127.505 40.4675C120.546 44.1395 113.216 49.144 105.517 55.4811C104.718 56.1622 104.318 56.3547 104.318 56.0586C104.318 55.7328 104.821 55.0369 105.828 53.9709C111.04 48.3741 117.866 43.3695 126.305 38.9573C135.426 34.16 143.036 32.0279 149.137 32.5609Z" fill="#0D131A"/>
<path d="M141.363 39.4903C143.259 38.7204 144.088 38.5723 143.851 39.0461C143.614 39.5199 142.829 40.0234 141.497 40.5564C135.87 42.955 130.051 46.316 124.04 50.6395C116.548 56.029 111.899 60.9299 110.092 65.3422C111.543 66.2602 112.772 67.4743 113.779 68.9846C114.667 70.406 115.126 71.6793 115.156 72.8046L114.001 73.1155C113.616 71.2203 112.787 69.488 111.514 67.9185L109.693 66.0973C109.219 66.4823 108.804 66.7044 108.449 66.7636C107.797 66.9413 107.827 66.275 108.538 64.7648C110.847 59.9379 115.526 55.0074 122.574 49.9732C128.408 45.7978 134.671 42.3035 141.363 39.4903Z" fill="#0D131A"/>
<path d="M150.336 104.564C152.616 105.275 154.674 106.223 156.51 107.407C158.198 108.532 158.939 109.317 158.731 109.761C158.465 110.294 156.17 110.072 151.846 109.095C147.73 108.059 141.304 106.993 132.569 105.897C120.96 104.416 111.869 104.002 105.295 104.653C111.662 109.658 114.757 112.96 114.579 114.559C114.401 116.099 113.661 118.275 112.358 121.088L112.269 121.266L106.939 124.286H113.957C115.201 124.257 115.615 124.434 115.201 124.819L114.224 125.441C113.631 125.708 113.024 125.96 112.402 126.196L123.329 127.085C124.78 127.351 125.18 127.633 124.529 127.929L123.152 128.24L114.401 127.485L109.648 127.351L107.25 127.884C106.154 128.003 106.88 127.44 109.426 126.196L110.937 125.486L105.962 125.619L102.453 125.486C102.186 125.308 103.548 124.449 106.539 122.909L111.336 120.466L113.069 114.87L113.158 115.536L113.113 114.692C113.083 113.804 111.706 112.042 108.982 109.406C106.613 107.126 104.762 105.542 103.43 104.653L101.031 104.342C99.9947 104.105 100.883 103.854 103.696 103.587C113.054 102.728 123.285 103.054 134.39 104.564C140.816 105.423 146.723 106.548 152.113 107.94L155.311 108.207C154.66 107.466 152.868 106.622 149.936 105.675C141.082 102.773 131.132 100.493 120.087 98.8343C110.255 97.3537 103.489 96.8503 99.7874 97.3241L94.3238 97.5906C93.6131 97.4129 93.8056 97.1908 94.9013 96.9243L98.3215 96.1692L94.4571 94.0371L92.014 94.7478C90.8592 94.9551 91.5106 94.422 93.9685 93.1487C99.6245 90.1578 112.032 88.692 131.192 88.7512L133.946 88.4847C133.472 88.0701 132.45 87.7296 130.881 87.4631C122.352 85.9824 114.09 85.4642 106.095 85.9084C101.919 86.1453 97.3739 86.7375 92.4582 87.6852L92.1473 87.774L90.2817 88.5735C89.3933 88.84 89.8523 88.2182 91.6587 86.7079C95.538 83.4505 103.371 80.6521 115.156 78.3127C121.168 77.1282 129 75.9733 138.654 74.848L142.785 74.1818L137.854 73.6487C123.818 73.1453 112.269 73.9301 103.208 76.0029C100.72 76.5656 97.6849 77.8093 94.1017 79.7341C90.4002 81.7182 87.2464 83.8355 84.6405 86.0861C83.1599 87.389 82.3899 87.8332 82.3307 87.4186C82.2715 87.0337 82.5824 86.4562 83.2635 85.6863L84.7737 84.0428C82.0198 81.7922 77.4298 80.5781 71.0038 80.4004L61.1872 80.9779C60.5654 81.1259 59.7066 80.5189 58.6109 79.1567C57.5449 77.8537 56.8342 76.5952 56.4788 75.3811C56.2419 74.6111 55.9014 73.9004 55.4572 73.249C54.8945 72.4494 54.2875 71.9016 53.636 71.6055L51.2818 71.5166C49.6827 72.1681 47.8615 72.5827 45.8183 72.7604C43.6862 72.938 42.1019 72.7752 41.0654 72.2717L41.5985 71.2057C42.4276 71.6203 43.7898 71.7387 45.685 71.561C47.6098 71.413 49.3274 71.028 50.8376 70.4061L52.9697 70.0952C53.8581 70.1248 54.5688 70.2729 55.1018 70.5394C55.8422 70.8948 56.4196 71.5462 56.8342 72.4938L57.6337 75.0701C57.9299 76.1658 58.374 77.2023 58.9663 78.1795C59.7658 79.4528 60.5506 79.9859 61.3205 79.7786L71.5369 79.3788C77.9924 79.7045 82.6564 80.9335 85.5289 83.0656C88.2532 81.0815 91.4366 79.2751 95.079 77.6465C98.3364 76.225 101.298 75.2034 103.963 74.5815C108.997 73.4266 114.653 72.7011 120.931 72.405C125.521 72.1977 131.177 72.2125 137.899 72.4494C142.815 72.6567 145.243 73.2045 145.184 74.0929C145.154 74.5963 144.088 75.0701 141.985 75.5143L138.787 76.0029C117.288 78.52 102.719 81.8515 95.079 85.9972C106.391 83.9836 118.384 84.0872 131.058 86.3082C134.819 86.93 136.655 87.7296 136.566 88.7068C136.537 89.299 134.745 89.7136 131.192 89.9505C114.549 89.8913 102.852 91.1202 96.1006 93.6373L99.9206 95.8583C108.479 95.8286 116.755 96.5393 124.751 97.9904C131.917 99.2637 140.446 101.455 150.336 104.564Z" fill="#0D131A"/>
<path d="M106.583 162.842C106.79 161.569 107.116 160.577 107.56 159.866C108.123 158.978 108.508 158.578 108.715 158.667C108.952 158.726 108.923 159.303 108.626 160.399C108.39 161.258 108.227 162.235 108.138 163.331L107.738 166.751C107.531 168.113 107.338 168.824 107.161 168.883L106.139 167.728L103.385 164.397L101.031 161.421C99.9944 159.614 100.276 159.392 101.875 160.754C102.674 161.465 103.503 162.398 104.362 163.553L106.183 165.907L106.583 162.842Z" fill="#0D131A"/>
<path d="M144.65 152.803C147.167 152.833 149.936 153.203 152.956 153.914C157.221 154.921 160.7 156.401 163.395 158.356C164.964 159.481 165.601 160.251 165.305 160.666L162.551 160.799L157.798 159.955C160.522 161.761 162.462 163.257 163.617 164.441C165.749 166.633 165.823 168.128 163.839 168.928C165.882 174.258 165.734 178.803 163.395 182.564C161.737 185.229 159.723 186.843 157.354 187.406L157.087 186.518C159.427 185.955 161.218 184.134 162.462 181.054C163.262 179.129 163.617 176.893 163.528 174.347C163.469 172.155 163.143 170.408 162.551 169.105C162.373 168.661 162.403 168.395 162.64 168.306C163.173 168.01 163.439 167.654 163.439 167.24C163.41 166.322 162.107 164.856 159.53 162.842C157.902 161.569 156.199 160.384 154.422 159.289L152.956 158.223L154.822 158.178C156.569 158.385 159.16 158.874 162.595 159.644C159.131 157.512 155.473 155.942 151.624 154.936L144.517 153.781C142.977 153.633 142.163 153.44 142.074 153.203C141.955 152.937 142.814 152.803 144.65 152.803Z" fill="#0D131A"/>
<path d="M155.089 140.1C154.97 139.122 154.408 138.204 153.401 137.346C152.513 136.605 151.595 136.146 150.647 135.969C150.232 135.909 149.699 136.309 149.048 137.168L147.271 139.7L145.672 141.343L144.784 141.61C144.665 141.551 144.799 141.254 145.183 140.721L145.805 139.966C144.591 140.026 143.288 139.729 141.896 139.078L140.12 138.056L137.899 134.814C137.01 133.274 136.27 131.793 135.678 130.372C134.967 128.654 133.797 127.47 132.169 126.818C130.333 126.137 128.363 126.285 126.261 127.262C124.721 128.003 123.329 129.202 122.086 130.86C120.96 132.371 120.324 133.777 120.176 135.08C120.116 135.761 120.294 136.265 120.709 136.59C121.271 137.035 122.1 136.827 123.196 135.969L125.373 134.147C126.439 133.378 127.445 132.904 128.393 132.726C129.311 132.548 129.8 132.637 129.859 132.993L129.726 133.57L128.66 134.37C130.229 135.672 131.162 137.035 131.458 138.456C131.665 139.433 131.591 140.914 131.236 142.898C131.029 144.319 130.718 144.823 130.303 144.408L129.726 143.387L126.128 143.209C123.463 143.268 121.479 143.712 120.176 144.541C119.317 145.104 118.725 146.274 118.399 148.051C118.073 149.739 118.088 151.338 118.443 152.848C118.65 153.736 118.932 154.328 119.287 154.625C119.791 155.069 120.309 154.684 120.842 153.47L122.441 150.805L124.262 148.317C125.92 146.392 126.735 145.889 126.705 146.807C126.676 147.725 126.365 148.273 125.772 148.45C126.335 148.598 127.549 149.383 129.415 150.805L133.146 153.514C135.1 154.491 137.514 154.417 140.386 153.292C143.14 152.256 145.524 150.582 147.538 148.273C147.153 146.466 146.96 144.971 146.96 143.786C146.96 142.839 147.123 142.098 147.449 141.565C147.745 141.003 147.982 141.121 148.16 141.921L148.648 146.851C148.855 149.339 149.137 150.701 149.492 150.938C150.025 151.293 150.78 151.293 151.757 150.938C152.379 150.701 153.134 149.146 154.023 146.274C154.882 143.401 155.237 141.343 155.089 140.1ZM154.511 136.502C155.933 137.568 156.718 138.737 156.866 140.011C157.043 141.343 156.57 143.594 155.444 146.762C154.26 150.049 153.164 151.885 152.157 152.27L150.38 152.715C149.877 152.715 149.418 152.567 149.003 152.27C148.352 151.826 147.878 151.056 147.582 149.961C145.213 152.33 142.74 154.047 140.164 155.113C137.262 156.298 134.789 156.372 132.746 155.335C131.562 154.773 130.096 153.677 128.349 152.048L126.394 150.449C125.832 150.094 125.299 149.99 124.795 150.138C124.173 150.731 123.596 151.574 123.063 152.67L122.086 154.891C121.345 156.283 120.486 156.92 119.509 156.801C118.562 156.683 117.821 155.454 117.288 153.114C116.874 151.367 116.785 149.561 117.022 147.695C117.288 145.474 117.969 143.994 119.065 143.253C121.02 142.01 124.706 141.654 130.125 142.187L130.17 141.388C130.17 138.456 129.267 136.368 127.46 135.125C126.957 135.243 126.424 135.569 125.861 136.102L124.395 137.39L121.952 138.856C121.005 139.3 120.324 139.359 119.909 139.034C119.435 138.678 119.05 138.19 118.754 137.568C118.458 136.916 118.34 136.265 118.399 135.613C118.576 134.133 119.391 132.43 120.842 130.505C122.352 128.462 123.996 127.026 125.772 126.196C127.016 125.634 128.319 125.278 129.681 125.13L133.279 125.486C134.197 125.841 134.952 126.33 135.545 126.952C136.078 127.514 136.566 128.299 137.01 129.306C138.224 132.297 139.513 134.606 140.875 136.235L141.63 137.212C142.104 137.834 143.688 138.352 146.383 138.767C148.011 135.924 149.492 134.606 150.825 134.814C152.068 135.021 153.297 135.584 154.511 136.502Z" fill="#0D131A"/>
<path d="M77.2225 64.0097C81.2794 61.1965 85.7658 59.1532 90.6815 57.8798C91.6291 57.6429 92.0733 57.6874 92.014 58.0131C91.9252 58.3388 91.555 58.6794 90.9036 59.0347C87.0243 60.6042 83.6485 62.2033 80.776 63.832C75.2977 66.9413 71.3148 70.5245 68.8273 74.5814C71.4332 73.4857 75.2385 72.4197 80.243 71.3832C85.2475 70.3764 88.9639 69.8878 91.3922 69.9174C92.5471 69.9174 93.0801 70.0803 92.9913 70.406C92.9024 70.7021 92.3694 70.9242 91.3922 71.0723C77.0893 73.3821 69.1827 75.1885 67.6724 76.4914L66.8285 77.0245C66.325 77.1725 66.3102 76.7579 66.784 75.7807C68.9754 71.2204 72.4549 67.2967 77.2225 64.0097Z" fill="#0D131A"/>
<path d="M84.1074 61.3448L85.0402 60.6785C86.3432 61.3299 87.3648 62.4996 88.1051 64.1876C88.9047 66.0236 89.2156 68.1557 89.0379 70.5839L87.8386 70.4951C87.9867 68.363 87.6609 66.4085 86.8614 64.6318C86.1211 63.0327 85.2031 61.937 84.1074 61.3448Z" fill="#0D131A"/>
<path d="M75.8011 66.2751C77.0744 66.3048 78.1849 67.1043 79.1325 68.6738C79.9617 70.0063 80.317 71.1168 80.1986 72.0052L67.8057 75.2922L70.9594 70.4061L75.8011 66.2751Z" fill="#0D131A"/>
<path d="M49.7268 79.2898C49.638 78.816 49.7713 77.972 50.1266 76.7579C50.5412 75.3957 51.0594 74.5073 51.6813 74.0927C52.3328 73.6485 52.7621 73.5005 52.9694 73.6485C53.1767 73.7966 53.0879 74.1223 52.7029 74.6258L51.5924 76.8023L50.5708 78.9788L50.0378 79.7339C49.9193 79.7932 49.8157 79.6451 49.7268 79.2898Z" fill="#0D131A"/>
<path d="M62.3866 109.761C62.3866 108.547 62.6679 106.06 63.2305 102.299C63.9116 97.7386 64.6075 94.881 65.3182 93.7261L66.4287 95.947C65.8068 96.9242 65.1554 99.3525 64.4743 103.232C63.882 106.578 63.5859 108.755 63.5859 109.761C63.5859 110.442 63.1417 110.961 62.2533 111.316L57.1895 112.16C55.8274 111.568 54.5392 109.554 53.3251 106.119C52.3479 103.424 51.7704 101.174 51.5927 99.3673C51.4447 98.0939 51.4891 97.3832 51.726 97.2352C51.9629 97.0575 52.3034 97.6794 52.7476 99.1008L54.9242 105.941C56.0495 109.051 56.9526 110.753 57.6337 111.049L60.4321 110.827C61.7351 110.413 62.3866 110.057 62.3866 109.761Z" fill="#0D131A"/>
<path d="M53.8133 112.826C53.2803 112.797 52.999 112.974 52.9694 113.359C52.8805 114.396 52.925 115.654 53.1026 117.135C53.7245 121.873 54.6869 125.634 55.9899 128.417C57.2632 131.201 58.9808 133.229 61.1425 134.503L70.204 134.858C73.6686 134.68 75.6823 134.207 76.245 133.437C76.7484 132.726 77.3258 131.023 77.9773 128.328C75.8156 127.647 73.5946 125.885 71.3144 123.043L66.1174 115.58L64.1186 113.048L62.6972 111.582L60.1653 111.938L58.122 112.515C57.9443 112.634 57.8555 112.767 57.8555 112.915C57.589 115.166 58.8475 119.667 61.6311 126.418C62.5195 128.61 62.7564 129.587 62.3418 129.35C61.9568 129.172 61.3794 128.417 60.6095 127.085C59.8988 125.752 59.0844 123.679 58.1664 120.866C57.0707 117.49 56.5377 114.944 56.5673 113.226C56.5673 112.9 56.4193 112.752 56.1231 112.782L53.8133 112.826ZM45.9068 106.208C43.1232 101.588 41.761 97.1019 41.8202 92.7488C41.8498 91.6828 42.1904 90.824 42.8418 90.1725C43.5229 89.4322 44.7223 88.7659 46.4398 88.1737C48.9273 87.3149 51.9478 86.9892 55.5013 87.1964C58.966 87.4333 61.1277 88.0256 61.9864 88.9732C65.0366 92.3787 68.6937 96.9834 72.958 102.788C78.1402 109.835 80.8941 114.381 81.2199 116.424C81.4568 117.905 81.057 120.94 80.0206 125.53C78.9841 130.09 78.0513 132.948 77.2222 134.103C76.3634 135.317 73.565 136.028 68.827 136.235C64.3555 136.442 61.5571 136.235 60.4318 135.613C58.0035 134.281 56.1676 132.356 54.9238 129.839C53.532 126.996 52.54 122.806 51.9478 117.268L51.7257 114.514C51.7257 113.744 51.7997 113.108 51.9478 112.604L51.4147 112.471C50.1118 112.175 48.2758 110.087 45.9068 106.208ZM72.1584 103.72C68.0126 97.9755 64.3258 93.3263 61.0981 89.7728C60.5058 89.1213 58.6698 88.6771 55.5901 88.4402C52.155 88.1737 49.2382 88.4698 46.8396 89.3286C45.3885 89.832 44.3965 90.3206 43.8635 90.7944C43.3008 91.2978 43.0195 91.9641 43.0195 92.7932C43.0195 95.5472 44.1152 99.1748 46.3065 103.676C48.4386 108.059 50.245 110.62 51.7257 111.36L54.1687 111.671L56.4785 111.272L57.7222 111.138C58.0183 111.227 58.2108 111.39 58.2997 111.627L61.409 110.827L63.0969 110.472C63.4819 110.442 63.9705 110.753 64.5627 111.405L67.0946 114.869C69.286 118.008 71.0627 120.348 72.4249 121.888C74.7347 124.494 76.7336 126.004 78.4215 126.418C79.5172 121.207 79.9465 117.846 79.7096 116.335C79.4135 114.47 76.8964 110.265 72.1584 103.72Z" fill="#0D131A"/>
<path d="M89.7486 138.456L88.5938 138.101L90.2373 137.79C91.2441 137.671 93.0653 138.115 95.7008 139.122C98.4252 140.159 100.024 141.047 100.498 141.787C100.942 142.528 101.031 142.957 100.765 143.076C100.498 143.194 100.113 143.031 99.6097 142.587C99.1951 142.172 97.67 141.417 95.0345 140.322C92.3694 139.226 90.6074 138.604 89.7486 138.456Z" fill="#0D131A"/>
<path d="M87.3502 141.477C84.8331 140.825 84.8331 140.544 87.3502 140.633C88.8308 140.662 90.0894 141.047 91.1258 141.788C91.8365 142.291 92.5028 143.031 93.1247 144.009C93.5689 144.719 93.5837 145.104 93.1691 145.163C92.7545 145.252 92.4288 145.104 92.1919 144.719L90.193 143.031C88.9789 142.173 88.0313 141.654 87.3502 141.477Z" fill="#0D131A"/>
<path d="M73.4022 71.6941C73.491 72.0198 73.4318 72.3603 73.2245 72.7157L72.3805 73.3376L71.4033 73.2043C71.1072 72.997 70.9147 72.7305 70.8259 72.4048C70.737 72.079 70.7666 71.7533 70.9147 71.4275C71.0924 71.1314 71.3441 70.9389 71.6698 70.8501L72.6914 70.9389C73.0468 71.1166 73.2837 71.3683 73.4022 71.6941Z" fill="white"/>
</svg>
