<svg width="258" height="252" viewBox="0 0 258 252" fill="none" xmlns="http://www.w3.org/2000/svg">
<path d="M76.9709 96.7244L77.4328 96.4043L76.8288 97.6849C76.6393 98.0644 76.2129 98.515 75.5497 99.0367L74.5548 99.926L74.5903 98.93C74.6377 98.4557 75.4313 97.7205 76.9709 96.7244ZM56.0075 85.9457C55.7232 84.8548 55.1666 83.5149 54.3375 81.9259L53.1294 79.7559C52.8452 79.3291 52.4543 79.1868 51.9569 79.3291C51.4831 79.4951 51.27 79.8389 51.3173 80.3607L51.6726 85.2698C51.8858 88.7323 51.9332 91.0801 51.8148 92.3133C51.7437 92.9062 51.5897 93.3568 51.3529 93.6651L50.3224 94.4477L48.8301 95.3371C48.1432 95.8114 47.6339 96.3213 47.3023 96.8667C46.4495 98.2185 45.881 100.305 45.5968 103.128C45.3125 105.736 45.3717 107.681 45.7744 108.962C45.9166 109.412 45.9403 109.804 45.8455 110.136C45.7744 110.444 45.5613 110.8 45.2059 111.203L44.3887 111.665L43.6781 112.199L43.3938 113.444C43.4175 113.752 43.5833 114.084 43.8913 114.44L44.673 115.507C44.9572 116.029 45.0994 116.503 45.0994 116.93L44.8862 118.389C44.7914 119.171 44.8269 119.788 44.9927 120.238C45.2059 120.902 45.6442 121.246 46.3074 121.27C47.0654 121.199 47.5865 121.199 47.8708 121.27C48.4393 121.436 48.8775 121.65 49.1855 121.91C49.6355 122.385 49.9316 123.013 50.0737 123.796C50.2396 124.555 50.2159 125.171 50.0027 125.646L49.3276 125.859L48.5104 126.072L47.4089 126.321C46.9825 126.535 46.7338 126.891 46.6627 127.389L47.1957 128.136L48.1906 129.345L49.5052 130.733C50.0737 131.373 50.204 131.823 49.8961 132.084C49.6829 132.25 49.2802 131.906 48.688 131.053C47.8353 129.82 47.1602 128.966 46.6627 128.491C45.1941 127.069 43.6426 126.084 42.0081 125.539C40.0421 124.78 39.059 124.484 39.059 124.65L39.592 125.361L40.1605 126.037C38.5971 125.278 36.4179 124.377 33.6227 123.333L31.9528 123.049C31.1 122.93 30.6618 122.93 30.6381 123.049C30.5907 123.262 30.9105 123.618 31.5975 124.116L32.9476 125.041L42.0792 132.191C43.0267 132.95 43.9623 134.053 44.8862 135.499C45.6678 136.661 46.189 137.646 46.4495 138.452C46.6154 138.997 46.9114 139.412 47.3378 139.697L48.6169 140.444L49.292 140.942L49.2565 141.156C49.0907 141.867 49.1144 142.804 49.3276 143.966L50.0737 144.748L50.891 145.424C45.3244 154.555 41.712 163.614 40.0539 172.602C37.543 186.073 39.8052 198.002 46.8404 208.389C55.7706 221.551 66.5366 229.804 79.1384 233.148C84.5154 234.571 90.6742 235.259 97.6146 235.212L117.796 233.753C129.261 232.449 139.921 228.121 149.775 220.769C152.901 218.421 155.779 215.883 158.409 213.156L161.713 209.456L161.109 206.504L103.406 190.958L102.411 195.156L100.777 193.662C100.658 193.259 100.658 192.867 100.777 192.488C100.895 192.156 101.049 191.907 101.239 191.741L93.1377 195.761C87.7369 198.417 82.1704 198.867 76.438 197.112C69.5212 195.002 63.623 189.856 58.7434 181.674C55.5219 176.266 54.1954 169.958 54.7639 162.749C55.1902 157.27 56.5996 151.804 58.9921 146.349C60.745 146.42 61.7399 146.586 61.9767 146.847C62.6637 147.63 63.3151 148.104 63.931 148.27C65.2338 148.673 66.88 148.199 68.8698 146.847L69.0119 146.741C69.6515 146.314 69.9239 145.413 69.8291 144.037L69.9357 142.97L70.2555 142.187C70.445 141.974 70.7411 141.784 71.1438 141.618L72.6006 141.013L74.0574 141.156L75.7984 141.903C77.1486 142.709 77.9777 143.148 78.2856 143.219C79.3278 143.48 80.1688 142.756 80.8083 141.049L81.59 138.025L81.7677 137.492L82.5849 135.748C82.8455 135.084 82.7744 134.432 82.3717 133.792C82.1348 133.389 81.8861 132.405 81.6255 130.839C81.365 129.274 81.2465 128.065 81.2702 127.211L81.3058 125.752C81.3058 125.065 81.1636 124.412 80.8794 123.796C80.7136 123.44 80.3938 122.93 79.92 122.266L78.7475 120.381L78.3922 118.993L78.5698 117.748C78.8067 116.823 78.9015 116.017 78.8541 115.329L78.7475 113.586C78.7001 112.898 78.5698 112.294 78.3567 111.772C78.2619 111.535 77.9421 110.954 77.3973 110.029C77.0183 109.365 76.8407 108.891 76.8643 108.606C76.9117 108.132 77.3262 106.792 78.1079 104.586C78.8896 102.499 79.3515 101.005 79.4937 100.104C79.6358 99.179 79.7068 98.1711 79.7068 97.0802L79.6713 95.6217C79.6476 95.3608 79.5173 95.1355 79.2805 94.9458L82.4428 92.171C82.6323 92.005 82.7389 91.8034 82.7625 91.5663C82.8099 91.3054 82.7507 91.0683 82.5849 90.8548C82.4664 90.6651 82.2769 90.5347 82.0164 90.4635L81.3413 90.5702C79.1383 91.6849 77.7289 92.3133 77.1131 92.4556L75.2299 92.4201L74.3772 92.2778C73.1217 92.088 71.7597 92.7284 70.291 94.1987L70.0068 94.5189L70.4687 90.677C70.5398 89.6572 70.1726 88.0564 69.3672 85.8746C68.7514 84.3093 67.9934 82.6255 67.0932 80.8231C66.7142 80.0642 66.4063 78.5702 66.1694 76.3409L65.8852 71.7164C65.8852 71.1946 65.6364 70.8863 65.139 70.7915C64.6416 70.6729 64.2744 70.8389 64.0375 71.2895L63.5756 72.499C63.2677 73.4476 63.1137 74.3488 63.1137 75.2025C63.1137 75.8192 62.9479 76.9338 62.6163 78.5464L62.9361 75.665C62.9597 75.4041 62.9005 75.167 62.7584 74.9535C62.5926 74.7164 62.3794 74.5741 62.1188 74.5267C61.8583 74.5029 61.6096 74.5622 61.3727 74.7045C61.1595 74.8468 61.0292 75.0484 60.9818 75.3093L60.6621 76.7322C60.3778 77.7757 60.0699 78.6532 59.7382 79.3646C59.4303 80.0524 59.2882 80.8587 59.3119 81.7836L59.5961 84.167L59.8448 85.7678C59.8922 86.5267 59.2408 87.7955 57.8906 89.5742L57.0379 90.7125L56.647 91.3884L56.5404 89.8943C56.422 88.1157 56.2443 86.7995 56.0075 85.9457Z" fill="#0D131A"/>
<path d="M57.713 105.725L57.0734 105.369C56.9076 105.441 56.9076 105.808 57.0734 106.472C57.3103 107.444 57.4169 108.607 57.3932 109.958C57.3695 111.215 57.2392 112.282 57.0024 113.16C56.7892 113.895 56.4457 114.571 55.972 115.188C55.5693 115.757 55.3561 116.302 55.3324 116.824C55.3087 118.057 55.4035 119.219 55.6166 120.31C55.6166 120.547 55.5337 120.713 55.3679 120.808C55.2258 120.903 55.0008 120.82 54.6928 120.559C54.3849 120.18 54.1125 119.658 53.8756 118.994C53.7572 118.638 53.7453 118.211 53.8401 117.713C53.8875 117.097 53.7927 116.551 53.5558 116.077L52.9873 114.903C52.7741 114.476 52.5609 114.298 52.3478 114.369L52.2412 114.974L52.4188 116.788L51.9924 117.429L51.8148 118.496C51.8622 118.875 52.1938 119.777 52.8097 121.2L53.6269 123.583C53.8875 124.389 53.994 124.994 53.9467 125.397C53.8282 126.512 53.6032 127.069 53.2716 127.069L52.9873 126.607L52.7031 125.646L51.5661 123.476C51.3292 123.073 50.8791 122.539 50.2159 121.875C50.737 122.824 50.9976 123.808 50.9976 124.828C50.9976 125.279 50.8791 125.8 50.6423 126.393C50.4764 126.773 50.0027 127.045 49.221 127.211C48.463 127.33 48.0603 127.555 48.0129 127.887C47.9656 128.267 48.2261 128.694 48.7946 129.168L50.1448 130.342C50.5001 130.792 50.6896 131.255 50.7133 131.729C50.7607 132.275 50.5712 132.69 50.1448 132.974C49.6711 133.306 48.9841 132.844 48.084 131.587L46.0587 128.848C45.3007 128.207 43.6663 127.283 41.1554 126.073L43.4294 128.03C43.761 128.314 44.0808 128.729 44.3888 129.275L44.7441 130.022L43.3228 129.061C42.1858 128.326 41.1791 127.709 40.3026 127.211C38.8814 126.453 36.5363 125.468 33.2674 124.259L42.6122 130.982C43.7255 131.86 44.8033 132.939 45.8455 134.219C46.8167 135.453 47.4326 136.46 47.6932 137.243C47.9063 137.836 48.4038 138.453 49.1855 139.093L50.8199 140.338C51.0331 140.575 51.0923 140.919 50.9976 141.37L50.962 143.148C51.0568 143.551 51.2937 143.919 51.6727 144.251L56.9313 138.559L59.2053 136.532L60.4489 135.642L57.8551 139.164L59.8449 139.378L60.3068 139.982L61.7636 137.314L61.6214 138.524C61.4083 139.615 61.0411 140.919 60.52 142.437L62.0478 142.579L62.9716 142.864L63.5757 142.828C64.2626 142.235 64.6298 141.82 64.6771 141.583C64.7008 141.441 64.6534 141.298 64.535 141.156L64.2863 140.836C64.002 140.291 63.9073 139.532 64.002 138.559C64.0968 137.587 64.3455 136.852 64.7482 136.354C65.1272 135.856 65.826 135.298 66.8445 134.682C67.9342 134.042 68.7988 133.721 69.4383 133.721C69.6752 133.721 70.0542 133.852 70.5753 134.113L71.8189 134.682C72.269 134.8 72.648 134.599 72.9559 134.077C73.4771 133.081 73.8797 131.955 74.164 130.698C74.4482 129.37 74.4364 128.551 74.1285 128.243C73.7731 127.887 72.7309 127.318 71.0017 126.536L69.1896 125.504C68.6685 125.148 68.3487 124.781 68.2303 124.401C67.946 123.619 68.2539 122.67 69.1541 121.555C70.3384 120.109 70.599 118.721 69.9358 117.393C69.6515 116.777 68.9646 116.267 67.8749 115.864C67.2117 115.603 66.5248 115.093 65.8141 114.334L64.7127 112.306L63.7888 109.496C63.552 108.642 63.3269 108.215 63.1137 108.215C62.9716 108.215 62.8769 108.547 62.8295 109.211C62.7821 110.089 62.8295 110.954 62.9716 111.808L63.2559 113.516C63.3033 113.848 63.2796 114.061 63.1848 114.156C63.019 114.322 62.8176 114.381 62.5808 114.334C61.9175 114.168 61.3727 113.8 60.9463 113.231C60.4489 112.52 60.0818 111.429 59.8449 109.958C59.6554 108.82 59.2408 107.765 58.6013 106.792L57.713 105.725Z" fill="#EFE908"/>
<path d="M55.0837 86.1952C54.7994 85.1517 54.2428 83.8592 53.4137 82.3177L52.2767 80.29L52.632 85.1992C52.8689 88.7091 52.9163 91.1162 52.7741 92.4206C52.6557 93.5826 52.1346 94.472 51.2107 95.0886C49.9553 95.9186 49.1144 96.6657 48.688 97.3297C47.8827 98.6103 47.2668 100.567 46.8404 103.199C46.414 105.761 46.3667 107.587 46.6983 108.678C46.9588 109.531 46.8049 110.361 46.2364 111.168L44.9217 112.946C44.7085 113.397 44.673 113.729 44.8151 113.942C45.0994 114.274 45.3481 114.654 45.5613 115.081C45.7745 115.531 45.881 116.101 45.881 116.788C45.881 117.618 45.9995 118.354 46.2364 118.994C46.4732 119.729 47.0062 120.227 47.8353 120.488C48.9012 120.82 49.6 121.152 49.9316 121.484L50.5001 122.231C51.2581 123.037 51.9095 124.069 52.4543 125.326L52.8807 126.678L53.2005 127.318C53.3426 127.365 53.4848 127.235 53.6269 126.927L53.9822 125.646C54.0533 125.148 53.994 124.555 53.8045 123.867L53.1294 121.84L52.3833 119.99L51.9569 118.567L51.9924 117.713L52.2767 117.322C52.4662 117.037 52.5609 116.753 52.5609 116.468L52.3833 115.152C52.3122 114.773 52.3241 114.571 52.4188 114.547C52.632 114.5 52.9281 114.915 53.3071 115.792C53.6624 116.551 53.8045 117.168 53.7335 117.642V118.887C54.2546 120.358 54.7876 121.045 55.3324 120.95C55.7351 120.879 55.8298 120.429 55.6166 119.599L55.439 117.108C55.439 116.444 55.6048 115.875 55.9364 115.401C56.4576 114.713 56.7892 114.12 56.9313 113.622C57.4524 111.796 57.6656 110.053 57.5709 108.393C57.5472 107.848 57.405 107.148 57.1445 106.294C56.8129 105.18 57.1445 105.215 58.1393 106.401C58.8737 107.373 59.3711 108.44 59.6317 109.603C60.058 111.595 60.5437 112.923 61.0885 113.587C61.2543 113.776 61.5148 113.966 61.8701 114.156C62.2728 114.369 62.6045 114.464 62.865 114.44L63.2914 114.156L63.398 113.765L62.9006 110.029C62.8295 108.962 62.9005 108.429 63.1137 108.429C63.2322 108.429 63.3625 108.654 63.5046 109.104L64.002 110.705C64.5705 112.508 65.0443 113.634 65.4233 114.085L66.7735 115.33L68.1237 116.148C68.55 116.314 68.8698 116.48 69.083 116.646C69.3673 116.883 69.6041 117.239 69.7936 117.713C70.149 118.52 70.1845 119.314 69.9002 120.097L68.9054 121.733L68.0881 123.12C67.9223 123.547 67.9105 123.998 68.0526 124.472C68.1473 124.733 68.479 125.089 69.0475 125.539L71.4281 126.891C72.5177 127.294 73.3586 127.78 73.9508 128.35C74.543 128.966 74.1758 130.852 72.8493 134.006C72.6124 134.48 72.2808 134.658 71.8545 134.539L70.7174 134.006C70.1253 133.721 69.616 133.579 69.1896 133.579C68.7159 133.579 67.9105 133.935 66.7735 134.646C65.7075 135.286 65.0087 135.796 64.6771 136.176C64.3455 136.532 64.1086 137.207 63.9665 138.203C63.8244 139.128 63.8244 139.828 63.9665 140.302L64.4639 141.192C64.6061 141.429 64.5824 141.63 64.3929 141.796L63.6822 142.472C63.4454 142.686 63.1966 142.769 62.9361 142.721L61.9767 142.401L60.591 142.259L59.8093 144.358L60.1646 144.287C60.7095 144.168 61.3964 144.547 62.2255 145.425L64.0731 147.097C64.8074 147.287 66.2287 146.682 68.3368 145.283C68.7158 145.022 68.8935 144.678 68.8698 144.251C68.8224 143.563 68.8698 143.03 69.0119 142.65C69.2251 142.034 69.6515 141.559 70.2911 141.227C71.1201 140.919 71.7834 140.622 72.2808 140.338L74.9812 140.48L77.5395 141.512C78.1317 141.654 78.7594 141.251 79.4226 140.302C79.9201 139.567 80.3346 138.713 80.6662 137.741L81.1992 135.856C81.2939 135.263 81.1637 134.682 80.8083 134.113C80.4767 133.567 80.2872 132.251 80.2398 130.164L80.3109 125.753C80.3109 124.97 80.0385 124.188 79.4937 123.405L77.8592 120.808C77.4329 119.931 77.3144 119.018 77.5039 118.069C77.7645 116.717 77.8829 115.828 77.8592 115.401C77.8119 114.761 77.4447 113.575 76.7578 111.844C76.1182 110.255 75.834 109.14 75.905 108.5C75.9524 107.859 76.3669 106.472 77.1486 104.338C77.954 102.085 78.4159 100.626 78.5343 99.9621C78.6765 99.0846 78.7357 98.1123 78.712 97.0451L78.6765 95.6933L78.4988 96.3692C78.3093 96.9384 78.0369 97.5313 77.6816 98.1479C77.3973 98.6696 76.9117 99.2151 76.2248 99.7843C75.4668 100.401 74.922 100.958 74.5904 101.456C74.2587 101.954 74.0337 102.559 73.9153 103.27C73.5836 101.278 73.477 99.7961 73.5955 98.8238C73.6665 98.1834 74.1403 97.5194 75.0167 96.8317L77.2197 95.3732C77.6934 95.0411 78.5936 94.2822 79.9201 93.0965L81.8032 91.4245L80.0622 92.2783C78.8067 92.8949 77.9066 93.2743 77.3618 93.4166L75.7629 93.5233L74.2706 93.2388C73.2994 93.0965 72.1979 93.6419 70.9662 94.8751C70.7293 95.1123 70.5516 95.5985 70.4332 96.3336C70.2911 97.1162 69.9831 97.8396 69.5094 98.5036C68.6329 99.6894 68.1355 100.614 68.0171 101.278C68.8935 95.5866 69.3909 92.0293 69.5094 90.6063C69.5804 89.6577 69.1896 88.1162 68.3368 85.9818C67.7683 84.4877 67.0577 82.9106 66.205 81.2505C65.7312 80.3019 65.3759 78.4402 65.139 75.6655L64.9258 71.7524L64.4995 72.7841C64.2152 73.6378 64.0731 74.4442 64.0731 75.2031C64.0731 75.8434 63.931 76.9106 63.6467 78.4047L63.1137 81.7486C62.9953 83.0529 62.8887 83.5984 62.794 83.3849C62.4623 82.9581 62.1307 82.2466 61.7991 81.2505C61.4675 80.2782 61.5267 78.3691 61.9767 75.5232L61.6214 76.9817L60.6621 79.792C60.3305 80.5272 60.2357 81.4877 60.3778 82.6735L60.8042 85.6972C60.8753 86.5035 60.5318 87.4877 59.7738 88.6498L57.8551 91.2822C57.1919 92.2546 56.8128 93.3455 56.7181 94.555C56.268 93.7961 55.9364 92.9186 55.7232 91.9225L55.51 89.4324C55.4627 88.1992 55.3205 87.1201 55.0837 86.1952Z" fill="#E50020"/>
<path d="M148.886 219.025C152.013 216.749 154.891 214.33 157.52 211.769L160.541 208.567L132.897 201.132C130.292 206.041 126.975 210.44 122.948 214.33C116.624 220.401 109.375 224.243 101.203 225.856C85.6879 228.891 70.9542 225.5 57.0023 215.682C54.0887 213.618 51.3646 211.057 48.8301 207.998C57.5708 220.543 68.0288 228.346 80.2042 231.405C85.3444 232.709 91.2426 233.314 97.8988 233.219L117.05 231.761C128.254 230.48 138.866 226.235 148.886 219.025Z" fill="#DDD583"/>
<path d="M129.984 200.421L117.441 197.006C114.22 202.864 109.293 207.571 102.66 211.128C95.8617 214.757 88.3646 216.571 80.1687 216.571C73.0388 216.571 66.3826 215.172 60.2001 212.374C54.2072 209.646 49.3749 205.935 45.7033 201.239C48.759 206.789 52.7741 211.247 57.7485 214.615C71.4636 223.887 85.8774 227.042 100.99 224.077C108.783 222.536 115.487 218.883 121.101 213.121C124.228 209.895 127.189 205.662 129.984 200.421Z" fill="#D18200"/>
<path d="M59.9515 139.093L60.4489 136.282L58.9921 137.563L57.713 139.377L53.4137 145.176C49.6948 150.488 46.6154 156.701 44.1756 163.816C41.8305 170.646 40.658 176.563 40.658 181.567C40.658 188.539 42.3398 195.097 45.7034 201.239C49.375 205.935 54.2073 209.646 60.2002 212.374C66.3827 215.172 73.0389 216.571 80.1688 216.571C88.3647 216.571 95.8618 214.757 102.66 211.129C109.293 207.571 114.22 202.864 117.441 197.006L102.838 193.057L102.056 193.804C100.73 194.706 98.0766 196.128 94.0971 198.073C88.341 200.895 82.3007 201.358 75.9761 199.461C68.3487 197.184 61.9294 191.694 56.7181 182.99C53.3545 177.369 52.0754 170.705 52.8807 162.998C53.4729 157.448 55.0718 151.674 57.6775 145.674C58.9803 142.685 60.0936 140.409 61.0174 138.844L61.3727 137.172L59.9515 139.093Z" fill="#F29600"/>
<path d="M123.304 210.666C125.578 207.939 127.804 204.524 129.984 200.421L102.873 193.093L102.767 193.271C102.553 193.508 102.044 193.864 101.239 194.338C100.765 196.425 100.528 198.536 100.528 200.67C100.528 204.678 101.322 208.496 102.909 212.125C104.448 215.635 106.616 218.718 109.411 221.374C114.693 218.979 119.324 215.409 123.304 210.666Z" fill="#D18200"/>
<path d="M153.612 215.361C155.033 212.942 156.099 210.346 156.81 207.571L132.897 201.132C130.978 204.808 128.562 208.259 125.649 211.484C121.314 216.369 116.387 220.105 110.868 222.69C113.378 224.753 116.126 226.342 119.111 227.456C122.238 228.618 125.471 229.211 128.811 229.235C137.67 226.413 145.937 221.788 153.612 215.361Z" fill="#DDD583"/>
<path d="M186.692 32.337L197.031 43.7916C197.458 44.3845 197.671 46.0564 197.671 48.8074C197.671 51.8905 197.363 55.1039 196.747 58.4478C196.368 60.6297 195.515 63.4399 194.189 66.8787C192.839 70.436 191.678 72.8076 190.707 73.9934L185.448 79.9341L180.58 85.448C179.846 86.5152 179.325 88.282 179.017 90.7484C178.354 95.0884 177.809 97.8868 177.382 99.1438C176.79 100.851 176.056 102.5 175.179 104.088C174.54 105.227 173.581 106.756 172.301 108.677C170.572 111.215 168.571 113.646 166.297 115.97L164.733 115.33L162.85 115.223C162.211 115.436 161.76 116.029 161.5 117.002L161.038 119.421L158.8 120.915C158.349 121.223 158.065 121.674 157.947 122.266C157.876 122.812 158.006 123.31 158.338 123.761L163.525 130.484L166.794 138.772C167.055 139.46 167.552 139.863 168.286 139.982C168.618 140.053 169.104 139.935 169.743 139.626L171.022 138.772C173.533 135.737 176.115 132.986 178.768 130.519C182.748 126.844 185.922 124.78 188.291 124.33C190.02 123.998 191.796 124.14 193.62 124.757C194.165 124.97 195.586 125.646 197.884 126.784C199.305 127.496 200.336 127.934 200.975 128.1C202.041 128.385 202.989 128.314 203.818 127.887C204.505 127.531 204.896 126.927 204.99 126.073L204.919 124.436L204.742 123.654C204.528 122.278 204.86 120.772 205.736 119.136C206.305 118.14 207.406 117.132 209.041 116.112C211.457 114.571 214.169 113.8 217.177 113.8C224.118 113.8 231.437 116.693 239.136 122.48C243.518 125.753 247.308 129.322 250.506 133.187C250.624 134.184 250.624 135.405 250.506 136.852L250.293 139.164C250.293 140.35 250.577 141.393 251.145 142.294C251.738 143.219 252.448 143.682 253.277 143.682C254.059 143.682 254.758 143.385 255.374 142.792C256.155 142.057 256.605 140.99 256.724 139.591L256.759 139.377C257.257 133.733 257.577 129.274 257.719 126.002C257.813 123.796 257.813 122.468 257.719 122.017C257.292 119.1 256.345 114.488 254.876 108.179C253.502 102.25 252.259 97.3414 251.145 93.452C250.174 90.037 248.611 85.4006 246.455 79.5428C244.442 74.0645 243.127 70.7799 242.511 69.689C241.706 68.2424 238.484 64.2344 232.847 57.6652C227.28 51.1909 223.798 47.3845 222.401 46.2462C221.24 45.2975 219.392 44.254 216.858 43.1157L214.584 42.0841C213.613 41.6335 213.02 41.3252 212.807 41.1592L203.995 34.3291L194.899 27.3923C193.123 26.1116 191.429 25.3409 189.818 25.08C188.137 24.8191 186.881 25.163 186.052 26.1116C185.436 26.8231 185.152 27.748 185.199 28.8864C185.27 30.167 185.768 31.3172 186.692 32.337Z" fill="#0D131A"/>
<path d="M222.649 61.6848C217.462 57.2737 214.43 54.8785 213.553 54.499C212.369 54.333 210.711 54.5227 208.579 55.0682C206.423 55.6374 205.144 56.2421 204.741 56.8824C204.481 57.3805 202.977 61.9576 200.229 70.6138L198.275 76.4478C197.777 77.7521 194.307 81.2146 187.864 86.8352C187.035 87.5704 185.969 90.1672 184.666 94.6258L183.813 97.4716L182.143 103.91L179.869 113.266C179.372 115.187 178.922 116.278 178.519 116.539C176.932 117.63 175.132 119.326 173.119 121.626C172.74 122.077 171.934 123.808 170.702 126.82L167.362 135.251L168.606 138.061C170.548 135.903 172.799 133.673 175.357 131.373C180.474 126.796 184.571 124.223 187.651 123.654C190.588 123.108 193.81 123.63 197.315 125.219L200.584 126.749C201.603 127.152 202.361 127.223 202.858 126.962C203.119 126.82 203.296 126.333 203.391 125.503L203.462 124.33C203.296 123.95 203.214 123.428 203.214 122.764C203.214 121.46 203.604 120.084 204.386 118.638C205.049 117.381 206.376 116.207 208.366 115.116C210.971 113.669 213.944 112.946 217.284 112.946C224.011 112.946 230.952 115.377 238.105 120.239C242.535 123.25 246.657 126.879 250.47 131.124C250.21 121.543 249.925 116.171 249.617 115.009C248.599 110.859 246.42 104.041 243.08 94.5546C238.626 81.9617 235.061 73.9695 232.385 70.5782C231.248 69.1552 228.003 66.1908 222.649 61.6848Z" fill="#008086"/>
<g filter="url(#filter0_d_4001_980)">
<path d="M188.539 31.4123C194.509 37.768 198.073 41.6692 199.234 43.1159C199.992 44.0882 200.241 46.3887 199.98 50.0171C199.815 52.4361 199.436 55.2464 198.843 58.448C198.464 60.6061 197.505 63.5232 195.965 67.1991C194.402 70.8987 193.052 73.4481 191.915 74.8473L182.179 86.2308C181.516 87.1083 180.936 89.053 180.438 92.0648C179.822 95.7645 179.348 98.0886 179.017 99.0372C178.401 100.84 177.773 102.44 177.134 103.84L174.753 108.464C173.877 110.101 172.408 112.164 170.347 114.654C168.429 116.954 167.28 118.176 166.901 118.318L165.622 117.927C165.006 117.618 164.52 117.524 164.165 117.642C163.502 117.856 163.063 118.84 162.85 120.595L159.901 122.551L165.231 129.524L165.977 131.373C168.843 124.899 170.691 121.199 171.52 120.275C174.054 117.358 176.139 115.354 177.773 114.263C178.223 113.741 179.372 109.852 181.22 102.595L182.925 96.0491L183.778 93.2388L185.093 89.0767C185.614 87.8198 186.218 86.883 186.905 86.2664L192.377 80.9304C195.03 78.2031 196.475 76.5193 196.711 75.879L198.666 70.1161C201.792 60.7247 203.498 55.8156 203.782 55.3887C204.398 54.3689 205.997 53.5389 208.579 52.8986C210.924 52.3294 212.807 52.1515 214.228 52.365C215.105 52.5073 218.409 55.0923 224.142 60.12C229.685 64.9579 232.965 68.0291 233.984 69.3335C236.897 73.0331 240.593 81.5944 245.07 95.0174C247.32 101.729 249.286 108.144 250.968 114.263C251.347 115.828 251.667 122.029 251.927 132.867L252.247 139.164C252.247 139.709 252.354 140.184 252.567 140.587C252.78 140.966 253.017 141.156 253.277 141.156C253.609 141.156 253.846 141.061 253.988 140.871C254.249 140.587 254.414 140.041 254.485 139.235L254.947 131.978L255.338 125.041C255.314 122.528 254.628 118.033 253.277 111.559C252.093 105.772 250.944 101.029 249.831 97.3297C248.173 91.7803 246.183 85.8395 243.862 79.5075C241.919 74.29 240.687 71.207 240.166 70.2584C239.432 68.9303 236.412 65.124 231.106 58.8393C225.776 52.5073 222.46 48.8195 221.157 47.776C220.067 46.8985 217.912 45.7365 214.69 44.2898C213.08 43.5546 211.575 42.9143 210.178 42.3689L194.437 29.3846C193.135 28.2937 191.832 27.5466 190.529 27.1435C189.179 26.7403 188.291 26.8352 187.864 27.428C187.011 28.6613 187.236 29.9893 188.539 31.4123Z" fill="#F29600"/>
</g>
<path d="M205.523 65.4556C206.068 65.1947 206.873 64.9457 207.939 64.7086L210.569 64.3173C212.227 65.4556 215.235 67.8865 219.593 71.6098C224.189 75.5229 226.937 78.0486 227.837 79.1869C230.324 82.3411 233.77 90.0961 238.176 102.452C241.54 111.796 243.755 118.543 244.821 122.693L245.034 125.681C246.834 127.318 248.646 129.132 250.47 131.124C250.21 121.543 249.925 116.171 249.617 115.009C248.599 110.859 246.42 104.041 243.08 94.5546C238.626 81.9617 235.061 73.9695 232.385 70.5782C231.248 69.1552 228.003 66.1908 222.649 61.6848C217.462 57.2737 214.43 54.8785 213.553 54.499C212.369 54.333 210.711 54.5227 208.579 55.0682C206.423 55.6374 205.144 56.2421 204.741 56.8824C204.481 57.3805 202.977 61.9576 200.229 70.6138L198.275 76.4478C197.777 77.7521 194.307 81.2146 187.864 86.8352C187.035 87.5704 185.969 90.1672 184.666 94.6258L183.813 97.4716L182.143 103.91L179.869 113.266C179.372 115.187 178.922 116.278 178.519 116.539C176.932 117.63 175.132 119.326 173.119 121.626C172.74 122.077 171.934 123.808 170.702 126.82L167.362 135.251L168.606 138.061L171.697 134.859C172.74 132.251 173.415 130.721 173.723 130.27C175.57 128.136 177.122 126.666 178.377 125.859C179.206 125.29 179.846 124.401 180.296 123.191C180.627 122.337 181.16 120.369 181.895 117.286L183.352 111.274L184.986 105.049L185.874 102.061C186.443 100.116 186.999 97.7325 187.544 94.9104L188.184 91.2819L198.097 82.7443C199.779 81.2028 200.868 79.6968 201.366 78.2265L205.523 65.4556Z" fill="#00666C"/>
<path d="M5.5528 94.733C4.74742 96.7963 3.74071 101.788 2.53264 109.709C1.37195 117.298 0.791611 122.314 0.791611 124.757V125.54L0.898209 141.085C1.20615 144.002 2.4379 145.437 4.59348 145.39C5.54097 145.366 6.21605 144.927 6.61874 144.073C6.99774 143.267 7.18726 141.939 7.18726 140.089C7.18726 138.927 7.30569 137.86 7.54257 136.887C12.3038 132.192 17.3018 127.508 22.5368 122.836C29.6431 116.528 34.4042 112.852 36.8204 111.808C39.7339 110.551 43.3463 110.006 47.6574 110.172C51.1869 110.338 53.6978 110.788 55.1901 111.524C55.877 111.856 57.5588 113.611 60.2355 116.789L63.3268 120.168C64.0374 120.856 64.7006 121.235 65.3165 121.306L66.6667 121.128L68.763 120.239C72.3635 118.674 74.9929 117.666 76.651 117.215C80.5121 116.196 83.7809 116.231 86.4576 117.322C90.2476 118.864 94.4759 121.235 99.1423 124.437C102.695 126.879 105.076 128.706 106.284 129.915C106.687 130.366 107.907 132.583 109.944 136.567L116.055 148.627C116.363 149.196 117.05 149.504 118.116 149.552C118.874 149.552 119.466 149.231 119.893 148.591L135.988 121.484C136.367 120.868 136.391 120.239 136.059 119.599C135.704 118.935 135.171 118.579 134.46 118.532L127.603 118.354C126.608 115.437 125.755 113.705 125.045 113.16C124.642 112.875 123.872 112.638 122.735 112.449L119.431 112.52L113.746 108.749L105.112 102.488C100.398 98.8833 96.3709 94.982 93.0309 90.7844C92.4387 89.3852 91.4794 86.2429 90.1529 81.3574C88.7553 76.1874 87.4407 70.8514 86.2089 65.3494C85.0719 60.2506 84.1244 55.1399 83.3664 50.0173C82.6795 45.3453 82.3715 42.3572 82.4426 41.0528C82.49 40.3414 83.1888 38.9303 84.5389 36.8196C86.0076 34.4955 87.9855 31.7682 90.4727 28.6377C91.4676 27.4045 92.119 26.1001 92.4269 24.7246C92.8059 23.0646 92.569 21.6179 91.7163 20.3847C91.0767 19.4598 90.2832 18.9143 89.3357 18.7483C88.2934 18.5823 87.1446 18.7958 85.8891 19.3886C84.8232 19.8867 83.8402 20.5507 82.94 21.3807L77.1484 26.9658L71.6055 32.3373C71.416 32.5034 70.587 32.7287 69.1184 33.0132L66.2048 33.618C65.5178 33.8314 62.7582 35.1832 57.926 37.6734L50.038 41.5864C47.7166 42.3216 45.3479 42.8315 42.9318 43.1161L40.0892 43.5074C38.9996 43.6971 38.3127 43.9343 38.0284 44.2189C36.3703 45.7841 33.0541 50.8711 28.0797 59.4798L17.7045 77.8001C15.5726 81.476 12.9433 85.2824 9.81656 89.2192L5.5528 94.733Z" fill="#0D131A"/>
<path d="M13.9382 87.8313L10.5983 92.3491L7.86238 96.5112C7.08069 98.4796 6.03844 103.14 4.73563 110.492C3.43282 117.772 2.7814 122.527 2.7814 124.756V132.547L2.888 140.444C2.98274 141.274 3.13673 141.879 3.34991 142.259C3.63417 142.757 4.04871 142.994 4.59352 142.97C4.94882 142.946 5.20937 142.472 5.37518 141.547C5.49362 140.907 5.55284 140.195 5.55284 139.413L5.62392 136.247L8.04004 110.029V109.887C10.3851 101.207 15.2766 90.3333 22.7145 77.266C29.4654 65.4319 34.8544 57.5109 38.8812 53.503C39.9946 52.3647 44.9808 50.3133 53.8399 47.3488C62.0358 44.5741 66.3943 43.1867 66.9154 43.1867C68.3841 43.0682 69.8764 43.3883 71.3924 44.1472C72.9084 44.9298 74.0691 45.9733 74.8745 47.2777C75.6798 48.5583 77.8354 55.8627 81.3412 69.1909C82.3834 73.2462 83.5086 79.2581 84.7166 87.2266C85.4036 91.7325 85.8536 94.1989 86.0668 94.6258C86.4458 95.3373 89.4068 97.6851 94.9497 101.669L99.0002 104.658C99.8056 105.322 100.658 106.377 101.558 107.824C102.032 108.559 102.707 109.756 103.584 111.416L104.365 112.875C104.484 113.017 105.112 113.219 106.249 113.48C108.475 114.025 110.276 114.535 111.649 115.009C113.45 115.626 115.807 118.543 118.72 123.76C120.662 127.247 122.7 131.468 124.831 136.425L134.318 120.488L126.111 119.847L125.293 117.535C124.678 115.946 124.156 114.997 123.73 114.689C123.138 114.286 122.143 114.096 120.745 114.12L118.862 114.262L112.147 109.709L103.939 104.088C102.968 103.353 100.658 101.219 97.0105 97.6851C93.3863 94.1515 91.4794 92.1831 91.2899 91.7799C90.0819 89.1712 87.8434 80.7048 84.5745 66.3806C81.2109 51.582 79.6593 42.8666 79.9199 40.2341C80.0147 39.3092 81.3412 37.0563 83.8994 33.4752L88.7317 27.1431C89.4186 26.2894 89.8924 25.3052 90.1529 24.1906C90.4609 23.0048 90.4135 22.0562 90.0108 21.3447C89.6081 20.6569 88.8027 20.5502 87.5947 21.0245C86.5287 21.4277 85.4391 22.1392 84.3258 23.1589L78.5697 29.0285L73.2756 34.4001L70.2554 34.8981L66.0982 35.7875C65.127 36.1195 60.0816 38.4792 50.9619 42.8666L44.7794 44.6097C41.629 45.416 39.9235 45.9377 39.6629 46.1749C37.4126 48.333 32.5803 55.7441 25.1661 68.4082L13.9382 87.8313Z" fill="#F29600"/>
<path d="M9.24811 110.314L7.04516 134.86C11.9722 130.211 16.6978 125.919 21.2222 121.982C28.5416 115.626 33.516 111.879 36.1453 110.741C39.3431 109.365 43.2042 108.832 47.7285 109.14C51.329 109.377 54.0294 109.946 55.8297 110.848C56.6114 111.227 58.2695 112.816 60.804 115.614C63.1491 118.176 64.7717 119.539 65.6718 119.705C66.2167 119.824 67.2826 119.563 68.8697 118.923L73.8085 116.931C78.7829 115.176 83.1059 115.045 86.7775 116.539C90.8517 118.223 95.2931 120.512 100.102 123.405C104.152 125.848 106.687 127.555 107.705 128.527C108.321 129.144 110.252 132.5 113.497 138.595L118.187 147.559L123.055 139.733C119.597 131.124 117.678 126.393 117.299 125.539C115.025 120.464 113.189 117.689 111.792 117.215C110.797 116.859 108.831 116.373 105.893 115.757L104.117 115.294L103.051 114.512L102.127 112.84L100.493 109.069C99.7109 107.385 99.0002 106.27 98.3607 105.725L96.5486 104.587L93.9903 102.986L87.6302 98.2901C85.901 96.9383 84.8943 95.966 84.61 95.3731L83.9705 92.8474L83.1177 87.4758L81.9097 79.0093C81.3648 75.4046 80.7845 72.4283 80.1686 70.0804L76.3668 55.5665C75.2298 51.3451 74.531 49.021 74.2704 48.5941C73.6309 47.5981 72.5175 46.8036 70.9305 46.2107C69.4855 45.6415 68.1354 45.4162 66.8799 45.5348C65.6955 45.7245 61.3844 47.1 53.9465 49.6613C45.8217 52.4361 41.3092 54.274 40.4091 55.1752C36.2874 59.3254 30.863 67.0567 24.1357 78.369C16.4847 91.2229 11.5221 101.871 9.24811 110.314Z" fill="#008086"/>
<path d="M12.8368 129.488L13.7961 118.852C16.0227 110.67 20.8669 100.318 28.3284 87.796C34.8662 76.8631 40.0775 69.4164 43.9622 65.4559C45.1229 64.6496 49.1972 63.0488 56.185 60.6535C62.4385 58.5191 66.5957 57.191 68.6565 56.6693C69.3671 56.6456 70.1488 56.7997 71.0015 57.1317C71.8543 57.44 72.4346 57.7721 72.7426 58.1278C73.0979 59.0764 74.5665 64.4836 77.1485 74.3492L78.2855 78.7959C79.0435 81.6655 79.8133 85.9699 80.595 91.709L81.1635 95.8355L82.1939 101.919C82.4308 103.199 82.7032 104.124 83.0111 104.693C83.4375 105.571 84.385 106.626 85.8536 107.859L93.3863 113.551L96.4064 115.436L97.579 116.148C106.059 123.784 110.82 127.78 111.863 128.136C113.189 129.227 115.83 134.836 119.786 144.962V144.998L123.055 139.733C119.597 131.124 117.678 126.393 117.299 125.539C115.025 120.464 113.189 117.689 111.792 117.215C110.797 116.859 108.831 116.373 105.893 115.757L104.117 115.294L103.051 114.512L102.127 112.84L100.493 109.069C99.7109 107.385 99.0002 106.27 98.3607 105.725L96.5486 104.587L93.9903 102.986L87.6302 98.2901C85.901 96.9383 84.8943 95.966 84.61 95.3731L83.9705 92.8474L83.1177 87.4758L81.9097 79.0093C81.3648 75.4046 80.7845 72.4283 80.1686 70.0804L76.3668 55.5665C75.2298 51.3451 74.531 49.021 74.2704 48.5941C73.6309 47.5981 72.5175 46.8036 70.9305 46.2107C69.4855 45.6415 68.1354 45.4162 66.8799 45.5348C65.6955 45.7245 61.3844 47.1 53.9465 49.6613C45.8217 52.4361 41.3092 54.274 40.4091 55.1752C36.2874 59.3254 30.863 67.0567 24.1357 78.369C16.4847 91.2229 11.5221 101.871 9.24811 110.314L7.04516 134.86L12.8368 129.488Z" fill="#00666C"/>
<path d="M229.436 136.78L230.146 136.638L231.39 135.749C232.219 134.8 232.574 133.626 232.456 132.227C232.385 131.278 231.52 129.725 229.862 127.567C228.488 125.765 227.458 124.579 226.771 124.01L226.487 123.761L227.908 119.883L228.121 119.456C228.453 118.769 228.642 118.164 228.69 117.642C228.737 116.978 228.607 116.231 228.299 115.401C227.73 114.002 226.759 113.017 225.385 112.448C224.438 112.069 223.087 111.903 221.335 111.95L218.599 112.27C217.793 112.602 216.479 114.061 214.655 116.646L214.051 116.895L213.269 117.108L210.64 115.863C209.432 114.962 208.543 114.405 207.975 114.191C207.217 113.907 206.364 113.895 205.416 114.156C204.114 114.488 203 115.733 202.077 117.891C201.271 119.812 200.987 121.33 201.224 122.444C201.319 122.942 201.638 123.761 202.183 124.899L203.782 128.029L204.173 128.741L204.066 129.559C199.305 133.852 196.202 135.808 194.757 135.429L191.986 134.753C190.114 134.278 188.338 133.686 186.656 132.974C183.885 131.812 181.516 130.65 179.55 129.488C178.981 127.994 178.507 126.962 178.128 126.393C177.157 125.018 175.736 123.927 173.865 123.12C172.278 122.433 169.696 122.053 166.119 121.982C164.011 121.935 162.139 121.97 160.505 122.089L157.876 122.338L166.972 141.903L168.322 141.654L174.469 139.662L178.519 141.69L184.204 144.429L186.62 145.709L188.681 146.954C190.932 148.14 192.708 148.792 194.011 148.911C196.996 149.124 200.608 147.962 204.848 145.425C207.477 143.836 210.178 141.844 212.949 139.448C213.826 139.947 214.619 140.207 215.33 140.231C216.325 140.279 217.414 139.958 218.599 139.271C219.286 138.891 220.044 138.156 220.873 137.065L222.472 134.682L223.324 136.425L223.928 137.065L229.436 136.78Z" fill="#0D131A"/>
<path d="M229.365 134.931C229.649 134.931 229.921 134.824 230.182 134.611C230.727 134.184 230.964 133.473 230.892 132.476C230.845 131.765 230.585 131.03 230.111 130.271L228.299 127.959L226.025 125.789L224.603 124.508C224.343 124.105 224.888 122.326 226.238 119.172C226.854 117.749 227.162 116.8 227.162 116.326C227.185 115.212 226.416 114.334 224.852 113.694L221.583 113.516L219.203 113.907L217.71 115.615L216.147 117.714C215.673 118.378 214.832 118.757 213.624 118.852L210.249 117.215C209.443 116.599 208.745 116.231 208.152 116.113L206.163 116.291C205.428 116.48 204.718 117.405 204.031 119.065C203.391 120.631 203.143 121.757 203.285 122.445C203.379 122.967 203.77 123.915 204.457 125.291L205.807 127.959C206.139 128.623 206.092 129.5 205.665 130.591L201.153 134.184C197.813 136.508 195.302 137.445 193.62 136.994L190.316 135.856L185.341 133.935L178.022 130.84C177.903 130.2 177.584 129.465 177.063 128.635C175.997 126.974 174.386 125.682 172.23 124.757C170.785 124.14 168.417 123.82 165.124 123.797L160.647 123.939L168.038 139.876L173.261 137.137C178.14 139.674 182.025 141.536 184.915 142.722C185.957 143.172 187.746 144.05 190.28 145.354C191.938 146.232 193.158 146.694 193.94 146.741C196.64 146.955 200.039 145.816 204.137 143.326C206.648 141.785 209.207 139.888 211.812 137.635C211.907 137.563 211.788 137.231 211.457 136.639L210.924 135.749L212.807 137.065C213.139 137.445 213.612 137.729 214.228 137.919C215.436 138.322 216.763 138.121 218.208 137.314C219.44 136.603 220.47 135.583 221.299 134.255L222.152 132.476L224.675 135.18L229.365 134.931Z" fill="#F29600"/>
<path d="M206.234 123.085L209.112 124.828C210.723 125.611 211.836 126.014 212.452 126.037C212.831 126.037 213.151 125.931 213.411 125.717C213.861 125.243 213.92 124.033 213.589 122.089C213.281 120.286 212.914 119.029 212.487 118.318C211.919 117.44 211.149 116.8 210.178 116.397L207.442 116.29C206.613 116.599 206.009 117.168 205.63 117.998C205.298 118.709 205.203 119.48 205.346 120.31L205.417 120.808C205.559 121.875 205.831 122.634 206.234 123.085Z" fill="#0D131A"/>
<path d="M207.548 116.574L210.071 116.717C210.971 117.096 211.682 117.689 212.203 118.495C212.606 119.136 212.961 120.333 213.269 122.088C213.577 123.962 213.541 125.088 213.162 125.468C212.997 125.634 212.772 125.717 212.487 125.717C211.919 125.693 210.841 125.302 209.254 124.543C207.714 123.784 206.79 123.227 206.482 122.871C206.103 122.444 205.855 121.744 205.736 120.772L205.665 120.274C205.547 119.491 205.63 118.768 205.914 118.104C206.246 117.369 206.79 116.859 207.548 116.574ZM212.772 118.14C212.156 117.191 211.327 116.515 210.284 116.112L207.335 115.97C206.554 116.278 205.949 116.788 205.523 117.499C205.144 118.14 204.955 118.851 204.955 119.634L205.097 120.879C205.239 121.993 205.535 122.8 205.985 123.298C206.34 123.725 207.335 124.329 208.97 125.112C210.651 125.918 211.812 126.333 212.452 126.357C212.925 126.381 213.316 126.239 213.624 125.93C214.169 125.385 214.264 124.08 213.909 122.017C213.601 120.191 213.222 118.899 212.772 118.14Z" fill="#0D131A"/>
<path d="M208.046 121.235C208.472 121.756 210.06 123.013 212.807 125.005C213.02 124.792 213.032 123.879 212.843 122.266C212.63 120.63 212.345 119.48 211.99 118.816C211.587 118.128 211.019 117.606 210.285 117.25C209.527 116.871 208.828 116.8 208.188 117.037C207.501 117.274 207.028 117.748 206.767 118.46C206.838 119.124 206.992 119.681 207.229 120.132L208.046 121.235Z" fill="white"/>
<path d="M207.193 122.267C207.454 122.599 208.389 123.18 210 124.01C211.682 124.864 212.618 125.196 212.807 125.006C210.059 123.014 208.472 121.757 208.046 121.235L207.229 120.132C206.992 119.682 206.838 119.124 206.767 118.46C206.601 118.911 206.542 119.397 206.589 119.919L206.767 121.271L207.193 122.267Z" fill="#DBDCDC"/>
<path d="M229.898 132.085C229.424 131.682 228.749 131.397 227.872 131.231C226.949 131.065 226.143 131.255 225.456 131.8C224.983 132.18 224.651 132.654 224.461 133.223L222.614 136.14C222.353 136.425 221.879 136.686 221.193 136.923L220.091 137.243L220.588 138.275C221.11 139.342 222.626 139.804 225.137 139.662L228.015 139.271C229.009 138.962 229.803 138.37 230.395 137.492C230.798 136.899 231.047 136.223 231.141 135.464C231.236 134.729 231.153 134.089 230.893 133.543L230.786 133.366C230.549 132.82 230.253 132.393 229.898 132.085Z" fill="#0D131A"/>
<path d="M229.791 132.227C230.099 132.488 230.383 132.879 230.644 133.401L230.75 133.614C230.987 134.136 231.07 134.752 230.999 135.464C230.904 136.199 230.668 136.851 230.289 137.42C229.696 138.25 228.927 138.808 227.979 139.092L225.137 139.484C222.673 139.626 221.216 139.199 220.766 138.203L220.304 137.349L221.228 137.065C221.986 136.804 222.495 136.531 222.756 136.246C223.088 135.867 223.692 134.918 224.568 133.401L224.604 133.365L224.71 133.187C224.9 132.642 225.219 132.191 225.669 131.835C226.285 131.361 227.02 131.207 227.872 131.373C228.701 131.539 229.341 131.823 229.791 132.227ZM230.537 137.598C231.082 136.792 231.354 135.914 231.354 134.966C231.354 134.397 231.248 133.899 231.035 133.472L230.928 133.294C230.644 132.701 230.336 132.262 230.004 131.978C229.507 131.527 228.808 131.219 227.908 131.053C227.008 130.887 226.226 131.053 225.563 131.551C225.065 131.906 224.686 132.393 224.426 133.009L222.507 136.033C222.27 136.318 221.808 136.555 221.121 136.744L220.056 137.1L219.949 137.171L219.913 137.242L220.446 138.345C220.991 139.46 222.555 139.946 225.137 139.804L228.05 139.412C229.092 139.08 229.921 138.476 230.537 137.598Z" fill="#0D131A"/>
<path d="M229.969 133.97L229.4 133.08C229.045 132.748 228.512 132.523 227.801 132.404C227.067 132.262 226.487 132.452 226.06 132.974C225.823 133.211 225.669 133.472 225.598 133.756L224.817 135.072L223.609 136.851C223.23 137.278 222.614 137.622 221.761 137.883C226.025 138.499 228.761 137.195 229.969 133.97Z" fill="white"/>
<path d="M229.649 136.993C229.957 136.543 230.147 136.033 230.218 135.464C230.265 134.942 230.206 134.503 230.04 134.148L229.969 133.97C228.761 137.195 226.025 138.499 221.761 137.883C221.832 138.049 222.045 138.203 222.401 138.345L225.279 138.665L227.766 138.381C228.548 138.144 229.175 137.681 229.649 136.993Z" fill="#DBDCDC"/>
<path d="M221.726 116.218C220.991 117.048 220.683 118.009 220.802 119.1C220.873 120.072 221.169 120.76 221.69 121.163L223.218 122.586L224.746 124.294C225.03 124.744 225.196 125.491 225.243 126.535L225.492 127.46L226.522 127.424C227.138 127.234 227.73 126.867 228.299 126.321C229.436 125.207 230.004 123.701 230.004 121.803C230.004 120.001 229.235 118.056 227.695 115.969C227.505 115.709 227.115 115.46 226.522 115.222C225.978 115.033 225.468 114.926 224.994 114.902C223.668 114.831 222.578 115.27 221.726 116.218Z" fill="#0D131A"/>
<path d="M227.979 115.792C227.742 115.46 227.292 115.175 226.629 114.938L225.03 114.582C223.561 114.511 222.377 114.986 221.477 116.005C220.719 116.883 220.375 117.926 220.446 119.136C220.565 120.179 220.908 120.95 221.477 121.448L222.969 122.8C223.774 123.606 224.272 124.163 224.461 124.472C224.722 124.851 224.876 125.563 224.923 126.606L225.172 127.531L225.279 127.709L226.522 127.745H226.593C227.185 127.626 227.825 127.223 228.512 126.535C229.72 125.373 230.324 123.796 230.324 121.804C230.324 119.978 229.542 117.974 227.979 115.792ZM223.431 122.373L221.903 120.914C221.453 120.582 221.192 119.966 221.121 119.065L221.086 118.78C221.086 117.926 221.382 117.144 221.974 116.432C222.708 115.602 223.715 115.199 224.994 115.223L226.38 115.543L227.446 116.183C228.938 118.223 229.684 120.096 229.684 121.804C229.684 123.559 229.175 124.958 228.157 126.001C227.612 126.571 227.043 126.938 226.451 127.104L225.74 127.14L225.563 126.499C225.563 125.48 225.385 124.685 225.03 124.116C224.817 123.784 224.284 123.203 223.431 122.373Z" fill="#0D131A"/>
<path d="M223.147 119.919L225.314 121.875C226.262 123.085 226.487 124.52 225.989 126.18V126.357C226.439 126.215 226.901 125.919 227.375 125.468C228.299 124.543 228.761 123.274 228.761 121.662C228.761 120.713 228.512 119.67 228.015 118.531C227.636 117.678 227.209 116.942 226.735 116.326C226.428 115.946 225.764 115.757 224.746 115.757C223.609 115.78 222.768 116.112 222.223 116.753L221.868 117.215C222.105 118.401 222.531 119.302 223.147 119.919Z" fill="white"/>
<path d="M222.045 120.275C223.751 121.555 224.852 122.563 225.35 123.298C225.681 123.844 225.894 124.804 225.989 126.18C226.487 124.52 226.262 123.085 225.314 121.875L223.147 119.919C222.531 119.302 222.104 118.401 221.868 117.215C221.536 117.808 221.429 118.449 221.548 119.136C221.643 119.705 221.808 120.085 222.045 120.275Z" fill="#DBDCDC"/>
<path d="M222.152 128.385C222.152 126.772 221.548 125.314 220.34 124.009C219.108 122.705 217.71 122.029 216.147 121.982C217.924 124.306 218.634 126.262 218.279 127.851C218.042 128.918 217.083 129.82 215.401 130.555C214.003 131.171 212.629 131.503 211.279 131.551L212.843 133.33C213.459 133.851 214.181 134.112 215.01 134.112C216.739 134.112 218.338 133.567 219.807 132.476C221.37 131.29 222.152 129.926 222.152 128.385Z" fill="#D18200"/>
<path d="M216.929 123.085C215.792 121.282 215.129 120.476 214.939 120.666L216.396 123.191C217.367 125.065 217.734 126.559 217.497 127.673C217.284 128.527 216.431 129.322 214.939 130.057C213.542 130.745 212.251 131.089 211.066 131.089C210.237 131.089 209.349 130.887 208.401 130.484L207.229 129.95C208.295 131.017 209.598 131.551 211.137 131.551C212.464 131.551 213.861 131.231 215.33 130.59C217.059 129.855 218.042 128.942 218.279 127.851C218.563 126.594 218.113 125.005 216.929 123.085Z" fill="#0D131A"/>
<path d="M177.347 160.437L175.393 159.512L152.368 212.231L155.246 212.587C156.976 212.801 158.456 213.097 159.688 213.477C160.233 213.666 161.251 214.318 162.743 215.433L165.053 216.963C164.342 217.959 163.786 219.358 163.383 221.16C163.004 222.844 162.909 223.994 163.099 224.611C163.336 225.441 163.774 226.164 164.413 226.781C165.006 227.35 165.657 227.741 166.368 227.955C169.044 228.524 171.176 229.141 172.763 229.805C173.782 230.208 175.31 231.085 177.347 232.437L180.296 234.536L181.468 235.674C182.061 236.077 182.783 236.35 183.636 236.492C184.347 236.611 185.531 236.409 187.189 235.888L189.818 236.492L192.625 237.204C193.881 237.631 194.97 238.058 195.894 238.485L197.28 239.16C197.991 239.493 198.512 239.623 198.843 239.552C199.341 239.433 199.53 238.923 199.412 238.022C199.293 237.168 198.974 236.16 198.452 234.998L197.706 233.504L204.173 233.824C204.978 233.967 205.748 234.18 206.483 234.465L208.046 235.141L209.361 235.247C209.597 235.105 209.68 234.856 209.609 234.5C209.515 233.741 209.278 232.923 208.899 232.046C208.164 230.267 207.004 228.643 205.417 227.172L208.188 227.101C209.515 227.125 210.58 227.315 211.386 227.67C212.594 228.239 212.949 227.718 212.452 226.105C212.049 224.801 210.829 223.354 208.792 221.765C207.655 220.911 206.423 220.164 205.097 219.524C203.984 218.979 203.048 218.623 202.29 218.457L201.935 218.386L201.117 218.314L196.711 215.54C195.48 214.686 194.283 213.654 193.123 212.445L191.488 210.453L191.133 208.816L193.229 207.251C194.343 206.374 195.219 205.508 195.859 204.654C198.322 201.334 199.743 198.417 200.122 195.903C200.809 191.184 199.21 185.504 195.326 178.864C192.72 174.381 188.61 169.781 182.996 165.061C178.496 161.646 176.613 160.105 177.347 160.437Z" fill="#0D131A"/>
<path d="M182.25 166.235C180.853 165.073 179.479 164.089 178.129 163.283L176.494 162.393L155.531 210.453C157.355 210.666 158.954 210.987 160.328 211.413C161.062 211.651 161.997 212.255 163.134 213.228C164.414 214.319 165.397 215.03 166.084 215.362C166.486 215.575 167.114 215.967 167.967 216.536L169.104 217.319L168.109 217.461C167.422 217.556 166.96 217.674 166.723 217.817C166.439 218.006 166.143 218.623 165.835 219.666L165.195 222.619C165.669 223.378 166.735 224.101 168.393 224.789C169.577 225.263 170.833 225.655 172.159 225.963C173.391 226.247 174.718 226.663 176.139 227.208C177.821 227.825 179.112 228.441 180.012 229.058L182.677 230.73C183.529 231.204 184.287 231.477 184.951 231.548L186.727 234.216C188.812 233.528 191.192 232.497 193.869 231.121C196.735 229.627 198.926 228.24 200.442 226.959C202.172 225.512 203.166 224.149 203.427 222.868L203.285 221.374L195.255 216.358C193.857 215.386 192.578 214.247 191.417 212.943C190.517 211.923 189.949 211.129 189.712 210.56L189.57 209.564L188.184 209.99L184.418 210.275L186.372 209.848L187.9 209.279C188.279 209.16 188.764 208.923 189.357 208.568L190.174 208.034C190.979 207.512 192.14 206.232 193.656 204.192C195.551 201.702 196.7 198.915 197.102 195.832C197.789 190.923 196.569 185.611 193.443 179.895C190.434 174.417 186.704 169.864 182.25 166.235Z" fill="#F29600"/>
<path d="M168.393 224.789C166.735 224.101 165.669 223.378 165.195 222.619C165.077 223.615 165.053 224.22 165.124 224.433C165.408 225.168 165.953 225.761 166.758 226.212L168.748 226.959L173.012 228.275C173.509 228.37 174.753 229.022 176.743 230.232L180.402 232.508L181.859 233.753C182.475 234.275 183.209 234.607 184.062 234.749C184.536 234.821 185.424 234.643 186.727 234.216L184.95 231.548C184.287 231.477 183.529 231.204 182.676 230.73L180.012 229.058C179.112 228.441 177.821 227.824 176.139 227.208C174.717 226.662 173.391 226.247 172.159 225.963C170.833 225.654 169.577 225.263 168.393 224.789Z" fill="#D18200"/>
<path d="M187.544 211.378C188.018 211.069 188.219 210.868 188.148 210.773L187.438 210.986L185.945 211.484L183.991 211.662L182.89 211.805L183.956 212.089L185.91 212.018C186.455 211.923 186.999 211.71 187.544 211.378Z" fill="#0D131A"/>
<path d="M176.601 207.003C179.325 202.995 180.687 198.524 180.687 193.592C180.687 189.726 179.822 186.098 178.093 182.706C176.411 179.433 174.113 176.73 171.2 174.595L155.531 210.453C157.355 210.667 158.953 210.987 160.327 211.414C161.062 211.651 161.997 212.256 163.134 213.228C164.413 214.319 165.396 215.031 166.083 215.363L166.119 215.398C170.43 213.738 173.924 210.94 176.601 207.003Z" fill="#D18200"/>
<path d="M201.26 219.774C200.928 219.679 200.644 219.821 200.407 220.2C200.146 220.604 199.969 221.208 199.874 222.015C199.755 223.177 199.874 224.552 200.229 226.141H207.868C208.674 226.189 209.633 226.402 210.746 226.782L212.168 227.351C212.262 227.066 212.18 226.651 211.919 226.106C211.422 225.038 210.332 223.876 208.65 222.619C207.513 221.766 206.021 221.066 204.173 220.521L201.26 219.774Z" fill="white"/>
<path d="M204.67 224.646C202.041 224.456 200.62 224.089 200.407 223.543H200.371L200.62 225.642L207.904 225.678C208.662 225.702 209.514 225.868 210.462 226.176C208.97 225.346 207.039 224.836 204.67 224.646Z" fill="#DBDCDC"/>
<path d="M201.828 219.418L201.401 219.311L200.442 219.453C199.874 219.833 199.518 220.674 199.376 221.979V223.58L200.371 223.544V222.086C200.466 221.137 200.667 220.532 200.975 220.271C201.401 219.987 202.456 220.165 204.137 220.805C205.796 221.421 207.205 222.157 208.366 223.01C210.142 224.339 211.22 225.524 211.599 226.568L210.462 226.176L209.751 226.995L211.99 227.813H212.381C212.546 227.742 212.641 227.635 212.665 227.493C212.736 227.018 212.641 226.508 212.381 225.963C211.86 224.801 210.711 223.556 208.934 222.228C207.371 221.066 205.002 220.129 201.828 219.418Z" fill="#0D131A"/>
<path d="M207.868 226.638L209.751 226.994L210.462 226.176C209.514 225.868 208.662 225.702 207.904 225.678L200.62 225.642L200.371 223.543L199.376 223.579L199.731 226.247C199.803 226.508 199.968 226.638 200.229 226.638H207.868Z" fill="#0D131A"/>
<path d="M201.65 230.836C204.303 231.547 206.4 232.543 207.939 233.824L207.335 234.037L208.97 234.749C209.017 234.275 208.899 233.67 208.615 232.935C208.093 231.441 207.063 230.006 205.523 228.63C204.457 227.705 202.953 226.638 201.011 225.429L197.955 223.65C197.6 223.437 196.996 223.733 196.143 224.539C195.196 225.393 194.568 226.354 194.26 227.421L194.082 228.097L195.539 229.271C196.179 229.65 196.759 229.887 197.28 229.982L201.65 230.836Z" fill="white"/>
<path d="M203.818 232.864C204.505 232.983 205.677 233.374 207.335 234.038L207.939 233.825C206.4 232.544 204.303 231.548 201.65 230.837L197.28 229.983C196.759 229.888 196.178 229.651 195.539 229.271L194.082 228.097C193.774 229.497 193.715 230.825 193.904 232.082L203.818 232.864Z" fill="#DBDCDC"/>
<path d="M208.33 233.789L207.939 233.753C205.997 232.947 204.647 232.484 203.889 232.366L194.366 231.619C194.224 230.148 194.343 228.797 194.722 227.563C194.982 226.662 195.503 225.82 196.285 225.038C196.948 224.397 197.434 224.077 197.742 224.077L197.92 224.184C201.331 226.105 203.759 227.706 205.203 228.986C206.791 230.386 207.809 231.856 208.259 233.397L208.33 233.789ZM206.802 234.358C208.034 234.856 208.686 235.14 208.757 235.212L209.219 235.176L209.467 234.785C209.491 234.239 209.361 233.563 209.076 232.757C208.532 231.192 207.454 229.698 205.843 228.275C204.327 226.899 201.852 225.251 198.417 223.33L198.204 223.223C197.967 223.081 197.623 223.081 197.173 223.223C196.605 223.461 195.977 223.97 195.29 224.753C194.509 225.607 193.952 226.508 193.62 227.457C193.17 228.737 192.993 229.887 193.087 230.907L193.407 232.152C193.454 232.389 193.608 232.532 193.869 232.579L203.711 233.326C204.374 233.421 205.405 233.765 206.802 234.358Z" fill="#0D131A"/>
<path d="M191.026 228.346C190.742 228.109 189.972 228.299 188.717 228.915C187.39 229.556 186.466 230.255 185.945 231.014L185.803 231.263L186.407 230.943C186.407 231.797 186.834 232.425 187.686 232.828L191.915 234.607C194.496 235.769 196.238 236.789 197.138 237.666L196.818 237.951L198.097 238.52C198.286 238.212 198.346 237.773 198.275 237.204C198.18 236.066 197.54 234.892 196.356 233.682C193.585 230.765 191.808 228.986 191.026 228.346Z" fill="white"/>
<path d="M185.093 233.931L192.057 236.172C193.218 236.552 194.805 237.145 196.818 237.951L197.138 237.666C196.238 236.789 194.497 235.769 191.915 234.607L187.687 232.828C186.834 232.425 186.407 231.797 186.407 230.943L185.803 231.263C185.188 232.283 184.951 233.172 185.093 233.931Z" fill="#DBDCDC"/>
<path d="M186.372 231.299C186.798 230.659 187.58 230.042 188.717 229.449C189.712 228.928 190.399 228.691 190.778 228.738L196.037 234.038C197.126 235.153 197.718 236.22 197.813 237.24C197.861 237.643 197.659 237.762 197.209 237.596L192.235 235.71L188.184 234.465L185.732 233.54C185.496 232.971 185.709 232.224 186.372 231.299ZM191.346 227.955C191.157 227.813 190.849 227.754 190.423 227.778C189.712 227.872 188.859 228.204 187.864 228.774C186.798 229.39 186.029 230.042 185.555 230.73C184.915 231.679 184.56 232.556 184.489 233.363C184.418 233.908 184.489 234.311 184.702 234.572C184.773 234.691 185.034 234.786 185.484 234.857L187.9 235.426L191.915 236.635C193.265 237.086 194.663 237.608 196.108 238.201L197.884 238.948C198.145 239.066 198.358 239.007 198.524 238.77C198.737 238.367 198.82 237.845 198.772 237.204C198.701 235.948 198.014 234.655 196.712 233.327C193.727 230.244 191.939 228.453 191.346 227.955Z" fill="#0D131A"/>
<path d="M137.019 64.531C136.521 64.6496 136.119 64.9104 135.811 65.3136C135.503 65.7168 135.361 66.1792 135.384 66.701L135.811 78.1911C136.024 86.2782 136 91.5667 135.74 94.0569C135.408 97.045 134.461 100.982 132.897 105.867C131.215 111.085 129.403 115.448 127.461 118.958C126.466 120.737 124.322 124.176 121.03 129.274L112.538 142.792C109.411 148.034 107.232 152.207 106 155.314C103.039 162.832 100.943 169.022 99.711 173.883C97.4607 182.658 96.7856 190.401 97.6857 197.113C98.6806 204.417 101.713 210.133 106.782 214.259C111.756 218.338 118.353 220.568 126.573 220.947C136.427 221.398 145.381 219.915 153.434 216.5C164.023 212.042 172.432 204.477 178.662 193.805C184.394 183.963 185.946 172.911 183.316 160.65C181.398 151.709 177.181 142.01 170.667 131.551C164.887 122.231 161.382 109.401 160.15 93.0608C159.771 87.7011 160.375 80.788 161.962 72.3215L164.485 61.0804C164.532 60.7721 164.342 60.4519 163.916 60.1199L162.815 59.3373C162.246 58.7918 161.571 58.6139 160.789 58.8037L137.019 64.531Z" fill="#0D131A"/>
<path d="M174.398 196.543C166.06 203.516 157.212 207.891 147.856 209.67C138.476 211.448 130.339 210.251 123.446 206.077C122.072 210.014 120.366 212.836 118.329 214.543C117.382 215.373 116.15 216.132 114.634 216.82C118.116 218.267 122.096 219.097 126.573 219.31C135.313 219.69 143.284 218.528 150.485 215.824C160.292 212.124 168.263 205.697 174.398 196.543Z" fill="#DDD583"/>
<path d="M180.047 156.381C177.916 150.31 175.203 145.46 171.911 141.832C167.339 136.804 161.962 134.516 155.779 134.966C148.365 135.535 141.78 141.251 136.024 152.113C130.884 161.812 127.982 172.046 127.319 182.812C126.703 192.773 125.412 200.528 123.446 206.077C130.339 210.251 138.476 211.449 147.856 209.67C157.213 207.892 166.06 203.516 174.398 196.544L176.388 193.378C182.665 182.635 183.885 170.302 180.047 156.381Z" fill="#FFF697"/>
<path d="M125.684 137.67C125.684 134.895 124.82 132.358 123.091 130.057C116.79 139.828 112.502 146.931 110.228 151.366H110.37C114.61 151.366 118.223 150.026 121.207 147.346C124.192 144.69 125.684 141.464 125.684 137.67Z" fill="#D18200"/>
<path d="M137.552 66.6651L137.587 68.337L137.729 82.0683C137.729 86.7877 137.646 90.3806 137.48 92.847L137.374 94.0565C137.019 97.4716 136.107 101.657 134.638 106.614C133.027 112.069 131.262 116.527 129.344 119.99L118.684 136.958C113.189 145.638 109.636 152.017 108.025 156.096C105.04 163.685 102.92 169.958 101.665 174.915C99.5804 183.192 98.9645 190.496 99.8173 196.828C100.433 201.405 101.902 205.342 104.223 208.638C106.426 211.793 109.352 214.271 112.999 216.073C114.871 215.362 116.375 214.52 117.512 213.547C119.786 211.603 121.539 208.247 122.771 203.48C123.908 198.951 124.737 192.464 125.258 184.022C125.566 178.852 126.442 173.373 127.887 167.587C129.427 161.421 131.334 156.12 133.608 151.685C136.095 146.824 138.985 142.768 142.277 139.519C146.494 135.369 150.876 133.128 155.424 132.796C163.359 132.203 170.252 136.424 176.103 145.46C174.232 141.262 171.981 137.041 169.352 132.796C163.335 123.167 159.723 110.254 158.515 94.0565C158.302 90.8787 158.515 86.5743 159.155 81.1434C159.842 75.428 160.753 70.7323 161.89 67.0564L161.286 61.08V60.9377L137.552 66.6651Z" fill="#F29600"/>
<path d="M137.552 66.6651L137.587 68.337L137.729 82.0683C137.729 86.7877 137.646 90.3806 137.481 92.847L137.374 94.0565L136.663 98.6099C140.975 99.772 145.179 98.9182 149.277 96.0487C152.688 93.6534 155.85 89.9775 158.764 85.0209C159.356 77.8825 160.398 71.8943 161.891 67.0564L161.287 61.08V60.9377L137.552 66.6651Z" fill="#D18200"/>
<path d="M98.1832 166.555C94.5116 170.753 91.4678 175.282 89.0517 180.144C85.8302 186.571 84.2194 193.389 84.2194 200.599C84.2194 204.322 85.084 208.342 86.8132 212.658C87.6659 214.84 88.5305 216.678 89.407 218.172C89.5965 219.31 89.6912 220.46 89.6912 221.622C86.5408 224.041 84.4681 225.891 83.4732 227.172L81.8388 229.164L80.6307 230.587C79.5411 231.227 78.8305 231.915 78.4989 232.65C78.1909 233.385 78.0606 234.263 78.108 235.283L75.8695 239.374C75.0405 241.223 74.7089 242.99 74.8747 244.674C74.9694 245.575 75.1826 246.31 75.5142 246.88C75.9406 247.828 76.3907 248.326 76.8644 248.374L77.6461 247.804L78.108 247.2C79.2924 245.967 80.1215 245.231 80.5952 244.994L82.8692 244.14L85.6051 243.18L88.2344 243.322V244.959C88.2818 246.239 88.4595 247.306 88.7674 248.16C89.1227 249.18 89.5728 250.057 90.1176 250.793C90.6624 251.552 91.1006 251.884 91.4323 251.789C91.5981 251.765 91.9652 251.303 92.5337 250.401C92.9838 249.69 93.4812 249.073 94.0261 248.552L96.9396 246.631L99.8177 245.03L101.346 244.496L103.548 244.532C103.927 246.05 104.697 247.804 105.858 249.797C106.474 250.982 106.924 251.563 107.208 251.54C107.374 251.516 107.67 251.219 108.096 250.65L108.665 249.832C109.447 248.551 110.074 247.662 110.548 247.164L112.68 245.279L115.167 243.109L116.802 242.54L117.939 241.686C118.341 241.33 118.626 240.903 118.791 240.405C118.91 240.049 118.993 239.551 119.04 238.911C119.23 234.879 117.832 230.421 114.847 225.536L115.061 222.761C118.377 221.124 121.527 218.468 124.512 214.792C127.023 211.709 128.61 207.749 129.273 202.911L129.557 196.543C129.415 192.678 128.018 188.836 125.365 185.017C123.801 182.741 122.048 180.784 120.106 179.148L105.076 160.543L105.645 157.021L103.939 160.472L98.1832 166.555Z" fill="#0D131A"/>
<path d="M93.7415 104.657L93.5994 103.875C93.4336 102.31 92.8177 101.064 91.7518 100.14L91.5386 99.9617C90.8753 99.2976 90.0226 98.7996 88.9803 98.4676C87.5354 97.9933 86.2563 98.0881 85.143 98.7522C83.7454 99.5585 82.6439 100.922 81.8385 102.843C80.9621 104.954 80.9621 106.673 81.8385 108.001L82.8334 109.887C83.2361 110.717 83.4611 111.274 83.5085 111.559C83.4375 111.843 83.1295 112.329 82.5847 113.017L81.3056 114.511L78.0722 113.906C76.7457 113.812 75.7864 114.215 75.1942 115.116C74.8862 115.59 74.6257 117.096 74.4125 119.634C74.1993 122.195 74.2348 123.76 74.5191 124.329C74.7086 124.709 75.0284 125.065 75.4784 125.397L77.1484 126.499L78.6052 127.069C79.2448 127.282 79.6238 127.472 79.7422 127.638C80.5239 128.492 81.6727 130.187 83.1887 132.725C83.5677 133.365 84.231 133.863 85.1785 134.219L87.3814 134.717C89.1817 141.974 90.7924 147.144 92.2137 150.227C93.327 152.67 94.6298 154.377 96.1221 155.349C97.4486 156.203 99.0831 156.654 101.025 156.701C102.755 156.749 104.117 156.5 105.112 155.954C105.419 155.788 106.853 154.353 109.411 151.65L113.923 146.99L116.375 145.211L118.933 143.539C119.904 142.875 121.065 142.235 122.415 141.618L124.156 140.907L125.507 140.8L127.034 141.084L127.852 141.333L126.288 140.231C127.709 140.041 128.432 139.828 128.456 139.59C128.479 139.448 128.302 139.353 127.923 139.306H127.319L137.907 122.942C138.712 123.322 139.174 123.322 139.293 122.942C139.364 122.705 139.352 122.503 139.257 122.337L138.795 121.839C138.535 121.626 137.481 121.009 135.633 119.989C133.951 119.088 132.021 118.412 129.841 117.962C127.473 117.487 125.661 117.476 124.405 117.926C122.131 118.756 120.532 119.93 119.608 121.448C118.732 122.942 118.282 125.171 118.258 128.136L116.446 129.132C115.664 129.582 115.06 130.033 114.634 130.484L114.03 131.16L110.939 134.646C109.47 136.282 108.369 137.361 107.634 137.883C106.639 138.594 105.455 138.974 104.081 139.021L101.31 138.808L100.706 134.788C100.492 132.582 100.469 131.1 100.635 130.341L102.695 128.598C103.761 128.219 104.472 127.875 104.827 127.567C105.538 126.855 105.858 125.705 105.787 124.116L105.751 122.408L106.355 121.875C108.013 120.499 109.127 119.385 109.695 118.531C110.572 117.25 110.82 115.768 110.441 114.084C110.086 112.543 109.47 111.582 108.594 111.203C107.907 110.918 107.575 110.8 107.599 110.847L104.117 109.104C103.524 108.891 102.956 108.938 102.411 109.246L101.31 110.242C100.646 110.906 100.256 111.25 100.137 111.274L97.6855 111.594L95.447 107.966C94.4522 106.234 93.8837 105.132 93.7415 104.657Z" fill="#0D131A"/>
<path d="M91.7872 105.049L91.503 103.057C91.3609 102.251 91.1358 101.717 90.8279 101.456L88.9803 100.069C87.867 99.6419 86.5523 99.8435 85.0363 100.674L83.7572 103.057C83.0229 104.812 82.9281 106.104 83.4729 106.934C83.8282 107.456 84.2072 108.322 84.6099 109.531C85.0363 110.765 85.2139 111.571 85.1429 111.95C85.0008 112.828 84.373 113.776 83.2597 114.796L81.6253 116.041L79.6711 115.472C78.2735 115.235 77.326 115.484 76.8286 116.219C76.3074 116.978 76.0232 118.318 75.9758 120.239C75.9284 121.923 76.0232 122.99 76.2601 123.44L78.2853 124.899C79.6355 125.705 80.5001 126.31 80.8791 126.713L83.1531 129.417C84.148 130.65 84.7284 131.433 84.8942 131.765C85.2732 132.405 86.0785 132.891 87.3103 133.223L89.0513 133.508L89.5843 136.852C90.1291 139.626 90.899 142.306 91.8938 144.891C93.0545 147.879 93.9783 149.895 94.6653 150.939C95.2575 151.816 96.1339 152.634 97.2946 153.393C98.3132 154.057 99.5923 154.449 101.132 154.567C102.553 154.686 103.595 154.555 104.259 154.176C104.638 153.986 105.479 153.097 106.781 151.508C108.155 149.824 109.209 148.709 109.944 148.164L113.568 145.211C115.297 143.765 116.707 142.674 117.796 141.939C119.241 140.943 121.941 140.124 125.897 139.484L127.567 139.271H128.207L138.262 123.156L133.323 120.95C129.723 119.599 127.176 119.184 125.684 119.705C123.931 120.346 122.652 121.045 121.847 121.804C121.112 122.468 120.568 123.381 120.212 124.543C119.786 125.99 119.644 127.555 119.786 129.239L118.294 130.093C117.18 130.78 116.328 131.444 115.735 132.085L112.609 135.464C111.045 137.053 109.79 138.192 108.842 138.879C106.781 140.35 104.448 140.978 101.843 140.765C102.032 141.429 102.541 142.022 103.37 142.543L105.147 143.788L106.604 144.642C106.983 144.951 107.184 145.389 107.208 145.958C107.232 146.599 106.971 147.583 106.426 148.911C105.881 150.215 105.514 150.832 105.325 150.761L105.716 149.516C106.142 148.425 106.32 147.31 106.248 146.172C106.248 145.935 106.095 145.698 105.787 145.46C105.597 145.342 105.135 145.069 104.401 144.642L102.837 143.753C101.961 143.184 101.168 142.33 100.457 141.192L100.173 140.551L99.6752 138.701L98.7869 134.611C98.5737 133.33 98.5382 132.097 98.6803 130.911L99.0001 129.524C100.54 128.029 101.558 127.176 102.056 126.962L103.228 126.358C103.631 125.931 103.832 125.184 103.832 124.116L103.797 122.267L103.939 121.484L105.929 119.99C107.279 119.065 108.167 118.306 108.594 117.713C109.636 116.267 109.861 114.962 109.269 113.8L108.096 112.484L103.477 110.954L102.482 111.844C101.819 112.555 101.25 112.994 100.777 113.16L98.3961 113.551L96.6195 113.373C96.3116 113.207 95.4588 111.927 94.0612 109.531C92.64 107.136 91.882 105.642 91.7872 105.049Z" fill="#F29600"/>
<path d="M99.0358 117.393C99.1305 118.341 99.6398 118.958 100.564 119.243C101.416 119.503 102.103 119.409 102.624 118.958C103.619 118.104 104.484 117.523 105.218 117.215L106.355 117.037L107.208 116.93C108.037 116.788 108.617 116.112 108.949 114.903C109.162 114.073 109.186 113.242 109.02 112.412C108.783 111.416 108.286 110.574 107.528 109.887C106.628 109.08 105.538 108.737 104.259 108.855C103.098 108.974 102.317 109.318 101.914 109.887L101.701 110.1C100.208 111.594 99.3674 112.922 99.1779 114.084C98.9647 115.412 98.9174 116.515 99.0358 117.393Z" fill="#0D131A"/>
<path d="M99.3199 116.362L99.4976 114.156C99.6871 113.113 100.492 111.844 101.914 110.35L102.162 110.101C102.541 109.626 103.252 109.33 104.294 109.211C105.431 109.069 106.438 109.377 107.314 110.136C108.309 111.038 108.807 112.164 108.807 113.516L108.629 114.796C108.321 115.887 107.836 116.492 107.172 116.611L106.32 116.717L105.076 116.895C104.342 117.227 103.56 117.749 102.731 118.461C102.233 118.84 101.594 118.97 100.812 118.852C99.9595 118.71 99.4857 118.271 99.391 117.536L99.3199 116.362ZM98.858 114.049C98.6211 115.472 98.704 116.765 99.1067 117.927C99.5568 119.113 99.9831 119.812 100.386 120.026C100.789 120.239 101.333 120.038 102.02 119.421C102.707 118.804 103.821 118.164 105.36 117.5L107.279 117.251C108.226 117.109 108.89 116.35 109.269 114.974C109.506 114.097 109.529 113.219 109.34 112.342C109.103 111.298 108.57 110.409 107.741 109.674C106.793 108.796 105.621 108.417 104.223 108.536L102.66 108.962L101.665 109.674L101.452 109.887C99.9358 111.405 99.0712 112.793 98.858 114.049Z" fill="#0D131A"/>
<path d="M104.223 109.78C103.465 109.898 102.968 110.1 102.731 110.384L101.523 111.736C100.812 112.614 100.398 113.385 100.279 114.049C100.019 115.661 100.031 116.966 100.315 117.962L100.848 118.993L101.097 118.744C101.476 117.677 102.447 116.574 104.01 115.436L105.005 115.187C105.597 115.092 106.095 114.914 106.497 114.653L108.025 113.052C107.93 112.009 107.516 111.179 106.782 110.562C106.071 109.922 105.218 109.661 104.223 109.78Z" fill="white"/>
<path d="M106.959 115.721C107.243 115.674 107.504 115.389 107.741 114.867C107.978 114.298 108.072 113.694 108.025 113.053L106.497 114.654C106.094 114.915 105.597 115.093 105.005 115.188L104.01 115.437C102.447 116.575 101.475 117.678 101.096 118.745C102.494 117.417 103.738 116.516 104.827 116.041L105.858 115.828L106.959 115.721Z" fill="#DBDCDC"/>
<path d="M86.1376 98.7881C84.9296 99.3335 84.1479 100.258 83.7925 101.563C83.5557 102.393 83.5201 103.294 83.686 104.266C83.8044 105.12 84.0057 105.725 84.29 106.081C87.5352 109.211 89.6671 110.895 90.6856 111.132C91.1594 111.203 91.5029 111.108 91.716 110.847C92.2372 110.207 92.6043 108.855 92.8175 106.792C93.0544 104.61 92.9241 103.009 92.4267 101.99C90.9817 98.6458 88.8854 97.5786 86.1376 98.7881Z" fill="#0D131A"/>
<path d="M86.3868 99.3215C87.7844 98.7049 88.9688 98.7642 89.94 99.4993C90.6506 100.021 91.302 100.934 91.8942 102.238C92.3442 103.211 92.4982 104.764 92.3561 106.899C92.2376 108.938 91.9771 110.207 91.5744 110.705L91.0414 110.776C90.4966 110.658 89.3478 109.851 87.5949 108.357L84.7524 105.725L84.3615 104.729L84.1839 103.092L84.3615 101.705C84.6458 100.59 85.3209 99.7958 86.3868 99.3215ZM92.7469 101.74C92.1547 99.9855 91.2428 98.7997 90.011 98.1831C88.8029 97.5665 87.4409 97.5902 85.9249 98.2543C84.4563 98.8946 83.5443 100.116 83.189 101.918C82.8574 103.626 83.1535 105.061 84.0773 106.223C84.9774 107.503 86.2684 108.784 87.9502 110.065C89.7268 111.44 90.9467 111.997 91.6099 111.737C92.3442 111.452 92.8654 110.195 93.1733 107.966C93.5049 105.618 93.3628 103.543 92.7469 101.74Z" fill="#0D131A"/>
<path d="M91.5388 102.061C90.9703 100.804 90.3426 99.9382 89.6556 99.4639L86.5644 99.3572C85.9012 99.618 85.3801 100.092 85.0011 100.78C85.0958 102.132 85.4511 103.294 86.067 104.266C87.6304 106.614 89.3596 108.725 91.2546 110.598C91.6336 110.646 91.8941 109.496 92.0363 107.148C92.1784 104.752 92.0126 103.057 91.5388 102.061Z" fill="white"/>
<path d="M87.9147 108.001C89.6439 109.614 90.7454 110.479 91.2191 110.598H91.2546C89.3596 108.725 87.6305 106.614 86.0671 104.266C85.4512 103.294 85.0959 102.132 85.0011 100.78C84.6221 101.515 84.4918 102.416 84.6103 103.483C84.705 104.29 84.859 104.859 85.0722 105.191L87.9147 108.001Z" fill="#DBDCDC"/>
<path d="M85.3207 119.954L83.6152 116.717C82.9756 115.982 82.1702 115.602 81.199 115.579C80.2278 115.579 79.3514 115.982 78.5697 116.788C77.717 117.642 77.3972 118.745 77.6104 120.096C77.8235 121.164 78.5579 122.006 79.8133 122.622L82.5492 123.583C84.1837 124.081 85.297 124.294 85.8892 124.223L86.6353 124.152C86.8248 123.606 86.3866 122.207 85.3207 119.954Z" fill="#0D131A"/>
<path d="M85.2497 120.631C86.1735 122.67 86.5999 123.785 86.5288 123.975L85.4273 123.903L82.9401 123.476C82.1111 123.263 81.1044 122.86 79.92 122.267C78.7593 121.674 78.096 120.927 77.9302 120.026L77.8947 119.314C77.8947 118.389 78.1908 117.631 78.783 117.038C79.541 116.255 80.3345 115.887 81.1636 115.935C82.0637 115.935 82.7862 116.255 83.331 116.895L85.2497 120.631ZM87.2039 124.615C87.4645 124.378 87.1802 123.204 86.3512 121.093C85.4984 118.911 84.6693 117.37 83.864 116.469C83.1296 115.686 82.2414 115.283 81.1991 115.259C80.1332 115.259 79.1738 115.698 78.3211 116.575C77.3736 117.524 77.0301 118.71 77.2907 120.133C77.4091 120.82 77.6933 121.461 78.1434 122.054L79.5291 123.227C80.145 123.559 81.4952 123.927 83.5797 124.33L87.2039 124.615Z" fill="#0D131A"/>
<path d="M78.3919 118.389C79.0315 119.361 79.9434 120.298 81.1278 121.199C82.5964 122.267 84.2901 123.12 86.2088 123.761C86.422 123.737 85.9601 122.646 84.8231 120.488C83.7334 118.425 83.0346 117.215 82.7267 116.859C82.324 116.432 81.8503 116.183 81.3055 116.112C80.5238 115.994 79.7895 116.29 79.1025 117.002C78.6998 117.405 78.463 117.867 78.3919 118.389Z" fill="white"/>
<path d="M79.7781 121.875L82.9048 122.978C84.6814 123.547 85.7829 123.808 86.2092 123.76C84.2905 123.12 82.5969 122.266 81.1282 121.199C79.9439 120.298 79.0319 119.361 78.3923 118.389C78.2976 119.1 78.4397 119.847 78.8187 120.63C79.1266 121.27 79.4464 121.685 79.7781 121.875Z" fill="#DBDCDC"/>
<path d="M91.6805 120.737C92.3437 121.282 92.9833 121.934 93.5992 122.693C94.8546 124.235 95.3994 125.563 95.2336 126.677C95.1388 127.436 94.8783 128.183 94.4519 128.919C95.7073 128.61 96.7496 127.887 97.5787 126.749C98.4077 125.586 98.8223 124.27 98.8223 122.8C98.8223 121.069 98.2774 119.586 97.1878 118.353C96.1219 117.12 94.8191 116.503 93.2794 116.503C92.3319 116.503 91.4436 116.764 90.6145 117.286C89.8092 117.784 89.1459 118.46 88.6248 119.314C90.0697 119.788 91.0883 120.262 91.6805 120.737Z" fill="#D18200"/>
<path d="M91.6808 120.737C91.2781 120.429 90.5793 120.073 89.5844 119.67C88.6133 119.267 88.104 119.112 88.0566 119.207L89.3002 119.919L91.1834 120.986C91.8229 121.484 92.5217 122.326 93.2797 123.512C94.1561 124.935 94.5351 126.085 94.4167 126.962C94.2035 128.504 93.3152 129.962 91.7519 131.338L89.5489 133.01C89.6673 133.318 90.5438 132.808 92.1782 131.48C93.9548 130.033 94.9734 128.433 95.2339 126.678C95.3997 125.563 94.8549 124.235 93.5995 122.693C92.9836 121.935 92.344 121.282 91.6808 120.737Z" fill="#0D131A"/>
<path d="M107.457 157.519L106.853 158.978C106.355 160.092 105.846 160.994 105.325 161.681L100.741 166.306C97.7803 169.65 95.0207 173.895 92.4624 179.041C89.6199 184.733 87.8433 189.986 87.1327 194.8C86.6116 198.476 86.6945 202.211 87.3814 206.006C87.8315 208.614 88.5421 211.271 89.5133 213.974L90.9346 217.887C91.1004 218.717 91.1951 219.63 91.2188 220.626C91.2662 221.646 91.207 222.227 91.0412 222.37L88.6961 224.255C87.0143 225.678 85.8654 226.804 85.2495 227.634L81.8385 231.939L81.0213 232.366C80.4291 232.698 80.0857 232.994 79.9909 233.255C79.6593 234.061 79.7067 235.105 80.133 236.385C80.6542 237.88 81.5543 238.97 82.8334 239.658L85.7825 241.223C85.9246 239.8 86.1852 239.196 86.5642 239.409C87.8196 240.168 89.0277 240.334 90.1884 239.907V242.54L95.1983 243.038L97.721 243.144C98.7159 240.868 99.5331 240.002 100.173 240.548C100.789 241.093 101.594 241.259 102.589 241.046C103.465 240.856 104.14 240.476 104.614 239.907L104.721 243.109C108.108 242.99 110.856 242.634 112.964 242.042L113.959 239.231C114.669 238.852 115.285 238.247 115.806 237.417C116.328 236.563 116.671 235.627 116.837 234.607C116.339 231.856 115.202 229.093 113.426 226.318C113.284 226.057 113.236 225.014 113.284 223.188L111.863 223.472L108.629 223.615L106.959 223.366L108.594 223.081L111.578 222.583L113.319 222.085V222.049C113.864 221.931 114.646 221.528 115.664 220.84C117.725 219.441 119.94 217.283 122.309 214.366C124.749 211.354 126.324 207.903 127.034 204.014C127.413 201.95 127.544 199.235 127.425 195.867C127.283 191.907 126.04 187.84 123.694 183.666L120.212 178.579L107.457 157.519Z" fill="#F29600"/>
<path d="M86.5645 239.409C86.1855 239.196 85.925 239.801 85.7828 241.224C86.9435 241.793 88.4122 242.232 90.1887 242.54V239.907C89.028 240.334 87.82 240.168 86.5645 239.409Z" fill="#D18200"/>
<path d="M100.173 240.548C99.5334 240.003 98.7162 240.868 97.7213 243.145C100.137 243.216 102.471 243.204 104.721 243.109L104.614 239.908C104.141 240.477 103.466 240.856 102.589 241.046C101.594 241.259 100.789 241.093 100.173 240.548Z" fill="#D18200"/>
<path d="M116.837 234.607C116.671 235.627 116.328 236.563 115.806 237.417C115.285 238.247 114.669 238.852 113.959 239.231L112.964 242.042C115.688 241.33 117.086 240.275 117.157 238.876C117.228 237.524 117.121 236.101 116.837 234.607Z" fill="#D18200"/>
<path d="M85.7473 238.911L85.8894 238.982C85.3209 237.56 84.5984 236.457 83.722 235.674C82.7745 234.844 82.0875 234.322 81.6612 234.109C81.1874 233.848 80.8203 233.884 80.5597 234.216L78.9963 236.67L77.1842 240.014C76.4499 241.674 76.1538 243.228 76.2959 244.674C76.367 245.409 76.5091 245.967 76.7223 246.346C76.8644 245.35 77.5751 244.283 78.8542 243.145C79.8964 242.22 80.7729 241.627 81.4835 241.366C82.36 241.081 83.1772 240.761 83.9352 240.405C85.0722 239.836 85.6762 239.338 85.7473 238.911Z" fill="white"/>
<path d="M86.2446 241.116C86.5525 240.998 86.4341 240.286 85.8893 238.982L85.7471 238.911C85.6761 239.338 85.072 239.836 83.935 240.405C83.177 240.761 82.3598 241.081 81.4834 241.365C80.7727 241.626 79.8963 242.219 78.8541 243.144C77.5749 244.282 76.8643 245.35 76.7222 246.346C78.0961 244.923 79.1028 244.045 79.7423 243.713L83.1533 242.326L86.2446 241.116Z" fill="#DBDCDC"/>
<path d="M93.8483 234.963L91.5388 238.165C90.1649 240.299 89.478 241.995 89.478 243.252C89.478 245.505 89.7267 247.295 90.2241 248.623L90.9703 249.904L91.2901 249.441C91.219 248.042 91.9652 246.631 93.5285 245.208C94.6182 244.188 95.6841 243.465 96.7264 243.038C98.3608 242.327 99.2846 241.426 99.4978 240.335C98.9293 238.722 98.2897 237.524 97.5791 236.742C96.8211 235.935 96.0276 235.366 95.1985 235.034L93.8483 234.963Z" fill="white"/>
<path d="M96.7263 243.038C95.684 243.465 94.6181 244.189 93.5285 245.208C91.9651 246.631 91.2189 248.042 91.29 249.442L92.8178 247.627C93.2916 247.177 94.5352 246.335 96.5486 245.102C98.4673 243.916 99.5925 243.275 99.9241 243.181C100.066 243.157 100.09 242.86 99.9951 242.291C99.9241 241.722 99.7583 241.07 99.4977 240.335C99.2845 241.426 98.3607 242.327 96.7263 243.038Z" fill="#DBDCDC"/>
<path d="M112.147 236.315C111.626 235.675 111.081 235.165 110.512 234.785C109.849 234.382 109.399 234.323 109.162 234.608L106.888 237.347C105.609 238.959 104.899 240.015 104.756 240.513C104.377 241.793 104.662 243.643 105.609 246.062C106.083 247.272 106.604 248.351 107.173 249.299L107.386 248.944V248.766C107.457 247.58 107.883 246.442 108.665 245.351L110.655 243.038L112.325 241.331L113.746 239.73C113.177 238.046 112.644 236.908 112.147 236.315Z" fill="white"/>
<path d="M110.655 243.038L108.665 245.35C107.883 246.441 107.457 247.58 107.386 248.765V248.943C108.286 247.591 108.937 246.702 109.34 246.275L114.03 241.722C114.22 241.58 114.125 240.916 113.746 239.73L112.325 241.331L110.655 243.038Z" fill="#DBDCDC"/>
<path d="M85.4628 238.521C85.984 239.635 86.209 240.418 86.1379 240.868L85.9958 241.082L85.1431 241.402L79.8134 243.536C79.2212 243.868 78.2618 244.71 76.9353 246.062C76.7221 245.73 76.58 245.173 76.5089 244.39C76.3668 243.038 76.6511 241.592 77.3617 240.05L79.0672 236.849L80.595 234.501C80.7135 234.335 80.8556 234.252 81.0214 234.252C81.4241 234.204 82.2887 234.75 83.6152 235.888C84.2785 236.481 84.8943 237.359 85.4628 238.521ZM85.605 242.647L86.4932 242.291C86.9907 242.125 87.2986 241.734 87.4171 241.117C87.5355 240.382 87.2749 239.339 86.6354 237.987C85.9958 236.635 85.2733 235.604 84.468 234.892L82.5493 233.398C81.9334 233.042 81.3767 232.888 80.8793 232.936C80.3582 233.007 79.9081 233.268 79.5291 233.718L77.9657 236.173L76.1892 239.517C75.3601 241.319 75.0403 243.038 75.2298 244.675C75.3246 245.505 75.5141 246.181 75.7983 246.703L76.2247 247.485L76.7221 247.805C76.9353 247.853 77.113 247.782 77.2551 247.592L77.8591 246.987C79.1856 245.659 80.0502 244.9 80.4529 244.71C81.0214 244.378 82.7388 243.691 85.605 242.647Z" fill="#0D131A"/>
<path d="M99.7821 243.003L99.64 243.181C99.2847 243.299 98.2069 243.916 96.4066 245.031C94.5116 246.169 93.3391 246.952 92.889 247.378L91.148 249.548C90.8874 249.335 90.6506 248.92 90.4374 248.303C89.9636 247.046 89.7267 245.351 89.7267 243.216C89.7267 241.461 91.0651 238.9 93.7418 235.533L93.8839 235.319L94.2392 235.177C94.5945 235.153 95.0328 235.284 95.5539 235.568C96.2171 235.9 96.8449 236.386 97.437 237.027C98.0766 237.714 98.657 238.782 99.1781 240.228C99.6992 241.604 99.9005 242.529 99.7821 243.003ZM100.066 244.426C100.54 244.284 100.86 243.928 101.026 243.359C101.239 242.624 101.049 241.438 100.457 239.801C99.8413 238.189 99.1544 236.967 98.3964 236.137C97.7331 235.402 97.0107 234.833 96.229 234.43C95.471 234.027 94.784 233.837 94.1682 233.861C93.5997 233.908 93.1496 234.133 92.818 234.536L92.7114 234.714C89.8452 238.319 88.4121 241.153 88.4121 243.216C88.4121 245.541 88.6845 247.414 89.2293 248.837C89.5372 249.643 89.8926 250.224 90.2952 250.58L90.8638 251.043L91.3967 251.22L91.8586 250.9L92.2495 250.26C92.7232 249.501 93.2325 248.861 93.7773 248.339C94.1563 247.983 95.2341 247.26 97.0107 246.169C98.7399 245.102 99.7584 244.521 100.066 244.426Z" fill="#0D131A"/>
<path d="M108.843 235.354L109.162 234.963C109.281 234.844 109.411 234.785 109.553 234.785C109.885 234.785 110.288 234.975 110.761 235.354C111.235 235.71 111.65 236.125 112.005 236.599C112.384 237.05 112.822 237.927 113.32 239.232C113.841 240.607 114.007 241.449 113.817 241.757L111.721 243.714L109.34 246.062C108.843 246.607 108.156 247.568 107.279 248.943C106.521 247.663 105.905 246.323 105.432 244.923C104.816 243.05 104.662 241.603 104.97 240.583C105.159 239.919 106.45 238.176 108.843 235.354ZM113.035 235.781C112.727 235.354 112.301 234.915 111.756 234.465C110.951 233.801 110.217 233.469 109.553 233.469C109.008 233.469 108.547 233.682 108.168 234.109L107.848 234.5C105.337 237.441 103.963 239.338 103.726 240.192C103.3 241.615 103.525 243.536 104.401 245.955C104.899 247.259 105.479 248.481 106.142 249.619L106.675 250.544L107.244 250.9L107.777 250.58L108.381 249.655L110.299 246.951L114.67 242.718C115.357 242.125 115.321 240.832 114.563 238.84C113.995 237.394 113.485 236.374 113.035 235.781Z" fill="#0D131A"/>
<path d="M109.126 225.181L111.116 224.754C111.803 224.517 112.123 224.339 112.075 224.22L111.187 224.327L109.375 224.576L106.462 224.505C105.182 224.434 104.543 224.434 104.543 224.505L106.355 224.932L109.126 225.181Z" fill="#0D131A"/>
<path d="M141.886 1.38831C140.181 1.26973 138.76 2.47923 137.623 5.01679C137.315 5.68083 136.948 7.13934 136.521 9.39232L135.633 14.3726C135.467 15.3449 134.65 18.9497 133.181 25.1869C132.66 27.4636 130.99 30.8312 128.171 35.2897L126.146 38.8471L125.542 40.8036C125.447 41.5625 125.838 43.3056 126.715 46.0329C126.265 47.527 126.099 49.6614 126.217 52.4361L123.908 59.0172L122.664 62.2188L121.207 65.1002C121.018 65.4085 120.674 65.5745 120.177 65.5982C119.75 65.6457 119.336 66.0488 118.933 66.8077C118.152 68.3018 118.945 71.0884 121.314 75.1675L125.08 80.8592C124.772 82.875 125.72 84.2031 127.923 84.8434L132.933 85.4482C133.477 85.5193 134.271 85.8395 135.313 86.4086C136.261 86.9067 137.35 87.1557 138.582 87.1557C140.051 87.1557 141.756 86.6102 143.699 85.5193C145.38 84.6181 146.411 83.8592 146.79 83.2426L149.028 80.4679L152.119 76.7327L156.277 72.1793L160.078 68.1951C160.576 67.6259 161.18 67.2346 161.891 67.0212L162.779 66.8789C164.39 65.4559 165.763 63.6061 166.9 61.3294C167.801 59.5033 168.251 58.2108 168.251 57.4519C168.251 56.9065 168.12 55.8037 167.86 54.1436C167.576 52.3649 167.279 50.9301 166.972 49.8392C166.261 47.3254 165.906 45.2384 165.906 43.5783C165.906 42.1317 166.533 39.6178 167.789 36.0368C168.334 34.4241 170.075 31.1988 173.012 26.3608L176.103 22.5545L179.727 18.3212C180.485 17.3963 180.829 16.2343 180.758 14.835C180.687 13.6255 180.402 12.8429 179.905 12.4872C179.408 12.1315 178.567 11.9417 177.382 11.918C176.269 11.918 175.392 12.0485 174.753 12.3093C174.208 12.5228 173.13 13.4121 171.52 14.9773L166.794 19.7086C162.885 23.6217 159.522 26.5505 156.703 28.4952C155.519 29.3253 153.849 29.5031 151.693 29.0288C149.964 28.6731 148.247 27.9972 146.541 27.0011C145.333 26.2897 144.563 24.9379 144.232 22.9458C144.089 22.0446 144.018 20.3371 144.018 17.8232L144.409 11.1354C144.646 7.93381 144.753 6.06028 144.729 5.51482C144.682 4.47134 144.468 3.60572 144.089 2.91797C143.616 1.96934 142.881 1.45946 141.886 1.38831Z" fill="#F29600"/>
<path d="M134.034 72.0364L132.364 72.6768L130.943 72.8546L129.699 72.819L129.024 72.6412L128.633 72.7123C128.562 72.902 128.752 73.0799 129.202 73.2459L130.907 73.5305C131.997 73.5305 133.11 73.2459 134.247 72.6768C134.531 72.5345 135.017 72.4277 135.704 72.3566L137.054 72.321C137.338 72.3684 138.132 73.0443 139.435 74.3487C139.909 74.823 140.264 74.8942 140.501 74.5621C140.667 74.3487 140.441 73.993 139.826 73.4949L138.333 72.3922C137.504 71.8467 136.794 71.574 136.201 71.574C135.586 71.574 134.863 71.7281 134.034 72.0364Z" fill="#0D131A"/>
<path d="M133.963 77.7287L135.526 77.3018L136.77 77.6575C137.291 77.7287 137.646 77.6338 137.836 77.3729C137.931 77.2306 137.753 76.9935 137.303 76.6615C136.853 76.3532 136.486 76.1871 136.201 76.1634C135.941 76.1397 135.491 76.282 134.851 76.5903L133.679 77.2662C133.513 77.4085 133.466 77.5389 133.537 77.6575L133.963 77.7287Z" fill="#0D131A"/>
<path d="M121.314 71.3252C121.195 71.4675 121.266 71.7047 121.527 72.0367L122.166 72.7482L123.374 74.598C123.564 74.93 123.777 75.0723 124.014 75.0249C124.275 74.9537 124.334 74.7877 124.192 74.5268C124.026 74.1948 123.599 73.5545 122.912 72.6059C122.747 72.3213 122.451 72.0248 122.024 71.7165C121.598 71.3845 121.361 71.2541 121.314 71.3252Z" fill="#0D131A"/>
<path d="M140.181 49.8038L140.288 49.4124C140.288 49.2464 140.228 49.1397 140.11 49.0923L139.506 49.3769L139.044 50.6575L138.582 51.2978L138.333 51.867L138.618 52.5429C138.831 52.7326 139.008 52.8038 139.151 52.7563C139.316 52.6852 139.399 52.2465 139.399 51.4401L139.719 50.6219L140.181 49.8038Z" fill="#0D131A"/>
<path d="M139.151 53.1476C138.937 53.2424 139.008 53.9776 139.364 55.3531L140.998 60.0132L141.922 61.2583C142.443 61.78 142.775 61.9935 142.917 61.8986C143.154 61.7326 143.023 61.2701 142.526 60.5112L142.064 59.9065L141.602 59.195L140.714 57.0606L139.861 54.8195C139.506 53.61 139.269 53.0527 139.151 53.1476Z" fill="#0D131A"/>
<path d="M130.872 49.6968L130.694 50.266L130.659 51.262L130.872 52.9695C130.872 54.1079 131.061 54.6415 131.44 54.5703C131.677 54.5229 131.796 54.345 131.796 54.0367L131.725 53.2541L131.334 51.6533C131.168 50.3727 131.014 49.7205 130.872 49.6968Z" fill="#0D131A"/>
<path d="M147.11 76.7326L147.003 78.6536C147.027 79.0567 146.849 79.3295 146.47 79.4718C146.091 79.6141 145.736 79.4599 145.404 79.0093L144.978 79.6496C145.523 80.3374 146.115 80.6813 146.754 80.6813C147.181 80.6813 147.501 80.1714 147.714 79.1516C147.927 78.1556 147.998 76.9342 147.927 75.4875L147.11 76.7326Z" fill="#0D131A"/>
<path d="M146.612 79.6141C147.039 79.4244 147.204 78.4639 147.11 76.7327L145.404 79.0094L146.115 79.5785L146.612 79.6141Z" fill="white"/>
<path d="M126.75 48.0601L126.608 48.985C126.466 50.0996 126.454 51.2854 126.573 52.5423C126.596 53.0403 126.845 53.7162 127.319 54.57C127.911 55.6135 128.61 56.3249 129.415 56.7044C129.368 55.2814 129.131 53.9059 128.705 52.5779C128.207 51.0601 127.556 49.5541 126.75 48.0601Z" fill="white"/>
<path d="M71.7477 51.4396C71.5819 51.3684 71.3332 51.4751 71.0015 51.7597L70.362 52.4356C67.8274 55.8032 65.4113 61.3645 63.1136 69.1195C60.7211 77.1354 59.063 85.4951 58.1392 94.1987C58.0444 94.9576 58.0563 95.6335 58.1747 96.2264C58.2695 96.7719 58.4235 97.0565 58.6366 97.0802C59.063 97.1276 59.3591 96.2027 59.5249 94.3055C60.3066 86.4319 61.87 78.4872 64.2151 70.4713C66.3943 63.0009 68.7394 57.155 71.2503 52.9336C71.7951 52.0324 71.9609 51.5344 71.7477 51.4396Z" fill="#0D131A"/>
<path d="M61.5856 57.8429C61.4198 57.7718 61.0645 58.1038 60.5197 58.839L59.6314 60.1908C54.0885 75.511 52.004 90.1079 53.3779 103.982L53.52 105.76C53.6385 106.756 53.7806 107.254 53.9464 107.254C54.0885 107.254 54.2425 106.816 54.4083 105.938L54.6215 104.302C54.053 86.183 56.2086 71.5149 61.0882 60.2975C61.7515 58.8034 61.9173 57.9852 61.5856 57.8429Z" fill="#0D131A"/>
<path d="M210.249 60.4394L209.787 59.7279C209.574 59.4196 209.396 59.2892 209.254 59.3366C209.088 59.3841 209.005 59.6212 209.005 60.0481L209.147 60.973C210.521 64.7675 211.564 69.9612 212.274 76.5541C213.056 83.5977 213.21 90.1076 212.736 96.0839V97.4001C212.783 98.0642 212.89 98.3962 213.056 98.3962C213.222 98.3962 213.388 98.0642 213.553 97.4001L213.767 96.1195C214.501 89.9534 214.477 83.0759 213.695 75.4869C212.937 67.9928 211.789 62.977 210.249 60.4394Z" fill="#0D131A"/>
<path d="M215.152 68.7282C214.939 68.0168 214.714 67.6966 214.477 67.7678C214.311 67.7915 214.205 67.9812 214.157 68.3369V69.1195C215.792 75.499 217.023 82.0327 217.853 88.7205C218.729 95.8351 219.061 102.523 218.847 108.784C218.847 110.159 218.966 110.859 219.203 110.883C219.369 110.883 219.487 110.586 219.558 109.993L219.629 108.784C220.458 102.642 220.399 95.9063 219.451 88.5782C218.646 82.175 217.213 75.5583 215.152 68.7282Z" fill="#0D131A"/>
<path d="M155.922 49.3405C155.614 49.1982 155.27 49.2457 154.891 49.4828L147.607 54.89L147.11 55.3169C146.684 55.5777 146.376 55.969 146.186 56.4908L145.689 57.5224L144.943 59.2655L145.085 59.7635L146.648 59.8347L151.089 58.9809L151.48 58.8742L155.247 57.8781C156.218 57.5224 156.763 57.1074 156.881 56.6331C156.999 56.0876 157.011 55.0797 156.917 53.6093L156.561 50.3366C156.467 49.8148 156.253 49.4828 155.922 49.3405Z" fill="white"/>
<path d="M155.922 49.3405C155.614 49.1982 155.27 49.2457 154.891 49.4828L147.607 54.89L147.11 55.3169C146.684 55.5777 146.376 55.969 146.186 56.4908L145.689 57.5224L144.943 59.2655L145.085 59.7635L146.648 59.8347L151.089 58.9809L151.48 58.8742L155.247 57.8781C156.218 57.5224 156.763 57.1074 156.881 56.6331C156.999 56.0876 157.011 55.0797 156.917 53.6093L156.561 50.3366C156.467 49.8148 156.253 49.4828 155.922 49.3405Z" fill="white"/>
<path d="M152.084 51.4756L152.013 51.5467L147.11 55.3175C146.683 55.5784 146.375 55.9697 146.186 56.4914L145.689 57.5231L144.942 59.2662L145.084 59.7642L146.648 59.8353L150.77 59.0527C151.788 57.4401 152.297 55.6258 152.297 53.61C152.297 52.8748 152.226 52.1633 152.084 51.4756Z" fill="#008086"/>
<path d="M128.918 56.8472L129.806 57.3097L129.77 56.6694C129.747 55.199 129.51 53.7998 129.06 52.4717L128.029 49.8037C127.698 50.6812 127.532 51.5942 127.532 52.5429C127.532 54.1792 127.994 55.614 128.918 56.8472Z" fill="#008086"/>
<path d="M128.989 55.4949C129.202 55.4949 129.415 55.3526 129.628 55.068L129.06 52.4712C128.799 51.6411 128.467 50.7874 128.065 49.9099C127.733 50.5739 127.567 51.3803 127.567 52.3289C127.567 53.2064 127.709 53.9534 127.994 54.57C128.254 55.1866 128.586 55.4949 128.989 55.4949Z" fill="#00666C"/>
<path d="M128.491 54.7134C128.657 55.3777 129 55.6623 129.522 55.5674C129.474 55.0693 129.285 54.322 128.953 53.3257C128.503 53.7052 128.349 54.1678 128.491 54.7134Z" fill="#0D131A"/>
<path d="M152.084 51.4756L152.013 51.5467L147.11 55.3175C146.683 55.5784 146.375 55.9697 146.186 56.4914L145.404 58.1278L148.602 58.3412C149.881 58.1041 150.947 57.5705 151.8 56.7404C152.132 55.7444 152.297 54.7009 152.297 53.61C152.297 52.8748 152.226 52.1633 152.084 51.4756Z" fill="#00666C"/>
<path d="M150.485 58.8034L151.338 58.7678C152.238 57.2263 152.688 55.5069 152.688 53.6097C152.688 52.9456 152.605 52.1512 152.439 51.2262L152.404 51.1907C152.38 51.5227 152.167 51.6887 151.764 51.6887L151.942 53.6097C151.942 55.4832 151.456 57.2144 150.485 58.8034Z" fill="#0D131A"/>
<path d="M148.496 58.1274C148.898 58.1274 149.23 57.9851 149.49 57.7006C149.727 57.416 149.846 57.0839 149.846 56.7045C149.846 56.325 149.727 55.993 149.49 55.7084C149.23 55.4476 148.934 55.3171 148.602 55.3171C148.294 55.3171 148.022 55.4594 147.785 55.744C147.548 56.0286 147.43 56.3606 147.43 56.7401L147.678 57.665L148.496 58.1274Z" fill="#0D131A"/>
<path d="M149.881 56.2433C150.236 56.2433 150.52 56.1128 150.734 55.8519C150.923 55.6146 151.018 55.3418 151.018 55.0334C151.018 54.6776 150.911 54.3811 150.698 54.1439C150.461 53.8829 150.189 53.7524 149.881 53.7524C149.596 53.7524 149.336 53.8948 149.099 54.1794C148.886 54.4404 148.779 54.7488 148.779 55.1046L149.099 55.8874C149.336 56.1247 149.596 56.2433 149.881 56.2433Z" fill="white"/>
<path d="M128.705 53.8952L129.131 53.5749L129.273 52.9344C129.273 52.6261 129.214 52.377 129.095 52.1872C129.001 51.9737 128.87 51.8669 128.705 51.8669L128.314 52.2228L128.171 52.97L128.314 53.6105L128.705 53.8952Z" fill="white"/>
<path d="M155.104 49.8036C155.696 49.4479 156.064 49.6494 156.206 50.4083L156.561 53.6455C156.656 55.0684 156.644 56.0289 156.526 56.527C156.407 57.0013 155.566 57.4519 154.003 57.8787L150.983 58.5902L146.577 59.4795L145.546 59.5863C145.357 59.5625 145.274 59.4677 145.298 59.3017L146.506 56.6337C146.648 56.2779 146.92 55.9341 147.323 55.602C148.934 54.2977 150.118 53.3609 150.876 52.7917L155.104 49.8036ZM155.85 48.5585C154.263 49.4597 152.605 50.5506 150.876 51.8313L147.323 54.7839L146.47 55.5309C146.091 55.8629 145.854 56.1594 145.76 56.4202L143.912 60.2977L143.663 60.9381C143.616 61.1752 143.699 61.3294 143.912 61.4005L144.196 61.1871L144.374 60.7246C144.421 60.606 144.599 60.4875 144.907 60.3689L145.795 60.191C146.529 60.191 147.986 59.9539 150.165 59.4795L155.708 58.1278C156.229 57.9143 156.656 57.5349 156.987 56.9894C157.366 56.3965 157.556 55.6969 157.556 54.8906C157.556 54.2265 157.485 53.2898 157.343 52.0803L157.165 50.1949L157.094 49.4479L157.165 48.8075C157.828 48.0961 158.124 47.681 158.053 47.5625C157.959 47.4439 157.224 47.7759 155.85 48.5585Z" fill="#0D131A"/>
<path d="M127.39 52.4356C127.39 54.5937 128.065 56.325 129.415 57.6293L129.948 57.4514C129.332 56.906 128.847 56.2064 128.491 55.3526C128.112 54.4751 127.923 53.5384 127.923 52.5423C127.923 51.6648 128.065 50.8467 128.349 50.0878L127.958 49.4119C127.579 50.4079 127.39 51.4158 127.39 52.4356Z" fill="#0D131A"/>
<path d="M126.608 48.9853L126.75 48.0604C127.556 49.5545 128.207 51.0604 128.705 52.5782C129.131 53.9063 129.368 55.2818 129.415 56.7047C128.61 56.3253 127.911 55.6138 127.319 54.5703C126.845 53.7166 126.596 53.0407 126.573 52.5427C126.454 51.2857 126.466 50.1 126.608 48.9853ZM137.658 6.22615C138.559 3.33285 139.849 1.8862 141.531 1.8862C142.645 1.8862 143.438 2.52652 143.912 3.80716C144.267 4.80321 144.386 5.9297 144.267 7.18663L143.805 12.9495L143.521 20.0998C143.568 22.5662 143.912 24.3804 144.551 25.5425C145.025 26.3725 145.902 27.1789 147.181 27.9615C148.199 28.5781 149.419 29.0168 150.841 29.2777L154.109 29.4911L152.724 30.0959L151.054 30.9852L149.739 32.0168L148.034 33.4753C147.489 34.0919 147.216 34.4833 147.216 34.6493C147.24 34.839 147.631 34.6611 148.389 34.1157L149.846 33.1552L150.983 32.3014C151.599 31.6848 152.238 31.2935 152.901 31.1275C153.351 31.0564 153.944 30.8192 154.678 30.416C155.554 29.9654 156.348 29.42 157.058 28.7797C160.185 26.1947 162.992 23.7164 165.479 21.3448L173.723 13.412C174.386 12.7954 175.381 12.4278 176.707 12.3092C178.034 12.1669 178.993 12.3566 179.585 12.8784C180.13 13.3527 180.367 14.1471 180.296 15.2618C180.225 16.2578 179.988 17.0286 179.585 17.574L176.245 21.5227L172.515 26.254C167.801 33.7955 165.444 39.4517 165.444 43.2224C165.444 44.9537 165.598 46.5782 165.906 48.096L166.723 51.1553L167.434 54.2502C167.671 55.5308 167.789 56.4557 167.789 57.0249C167.789 57.7127 167.623 58.5308 167.292 59.4795C166.936 60.5704 166.427 61.5902 165.764 62.5388C164.248 64.768 163.3 66.0487 162.921 66.3807L162.246 66.4874C161.843 66.4874 161.535 66.5586 161.322 66.7009L158.8 68.693C157.26 70.0685 155.957 71.4084 154.891 72.7128L150.023 78.2978C148.294 80.3136 147.24 81.6772 146.861 82.3887C146.506 82.9816 145.546 83.7879 143.983 84.8077C142.017 86.0883 140.252 86.7287 138.689 86.7287C137.883 86.7287 137.114 86.5745 136.379 86.2662L135.029 85.5903C133.868 85.0686 132.672 84.7958 131.44 84.7721C129.001 84.6535 127.449 84.3571 126.786 83.8828C126.359 83.5745 126.004 82.9935 125.72 82.1397C126.596 82.9935 127.437 83.4915 128.243 83.6338C129.332 83.8709 130.742 83.5745 132.471 82.7444L134.247 82.1397L136.344 81.8551L138.831 82.3531C140.063 82.5903 141.081 82.5784 141.887 82.3176C142.763 82.033 143.45 81.6298 143.947 81.1081L145.156 79.365C146.079 77.942 147.37 76.3175 149.028 74.4914C152.037 71.2424 154.003 69.2503 154.927 68.5151C155.306 68.2068 156.087 67.8511 157.272 67.4479L159.475 66.5941C159.854 66.357 160.138 65.9301 160.327 65.3135C160.446 64.9103 160.576 64.2226 160.718 63.2502C160.813 62.5625 160.801 61.9459 160.683 61.4004C160.588 60.9498 160.47 60.7245 160.327 60.7245C160.114 60.772 159.996 61.104 159.972 61.7206C159.712 63.855 159.451 65.1475 159.19 65.5981C159.025 65.8827 158.432 66.1791 157.414 66.4874C156.206 66.8669 155.365 67.2345 154.891 67.5902L151.16 70.7562C149.36 72.44 148.01 73.8392 147.11 74.9539C145.831 76.5665 144.634 78.2859 143.521 80.112L142.206 81.0014C141.519 81.2859 140.75 81.4282 139.897 81.4282L138.085 81.1792L136.202 80.9302L134.105 81.1792L132.08 81.7128C130.28 82.4954 129.214 82.8867 128.882 82.8867C128.195 82.8867 127.295 82.3057 126.182 81.1436C124.832 79.7444 123.47 77.7997 122.096 75.3096C121.314 73.8867 120.663 72.4993 120.141 71.1475C119.549 69.6297 119.253 68.4914 119.253 67.7325C119.253 67.1159 119.502 66.6534 119.999 66.3451L121.598 65.1712C122.119 64.5546 122.723 63.4281 123.41 61.7917C124.026 60.3688 124.476 59.1237 124.761 58.0565C125.163 56.5862 125.661 55.0447 126.253 53.432C126.727 54.8312 127.271 55.8984 127.887 56.6336L128.918 57.5585C129.32 57.8431 129.522 58.1395 129.522 58.4478L129.699 58.8036L130.019 58.7324C130.232 58.3055 130.339 57.7838 130.339 57.1672L130.019 54.8549C129.782 53.5506 129.557 52.6612 129.344 52.1869L126.892 45.8549C126.277 44.0051 125.969 42.4161 125.969 41.088C125.969 40.1869 126.146 39.3568 126.502 38.5979C126.786 38.0287 127.26 37.3291 127.923 36.4991C128.562 35.7165 129.309 34.5781 130.161 33.084C131.132 31.4002 131.926 29.7876 132.542 28.2461C133.868 24.8547 135.005 20.3606 135.953 14.7638C136.806 9.97321 137.374 7.12734 137.658 6.22615ZM136.806 4.5542L134.887 13.5543L132.968 22.3409C132.281 24.831 131.192 27.5227 129.699 30.416L127.106 35.1829C126.04 37.1513 125.424 38.5386 125.258 39.3449C125.068 40.2461 124.997 41.0406 125.045 41.7284L125.471 43.6138L126.146 46.0327L125.898 47.7403C125.732 49.1869 125.696 50.6928 125.791 52.2581L123.091 59.9063L121.811 62.8589C121.29 63.8313 120.864 64.4597 120.532 64.7443L119.076 65.7759C118.412 66.2977 118.081 66.9143 118.081 67.6258C118.081 69.0724 118.72 71.1357 119.999 73.8155C121.255 76.4954 122.688 78.7839 124.299 80.6812C124.393 81.9144 124.938 83.1357 125.933 84.3452C126.454 84.9381 127.473 85.365 128.989 85.6259L132.933 86.0883C133.62 86.1832 134.603 86.5389 135.882 87.1555C136.971 87.701 137.99 87.9737 138.938 87.9737C140.122 87.9737 141.555 87.5706 143.237 86.7642C144.634 86.0765 145.677 85.4124 146.364 84.7721L148.709 82.0686L152.191 77.7642L159.759 69.3333C160.422 68.6455 161.168 68.2187 161.997 68.0527L163.241 67.8036L165.16 65.5981L167.078 63.1079L168.571 60.3688C169.163 59.1593 169.459 58.2818 169.459 57.7364C169.459 56.9775 169.021 54.8194 168.144 51.262C167.363 47.9181 166.972 45.2264 166.972 43.1869C166.972 41.8114 167.54 39.6532 168.677 36.7125C169.672 34.1038 170.774 31.7322 171.982 29.5978C172.882 28.0089 174.504 25.9219 176.849 23.3369L181.007 18.7835C181.93 17.6215 182.333 16.2578 182.215 14.6926C182.12 13.2697 181.658 12.2262 180.829 11.5622C180.071 10.9218 178.922 10.578 177.382 10.5305C175.582 10.4594 174.114 10.9693 172.977 12.0602L166.581 18.4278L160.612 24.3686C158.243 26.4792 156.573 27.748 155.602 28.1749C154.986 28.4595 153.955 28.5781 152.51 28.5306C151.018 28.4595 149.846 28.2342 148.993 27.8548C147.761 27.333 146.849 26.7638 146.257 26.1472C145.333 25.1512 144.871 23.8231 144.871 22.163L144.836 17.325L144.978 13.0918L145.546 5.55025C145.594 4.45934 145.286 3.36842 144.623 2.2775C143.888 1.06801 142.953 0.380259 141.816 0.21425C140.679 0.0719563 139.613 0.463263 138.618 1.38817C137.694 2.26565 137.09 3.32099 136.806 4.5542Z" fill="#0D131A"/>
<defs>
<filter id="filter0_d_4001_980" x="154.512" y="26.8987" width="133.159" height="151.98" filterUnits="userSpaceOnUse" color-interpolation-filters="sRGB">
<feFlood flood-opacity="0" result="BackgroundImageFix"/>
<feColorMatrix in="SourceAlpha" type="matrix" values="0 0 0 0 0 0 0 0 0 0 0 0 0 0 0 0 0 0 127 0" result="hardAlpha"/>
<feOffset dx="13.4722" dy="18.8611"/>
<feGaussianBlur stdDeviation="9.43056"/>
<feComposite in2="hardAlpha" operator="out"/>
<feColorMatrix type="matrix" values="0 0 0 0 0 0 0 0 0 0 0 0 0 0 0 0 0 0 0.26 0"/>
<feBlend mode="normal" in2="BackgroundImageFix" result="effect1_dropShadow_4001_980"/>
<feBlend mode="normal" in="SourceGraphic" in2="effect1_dropShadow_4001_980" result="shape"/>
</filter>
</defs>
</svg>
