<svg width="13" height="10" viewBox="0 0 13 10" fill="none" xmlns="http://www.w3.org/2000/svg">
<path d="M5.64865 8.89873C5.79865 8.74873 5.87065 8.56748 5.86465 8.35498C5.85865 8.14248 5.7804 7.96123 5.6299 7.81123L3.51115 5.69248H11.8737C12.0862 5.69248 12.2644 5.62048 12.4084 5.47648C12.5524 5.33248 12.6242 5.15448 12.6237 4.94248C12.6237 4.72998 12.5517 4.55173 12.4077 4.40773C12.2637 4.26373 12.0857 4.19198 11.8737 4.19248H3.51115L5.64865 2.05498C5.79865 1.90498 5.87365 1.72673 5.87365 1.52023C5.87365 1.31373 5.79865 1.13573 5.64865 0.98623C5.49865 0.83623 5.3204 0.76123 5.1139 0.76123C4.9074 0.76123 4.7294 0.83623 4.5799 0.98623L1.14865 4.41748C1.07366 4.49248 1.0204 4.57373 0.988904 4.66123C0.957404 4.74873 0.941904 4.84248 0.942404 4.94248C0.942404 5.04248 0.958155 5.13623 0.989655 5.22373C1.02116 5.31123 1.07415 5.39248 1.14865 5.46748L4.59865 8.91748C4.73615 9.05498 4.9079 9.12373 5.1139 9.12373C5.3199 9.12373 5.49815 9.04873 5.64865 8.89873Z" fill="black"/>
</svg>
